<mxfile host="app.diagrams.net" agent="Mozilla/5.0 (Windows NT 10.0; Win64; x64) AppleWebKit/537.36 (KHTML, like Gecko) Chrome/136.0.0.0 Safari/537.36" version="27.0.3">
  <diagram name="Page-1" id="Di2r4eblPkHfVtV-5HPy">
    <mxGraphModel dx="2743" dy="842" grid="1" gridSize="10" guides="1" tooltips="1" connect="1" arrows="1" fold="1" page="1" pageScale="1" pageWidth="850" pageHeight="1100" math="0" shadow="0">
      <root>
        <mxCell id="0" />
        <mxCell id="1" parent="0" />
        <mxCell id="mvXqKcknuPtsK_GKtYUi-5" value="&lt;p style=&quot;margin:0px;margin-top:4px;text-align:center;&quot;&gt;&lt;b&gt;VitalSign&lt;/b&gt;&lt;/p&gt;&lt;hr size=&quot;1&quot; style=&quot;border-style:solid;&quot;&gt;&lt;p style=&quot;margin:0px;margin-left:4px;&quot;&gt;&lt;/p&gt;&lt;p style=&quot;margin:0px;margin-left:4px;&quot;&gt;vitalID: int&lt;/p&gt;&lt;p style=&quot;margin:0px;margin-left:4px;&quot;&gt;bloodPressure: float&lt;/p&gt;&lt;p style=&quot;margin:0px;margin-left:4px;&quot;&gt;heartRate: int&lt;/p&gt;&lt;p style=&quot;margin:0px;margin-left:4px;&quot;&gt;temperature:&amp;nbsp;&lt;span style=&quot;background-color: transparent; color: light-dark(rgb(0, 0, 0), rgb(255, 255, 255));&quot;&gt;float&lt;/span&gt;&lt;/p&gt;&lt;p style=&quot;margin:0px;margin-left:4px;&quot;&gt;GLU:&amp;nbsp;&lt;span style=&quot;background-color: transparent; color: light-dark(rgb(0, 0, 0), rgb(255, 255, 255));&quot;&gt;float&lt;/span&gt;&lt;/p&gt;&lt;p style=&quot;margin:0px;margin-left:4px;&quot;&gt;WBC:&amp;nbsp;&lt;span style=&quot;background-color: transparent; color: light-dark(rgb(0, 0, 0), rgb(255, 255, 255));&quot;&gt;float&lt;/span&gt;&lt;/p&gt;&lt;p style=&quot;margin:0px;margin-left:4px;&quot;&gt;RBC:&amp;nbsp;&lt;span style=&quot;background-color: transparent; color: light-dark(rgb(0, 0, 0), rgb(255, 255, 255));&quot;&gt;float&lt;/span&gt;&lt;/p&gt;&lt;p style=&quot;margin:0px;margin-left:4px;&quot;&gt;deviceID: int&lt;/p&gt;&lt;p style=&quot;margin:0px;margin-left:4px;&quot;&gt;&lt;br&gt;&lt;/p&gt;" style="verticalAlign=top;align=left;overflow=fill;html=1;whiteSpace=wrap;" vertex="1" parent="1">
          <mxGeometry x="30" y="200" width="160" height="150" as="geometry" />
        </mxCell>
        <mxCell id="mvXqKcknuPtsK_GKtYUi-6" value="&lt;p style=&quot;margin:0px;margin-top:4px;text-align:center;&quot;&gt;&lt;b&gt;HealthcareRecord&lt;/b&gt;&lt;/p&gt;&lt;hr size=&quot;1&quot; style=&quot;border-style:solid;&quot;&gt;&lt;p style=&quot;margin:0px;margin-left:4px;&quot;&gt;recordID: int&lt;/p&gt;&lt;p style=&quot;margin:0px;margin-left:4px;&quot;&gt;patientID:&amp;nbsp;&lt;span style=&quot;background-color: transparent; color: light-dark(rgb(0, 0, 0), rgb(255, 255, 255));&quot;&gt;int&lt;/span&gt;&lt;/p&gt;&lt;p style=&quot;margin:0px;margin-left:4px;&quot;&gt;filePath: String&lt;/p&gt;&lt;p style=&quot;margin:0px;margin-left:4px;&quot;&gt;vitalID:&amp;nbsp;&lt;span style=&quot;background-color: transparent; color: light-dark(rgb(0, 0, 0), rgb(255, 255, 255));&quot;&gt;int&lt;/span&gt;&lt;/p&gt;&lt;p style=&quot;margin:0px;margin-left:4px;&quot;&gt;&lt;br&gt;&lt;/p&gt;" style="verticalAlign=top;align=left;overflow=fill;html=1;whiteSpace=wrap;" vertex="1" parent="1">
          <mxGeometry x="310" y="200" width="160" height="90" as="geometry" />
        </mxCell>
        <mxCell id="mvXqKcknuPtsK_GKtYUi-7" value="" style="line;strokeWidth=1;fillColor=none;align=left;verticalAlign=middle;spacingTop=-1;spacingLeft=3;spacingRight=3;rotatable=0;labelPosition=right;points=[];portConstraint=eastwest;strokeColor=inherit;" vertex="1" parent="1">
          <mxGeometry x="190" y="241" width="120" height="8" as="geometry" />
        </mxCell>
        <mxCell id="mvXqKcknuPtsK_GKtYUi-8" value="*" style="text;html=1;align=center;verticalAlign=middle;resizable=0;points=[];autosize=1;strokeColor=none;fillColor=none;" vertex="1" parent="1">
          <mxGeometry x="190" y="219" width="30" height="30" as="geometry" />
        </mxCell>
        <mxCell id="mvXqKcknuPtsK_GKtYUi-9" value="1" style="text;html=1;align=center;verticalAlign=middle;resizable=0;points=[];autosize=1;strokeColor=none;fillColor=none;" vertex="1" parent="1">
          <mxGeometry x="285" y="218" width="30" height="30" as="geometry" />
        </mxCell>
        <mxCell id="mvXqKcknuPtsK_GKtYUi-11" value="" style="endArrow=classic;html=1;rounded=0;" edge="1" parent="1">
          <mxGeometry width="50" height="50" relative="1" as="geometry">
            <mxPoint x="270" y="350" as="sourcePoint" />
            <mxPoint x="270" y="450" as="targetPoint" />
          </mxGeometry>
        </mxCell>
        <mxCell id="mvXqKcknuPtsK_GKtYUi-82" value="" style="shape=image;verticalLabelPosition=bottom;labelBackgroundColor=default;verticalAlign=top;aspect=fixed;imageAspect=0;image=data:image/png,/9j/4AAQSkZJRgABAQAAAQABAAD/2wBDAAEBAQEBAQEBAQEBAQEBAQEBAQEBAQEBAQEBAQEBAQEBAQEBAQEBAQEBAQEBAQEBAQEBAQEBAQEBAQEBAQEBAQH/2wBDAQEBAQEBAQEBAQEBAQEBAQEBAQEBAQEBAQEBAQEBAQEBAQEBAQEBAQEBAQEBAQEBAQEBAQEBAQEBAQEBAQEBAQH/wAARCADvA2cDASIAAhEBAxEB/8QAHgABAQEBAQEBAQEBAQAAAAAAAAgFCQcGCgQDAgH/xABVEAAABQMCAQYJCQcDAAcFCQADBAUGBwACCAEJWRUWGFaX2RITFBmVmNTW1woRF1h1eJSZtjU4OVWWuLkhNrUiIyQlOnm3MTJBd7IqMzdhYmlydqn/xAAaAQEAAwEBAQAAAAAAAAAAAAAAAgMEAQUG/8QAMBEAAgICAgMAAgIBBAEDBQAAAgMBBAAFBhIRExQhIgcVIxYkMTJBF1FTJTQ3QkT/2gAMAwEAAhEDEQA/AP3s81Gt1aQPQ6d7NTmo1urSB6HTvZq36UxmBzUa3VpA9Dp3s1YgDZbdzkVQNW+iagBojfFDB1SiGoQYox9zWDC2B6l/AtEFsLgWC326aXCWghW3666B2aW/dVgFv90rH2A2v+RddMY5qNbq0geh072anNRrdWkD0OnezV+fPbi3bMnJu3Us9NsDNJlwOzH1jqXOOyBl2Gm3ITWukKPElxk7R1Jz2P2SH8EpK62w33GDwSQEABADJg3O3QcBQAAL3kL93e89xNtPb+nfLNHTmyvP9nJ6C3Yma7wBUjbccsnvdwpzaaxBaIIyw3lhSRU248bczgIJS6jqJhvIKtoTUiQ2lhgPM+2mvqNdu2SXw7bXVdlQkRmX2FXHnUroFH4ZFtl4DojXmII7MQKpNbFMO9NZr9pd04RH16++evtyU9K6mLrpuMfLy8L+NdR4WW25mErRDGGQis5jofzUa3VpA9Dp3s1OajW6tIHodO9mriGzcp94mYdovHvKiC4DxTfmfE4gs6QhIhWkx3MCEW7Db3MLCwkmxi7yyGRnNe6QWPc01EcS+SvAEVlowAC2/JSl94XQGcswSGF2CKrmJmOgmUE7FMNsh5zozYwsQ1Q4WkNYJtxIX2RHoK+9S6EqDjSAuattrAH38KUPaiErNXId0EtPD7Ly/wCt/t4vkFSdHcCjeFxQBe6axWHFWj8zbRUMDp2bFf2JC6PzgbJNZHlpn/YTqopAy1/c1ps0ZSPeJCbQVa63+J817FzuFipXdAObVKHSAR5GK75qNbq0geh072anNRrdWkD0OnezV8bB8tNyfIYiac2cSW01pTJGzIlFsJzlLECbiIN9+ttNdCOTXiiWpLKYVWCyeqFwVIunq6oSBOWDBlVA4BbYYE9RqdhDqr31bCyVYrOYh6j8dluSZLasvEzHYDEhnxMx5ifzkUPVZQmzXYLUWFLelo+erFNCGLYPmInqYEJR5iJ8TH4zA5qNbq0geh072anNRrdWkD0OnezVE+6LlNIOEu3/AJR5VxUjs1wSHCUcXvBqI0gp62qsxQU7V1GTNAHCnNxwtRcNkfJ1Ee/UJNcSSY8dYFd5V4Ft4d8Dx9vRgsLY0jrdvyvZaEYdTkYAisejCGCau3kJ0SIsyevRux2e1tHevvZUbiYrHSaWMuraytOK9DTbFxcBJqXkhVEHwNt10q2T2nIL1Uab6phbGHJb5m4TrFV1KFjrL7DtHdSKELNxOmupYMZYAc0iphvoVgCTbsh2x1oiREYDSjqT2DHMORWhSF7mm0mtIVCqLDWGC0GWd0OajW6tIHodO9mpzUa3VpA9Dp3s1fjxL7uvykhRx3K7gaRth4fKWFSi1A5tIs4i+nIfyDux7FQ9XUE87TgE8W3HPGtu3RTsNk4UvcWpIYJU1jHk6wYSzuLEmf01ZzbW4uZmBMGFQslnazTlseY/5DXipiCmyqiuIoiOBtOhbEccXBrjQBL2qK03nYRcLT0cjfER1S0qmKJsdul9b1sRX2DSWbLGpSL9lrFDLNrSBhOWj20Y/wAs++xWfUWavYuLi/kYa3mpZ0LaltjXIF6oXtjcGtvHJBrrfzEj3kFwxFIQpVmvaKHSsypuG2sDRBmPUnmo1urSB6HTvZqc1Gt1aQPQ6d7NXg+HTjykduNMUOLNVhMCMMo1NGUhJfYkWnOUI/by6C41kqmgNg5q9JDuHIG22AiqN2t7yXBLTRwxYKMWEtuIFaXqb1Sh7kSamylrFSxDBchkrOQk0tCZBqjmOy2DMiYTBDPiYyKWw9KnQDVQ5S2wtwSpy4YEH0csv2W0PPVgT+QOJGfzGYHNRrdWkD0OnezU5qNbq0geh072at+lVZbmBzUa3VpA9Dp3s1OajW6tIHodO9mrfpTGfCgNlt3ORVA1b6JqAGiN8UMHVKIahBijH3NYMLYHqX8C0QWwuBYLfbppcJaCFbfrroHZpbt81Gt1aQPQ6d7NQt/ulY+wG1/yLrrfpjMDmo1urSB6HTvZqc1Gt1aQPQ6d7NW/SmMwOajW6tIHodO9mpzUa3VpA9Dp3s1b9KYzA5qNbq0geh072anNRrdWkD0OnezVv0pjMDmo1urSB6HTvZqc1Gt1aQPQ6d7NW/SmMwOajW6tIHodO9mpzUa3VpA9Dp3s1b9KYzA5qNbq0geh072anNRrdWkD0OnezVv0pjMDmo1urSB6HTvZqc1Gt1aQPQ6d7NW/SmMwOajW6tIHodO9mpzUa3VpA9Dp3s1b9KYzA5qNbq0geh072anNRrdWkD0OnezVv0pjMDmo1urSB6HTvZqc1Gt1aQPQ6d7NW/SmMwOajW6tIHodO9mpzUa3VpA9Dp3s1b9KYzA5qNbq0geh072anNRrdWkD0OnezVv0pjMDmo1urSB6HTvZqc1Gt1aQPQ6d7NW/SmMwOajW6tIHodO9mrEcDZbYJAC8FvogV9y22QtbwkogHdqEYciUAOFrdYX011DGAEEBFs118EQIS8O/S6y67TX7qsBy/s4t9vtT9Uo9MY5qNbq0geh072anNRrdWkD0OnezVv0pjMDmo1urSB6HTvZqc1Gt1aQPQ6d7NW/SmMwOajW6tIHodO9mpzUa3VpA9Dp3s1b9KYzA5qNbq0geh072anNRrdWkD0OnezVv0pjMDmo1urSB6HTvZqc1Gt1aQPQ6d7NW/SmMwOajW6tIHodO9mpzUa3VpA9Dp3s1b9KYzA5qNbq0geh072anNRrdWkD0OnezVv0pjMDmo1urSB6HTvZqc1Gt1aQPQ6d7NW/SmM+FcDZbYJAC8FvogV9y22QtbwkogHdqEYciUAOFrdYX011DGAEEBFs118EQIS8O/S6y67TXb5qNbq0geh072ajl/Zxb7fan6pR636YzA5qNbq0geh072anNRrdWkD0OnezVv0pjMDmo1urSB6HTvZqc1Gt1aQPQ6d7NW/SmMwOajW6tIHodO9mpzUa3VpA9Dp3s1b9KYzA5qNbq0geh072anNRrdWkD0OnezVv0pjMDmo1urSB6HTvZqc1Gt1aQPQ6d7NW/SmMwOajW6tIHodO9mpzUa3VpA9Dp3s1b9KYzA5qNbq0geh072anNRrdWkD0OnezVv0pjMDmo1urSB6HTvZqc1Gt1aQPQ6d7NW/SmMwOajW6tIHodO9mpzUa3VpA9Dp3s1b9KYzA5qNbq0geh072asRKbLbEPuawRvoglhdbACAsvSiF1oIVzcb4+oQVtxfXQMPUcYYbWyzS23UUUUTXTwxL9dfuqwEf9ouv7fLfpZtUxjmo1urSB6HTvZqc1Gt1aQPQ6d7NW/SmMwOajW6tIHodO9mpzUa3VpA9Dp3s1b9KYzA5qNbq0geh072anNRrdWkD0OnezVv0pjMDmo1urSB6HTvZqc1Gt1aQPQ6d7NW/SmMwOajW6tIHodO9mpzUa3VpA9Dp3s1b9KYzA5qNbq0geh072anNRrdWkD0OnezVv0pjMDmo1urSB6HTvZqc1Gt1aQPQ6d7NW/SmMwOajW6tIHodO9mpzUa3VpA9Dp3s1b9KYz4VKbLbEPuawRvoglhdbACAsvSiF1oIVzcb4+oQVtxfXQMPUcYYbWyzS23UUUUTXTwxL9ddvmo1urSB6HTvZqI/7Rdf2+W/SzarfpjMDmo1urSB6HTvZqc1Gt1aQPQ6d7NW/SmMwOajW6tIHodO9mpW/SmMUpSmMVgFv90rH2A2v+Rddb9YBb/dKx9gNr/kXXTGfjY3108Lbi3mdrXd6QAL0Vgv92WY15SKoAogKdqjhlhWyOtLNuuuoZlRUYWe7tETwbvmL+HDySPdYGYA0M3bHyjo8p57Z+bU+zcxjJpTRZJk0jkpkMCjiDjXJcalzSq2E5bFHJeGGX5CjZFnld1tM3W23iGm6NZeF5SWFE7cb6eEajn7th5Lwa1EW9elJIbQMtw0nFSoptUPybFY+rqR2+igAAGBxFd7JRVbYJEMIPwhRXT4m66wMS6+3iD8nYxkzRmrNHIDcw3D4FlWB5OY+PEE4gQo1Jhil6xasrRJrx61W8/ZGR0Z+ITcVbgjhJhpN46mSImU4dXkV4pBU7bYkCA3x0ICx9XW2wCKfD+S2eZDFkvYvZafYIftNdqCnx38V/wCRawkulWjqqhsGXHQtarLLs9wxiku2dMzC9yPjq+IeytMhYobOnZq6x20WoZ9cDPBdlaErjJBhXNUsFTD/AEMVdHyoOWJUxX2jTDjxjk6RMdnG25pgxmt9xQa93PFDgRWl8y0n6thLW2IqIKoRQLyJImUESC5sMgIWKlwRALgwQ7becXyhyGX5KuxFjplus5Q5Ip5pi434iJr5hpNktZ+iHIBeldThq48+Z0bxocwJIDxbqmYGXm+trBgc6WXL9VIYYYxrddd0v+VOwdNWQu1MvR1AUPyjOEgjT3DayCxYfj92SW8RUhLNL9ymqhthlpC0t3pqdaMDcePWkdSpTQULUwKHoJb8/wDHuh4Z5G5TfJ2G3jNDkbrC3PqRjjh0riRQqhXtt5mT0RgRY43u0C6QuBkhwnwnkG+sFy7VUPIVM6sErkEAPVZGLER/GP2t0vNbTva2zX/krg11DGSxjoof6fQO4esS7E2tCW3DtTAmsXSTpiLKwMdQQpG84fWRC0VWcA5jVNauiUBdHeJLUKIg6AhwuVVGt5JcwmPX5+YmDP22zbgbMmN+GbJmtl5y5Rz88J8wmic5FMQ5Zyo45Ex0gZ4LMdJLoaALGZ5K6w222ghKJ8g3DZJDtDO6swhYmEdQRAwtK4eZPRNkbjtjDkPPGR/ynVcJ7m0XaSRIDSx3hzOJnNTHpxCsE5crpMTFcZjt7EXlt9uhHLjkBUFNY6YjoznX0Zt2tF0JqNofcNpRDNu4pnDsxyxgBHWAGZuFOVESYOx/F7ckqcGs5oNY8tLsem4+Za+y4mdbxLsNeKOOTo4TXLcEEtaJiM3x1MZEVF1XTATasLydgOHnak7S0m4aMb5N3OZTPVOgiXmzImV85YpIxFIUPLAnGZWpAjeYH03LprkCSB0gAqDFcORakny4T1vQS7ZPiIZe04c9/lRMZsuW2tfLBCnSN3GWrM2WX1X7Tkduvb1pvMK1KK1qsuNpd2RPtsqvr/fVXqK8WG+ZxdYRquMV7og36NqmtyFDB/wLuUtJpqzq+xSoDsWk3E32L16KawpxZp7CK7T2bQQzsXLuYki56/JLZcyhl7yMaUn1jG60R/qZAiSSyjhdMbTdfGio6gkpMCATUu91DNHnCZTk4sUTiRtSHLp5MmTDALBb2EOAqFuZfJcsaMQVh3ix8ff0SmllmvkNODVwWu/GTPLydbTUFJMuvBFPIRhUSw0pxFSRkmojIKgpWEDYBu4K+vGIHxgyWR/khjzxpVseJzS8jTUSTumlYAUYlfxGbDKisZWPBxJJACKjLfCfQx1Ub5ksupxUNBuHOoxgBTLBikhQx7vXIkwq3G3t8mrxWgHFd/TPhbnHGTZHdRdpKhx0QBIDiCT5Gk+1bh92qSuXQnRHg7obrlBcbfOnw0kC9yJDS0VD6SgKBtbIuTKoq2n8kBFVjaH9j/HxIVrw7GtdbZfyUwrVAFTBH/Uy6vdgKndyxBI11G1iFMhx/wB0M4UubMJKt/6k0vfemWiSBscFqU0XWPIRONlWqlVJ15ykWYJzrllaIs2AkaPswPlFOyNDaJGuWGB8f53YY44Nssz0eeYLdt174TYtZqIWDTVRSWWnavOZKYLCa6f5KM5JaxpaqjaWTRR3O9xw7dFa7p5ljumMfNv5P1l1nXhRIEoRSupcWrCXYeS1pUjyYYYk9vudogrzfucTPVwzKaskyKsVNkF5rrwpRUQFoibANBXGzREtz6B3pt9ApA5nFp3bC+UbryyDZBqIFLIW1Okq6CVx2XNcwhiyufuTIaOsI6CZO+KVFBMSJzBZyqdFNjp72SighdJD/wAYR2iMmsHPkzOc2NrsYLjfWXGRyc5JWWoUioiZlRyoSsqmY0bTdjVAJsEJe0eTkTW2y7FpfEafLRG1WVFMimKKqmJJdTM4+STat8a/kB9qwF0kcdtP0W8rlCthu9zaKyNlM1whbn+KEltGW4qJaFp1VRuSZjXtb9J81fccLCvUZr2WN+Cd5o7HltPT62suvKGLM5NdUIuj/XwgblmrKVtNVYQMXq9LLbp2QmGvyWnH3NS19LEqZUvtpk45aUlTU4FqSXCZfb5mJ+Idr1cSk7DiupPNYZrLR1ZXQyTiOHk0wcQUgkrgHkMAwmGc/FzbV3gBcNmrn2DvOZXruZb+h0jkU3se3ytnJGxJOlHQ0An4kwk4Y8XXWKgFTzlSRk9vG3+xU9rlWEqKhww0kI7YlFVZQ/rs2tMhsxfkscBYXhR+uRnlYwGcXklnxbMiCqRq57X6xJffy9YxF1OegCCbZa492arqqKgHnSElo5Y+vo51cOJqAMaViv8AZiBuP7sivhc2cGjW0VlBE+UUVQqSgk5lNMbfMRxie12oxWgVYwuQKguupCa9rwXW0hkRHOHEUaGXJa/FNLCBbDqLp63YEl6ORtivf/liwgwXul7ls8XZEh8y+NDQvlcOtNjzpgrxvoXOzN/Wf6+F/wBnP9GM+PP48Blq/wCM4sLlmobpq1fkcGLjtFyJtjXjRRYGv52kssaiXhQBQ+HbCDXre257jPnfyfzKfJ+atircrmCZsh52lCXWO8MrwGZJEkS1IT1kJjhN7FKO3Igkmm8HU4VVzNku3nEePLSKWSlMpakrBoypE9ADw4w989bQkC7su8DtuM9zu7d4yXxcj+O3rKjLZToj9eej9yHmh9BOUdwGH5MM5mpRaMkBsJlguArHzVico4xAFImhG1s2sJgGqITs+i+THIS879gDc4bLWSFt1uZzyTlqht1CRUw4sONyLiziHFZBJSkpHTrDygqLSufMlyhFNIhmzh08YCLFrBxhLNL+unyWuEJox82n2jHM9xDKEISEWnCZ1YyxJeYDrjV5F0pVWU0VMUx2u80lFWwk9RCDvEIHRCNpY4HZfeXEEtt1109K9VUzkXKUuDqgP4x/i2xTH9gSGzL5ofYrrP8AxHdWp5P7kDGqOV25gXKU0H0tHUceNJwbG/yF/IC7ZECHNmkKHlXFxwJwCJeoVhKyBRx7K4FKWtWc9fJgs38vJzSc7sMczJNVZykjAiZ0iP0yYXKrm3K7F5NWl2Tmkst9ceCrpavvUuiOiKlZTQXM6dTTmMJjj0T1FRHKJyYUIfqzr8knycvG7IiD86t813TTAk0RA05byiSnBFLnlGLXywG7JyCHMOU6mItx6tOxCSU16JAaa4UBQvUm2ZUiVpFcRzdw2hdTJCD/AK26osPO3W0d18iVy/xfi93YkIiEnsrWg17tgxoDEdbDLZOZZ7RDJsE0m+WEczZKQq7XklKvBDRpci2SNcEmxohSKVWVrU1hGbEKY9q0TJnC0iCQLooRjALf7pWPsBtf8i6636wC3+6Vj7AbX/Iuut+smXYpSlMYpSlMYpSlMYpSlMYpSlMYpSlMYpSlMYpSlMYpSlMYpSlMYpSlMYpSlMYpSlMYrAcv7OLfb7U/VKPW/WA5f2cW+32p+qUemM36UpTGKUpTGKUpTGKUpTGKUpTGKUpTGKUpTGKUpTGYDl/Zxb7fan6pR636wHL+zi32+1P1Sj1v0xilKUxilKUxilKUxilKUxilKUxilKUxilKUxilKUxilKUxisBH/AGi6/t8t+lm1W/WAj/tF1/b5b9LNqmM36UpTGKUpTGKUpTGKUpTGKUpTGKUpTGKUpTGKUpTGYCP+0XX9vlv0s2q36wEf9ouv7fLfpZtVv0xilKUxilKUxmBywo9VF/8AEtb3lpywo9VF/wDEtb3lrfpTGYHLCj1UX/xLW95aiCR8y3OyMkXpBEe4YZT5FvNqQhCktvI3EC7h0gN9qNiWH5kMzmKXUTuQWW0GHVJYV1WEZBFFKthNXyqYSTiQymeJjKhMuJf1QBHP8U3Mj7gG2n/cVuxUxjpkZFcJ3P8A7RtrLvLKdMjIrhO5/wDaNtZd5ZV/0pjIA6ZGRXCdz/7RtrLvLKdMjIrhO5/9o21l3llX/SmMgDpkZFcJ3P8A7RtrLvLKdMjIrhO5/wDaNtZd5ZV/0pjIA6ZGRXCdz/7RtrLvLKdMjIrhO5/9o21l3llX/SmMgDpkZFcJ3P8A7RtrLvLKdMjIrhO5/wDaNtZd5ZV/0pjOLuarhmHNrFmaMWnjtkblzERJfadyDo9mFLe12kOxpLJBSIOBtONKMFtzQrqa1RnGkJR86jGRw09wJ4BtCUtfIFEzpX5om3jf8q8j3GfXbtY0eu6/Dsu3zURIszrJ7b7Dysb0BqCZehG2MiI1+cy21yRYmgDm0NCLCSgadDeRxgExuSehlEpDsSv3/wBKpmuootrYMtqbAa47GgwimjsPklsV5tV4mBIwVYs1SYErY6nZdUeba5CsbosNGKsgXR1Btl+vsr/SzSdcGqNo67gmCj3fDSZIM9iwfUr2FAFhINj8/wBtkRq7trzEdjYpxHtY7iTpLohxTdT9kNcfm1YnLUlSU49CurmeJ1KLbmhwqhlR7CSekIDfLnT9qE2khHSzKqtKBY4tqPQLpkZFcJ3P/tG2su8sq/6Vts2XW3G+wfsacAMz1EBEFgKlKWtYitKUqAEoQoAShIApQAsBGMVasmmkK9cJBQd5iCM2GRsMmta1rSNrnOaZte9xm5zjNrTNhkUwB0yMiuE7n/2jbWXeWU6ZGRXCdz/7RtrLvLKv+lUZfnK1I3DZUU5tkGJSG15n2YkZkxZDsiupr6PXbMCFR2TKLtnNtMBfvVx9xkJuHg3IuxBJacEmpSyfW0q5qiml9MSSKy2jS16n0yMiuE7n/wBo21l3llI5/im5kfcA20/7it2Kr/pjIA6ZGRXCdz/7RtrLvLKdMjIrhO5/9o21l3llX/SmMgDpkZFcJ3P/ALRtrLvLKdMjIrhO5/8AaNtZd5ZV/wBKYyAOmRkVwnc/+0bay7yynTIyK4Tuf/aNtZd5ZV/0pjIA6ZGRXCdz/wC0bay7yynTIyK4Tuf/AGjbWXeWVf8ASmMgDpkZFcJ3P/tG2su8sp0yMiuE7n/2jbWXeWVf9KYyAOmRkVwnc/8AtG2su8sp0yMiuE7n/wBo21l3llX/AEpjIA6ZGRXCdz/7RtrLvLKdMjIrhO5/9o21l3llX/SmMgDpkZFcJ3P/ALRtrLvLKdMjIrhO5/8AaNtZd5ZV/wBKYyAOmRkVwnc/+0bay7yynTIyK4Tuf/aNtZd5ZV/0pjIA6ZGRXCdz/wC0bay7yynTIyK4Tuf/AGjbWXeWVf8ASmMgDpkZFcJ3P/tG2su8sp0yMiuE7n/2jbWXeWVf9KYyAOmRkVwnc/8AtG2su8sp0yMiuE7n/wBo21l3llX/AEpjIA6ZGRXCdz/7RtrLvLKdMjIrhO5/9o21l3llX/SmMgDpkZFcJ3P/ALRtrLvLK8smLcNlSLmkkOV/7XmfbbQlOU4MjogoivXbMVbTD2l+bY+iWNEDQqgbjKseCEdUjPZqtcJSHKhIiMKsWK7lU0VuEVVZIdUqgDcs/d1jn7/+07/lNw3pjHTIyK4Tuf8A2jbWXeWU6ZGRXCdz/wC0bay7yyr/AKUxkAdMjIrhO5/9o21l3llOmRkVwnc/+0bay7yyr/pTGQB0yMiuE7n/ANo21l3llOmRkVwnc/8AtG2su8sq/wClMZAHTIyK4Tuf/aNtZd5ZTpkZFcJ3P/tG2su8sq/6UxkAdMjIrhO5/wDaNtZd5ZTpkZFcJ3P/ALRtrLvLKv8ApTGQB0yMiuE7n/2jbWXeWU6ZGRXCdz/7RtrLvLKv+lMZAHTIyK4Tuf8A2jbWXeWU6ZGRXCdz/wC0bay7yyr/AKUxkAdMjIrhO5/9o21l3llOmRkVwnc/+0bay7yyr/pTGcrZi3DZUi5pJDlf+15n220JTlODI6IKIr12zFW0w9pfm2PoljRA0KoG4yrHghHVIz2arXCUhyoSIjCrFiu5VNFbhFVWSHqfTIyK4Tuf/aNtZd5ZTcs/d1jn7/8AtO/5TcN6v+mMgDpkZFcJ3P8A7RtrLvLKdMjIrhO5/wDaNtZd5ZV/0pjIA6ZGRXCdz/7RtrLvLKdMjIrhO5/9o21l3llX/SmMgDpkZFcJ3P8A7RtrLvLKdMjIrhO5/wDaNtZd5ZV/0pjIA6ZGRXCdz/7RtrLvLKdMjIrhO5/9o21l3llX/SmMgDpkZFcJ3P8A7RtrLvLKdMjIrhO5/wDaNtZd5ZV/0pjIA6ZGRXCdz/7RtrLvLKdMjIrhO5/9o21l3llX/SmMgDpkZFcJ3P8A7RtrLvLKdMjIrhO5/wDaNtZd5ZV/0pjIA6ZGRXCdz/7RtrLvLKdMjIrhO5/9o21l3llX/SmMgDpkZFcJ3P8A7RtrLvLKdMjIrhO5/wDaNtZd5ZV/0pjIA6ZGRXCdz/7RtrLvLK8sj7cNlR7O2c201drzPtYXYglNIjqS06x67ZhG5qvZThKHZaIIAppV3GSBFZEMxzKLAdGik2jS0iBBOQJIHUwnGlL6Mk9UqgDDf94rdi+//HH+LLbTpjHTIyK4Tuf/AGjbWXeWU6ZGRXCdz/7RtrLvLKv+lMZAHTIyK4Tuf/aNtZd5ZTpkZFcJ3P8A7RtrLvLKv+lMZAHTIyK4Tuf/AGjbWXeWU6ZGRXCdz/7RtrLvLKv+lMZAHTIyK4Tuf/aNtZd5ZTpkZFcJ3P8A7RtrLvLKv+lMZAHTIyK4Tuf/AGjbWXeWU6ZGRXCdz/7RtrLvLKv+lMZAHTIyK4Tuf/aNtZd5ZTpkZFcJ3P8A7RtrLvLKv+lMZAHTIyK4Tuf/AGjbWXeWU6ZGRXCdz/7RtrLvLKv+lMZAHTIyK4Tuf/aNtZd5ZTpkZFcJ3P8A7RtrLvLKv+lMZHOMGT5jIAxkCWM4/TfCrxhWbyMSSHHktnoDOOdHc5yA4LmZLMF1SGZ0mBgqqOqsGX2UplTSY9TRouaNHkxTIp59PHAqp+WFHqov/iWt7y1D+G/7xW7F9/8Ajj/Fltp1f9MZgcsKPVRf/Etb3lpywo9VF/8AEtb3lrfpTGYHLCj1UX/xLW95aVv0pjFKUpjFQBHP8U3Mj7gG2n/cVuxVf9QBHP8AFNzI+4Btp/3FbsVMZRePmS0I5UMxbkCBnyC+mu2JCfkTuYxqhOdrKrbkeMl8y2HyznC2XmiN1zoa0gLBW8IUuqI5TQ6SGIrCbedR1JOPmv8As3kfCxXIhPxNHeel8/qsQKE8gR6WbzrOiARGnOoFjDvFVcpJDHZ6EVMOofkVLTVpwp64tmS58RGTD5dNUBy3LCDrAMK94DJuCT6oElQ1uRx5pmzDpEzpYAnJmR8PkUaO8rUEkLYSBCsOOtk2xjKpm0wcH8O0gvmbfFagjeM/72lE6zJB+5r7qK1YCd0zFl5TivG47eAPZcmYZ4rrLhiuLjqcCoFgz6RrLDxIPmUl0qENcTVLFRsHdAg7ioVtlAF7qlSyQgSP9M3dntO0f452dEncctayqReYiC5iq62muyHs2PF9HuLCDF4rsB1/+E9koZkmr3lLXa2Y/IzT2AK5FWsXIH9pJfD5lNtteYTW5Rao1jH5TIZ+Xcef23ftybT6lPeGRg1fBIIeTpTGNC+jzKN/ILsyHR3DMDsc7beIq8hKkkM5pKUzID1DXna/1ZnslNT9B9EN0piIK37rqv2890fHHPeOG+Oy3kqDS424Vj+R51RT0HZAREx2gtryCnXusJtOqZmI3m04UBKcwimUJCN16PC6xILgKQqofT77VUxxqxL/APCq5P8A/wAit0v/ANbMm67TRdMUL4/bSkMzRkUZTi0GR3gbDjhlK1WRNHMRPs4GEGqArIgrZ1LHNHII4AjGiGVb2pQzouGlEBL8SJ5X4Gtpn8w8usWXqlOtrcVehlgiWNUb+v5ocm1/ZkCldjUi7YzCvNqmujXRNFlF1q/bbSZ7XVU6wsJlrkP8jUXdfDH3y03JOLVRa/zIQ67aRsjlDfIQnY2NlceN1d5NWh44sb/e0OhuEdAO5lN0coWcfNMzIKPF07uGEiy75bqn+SmcgUCLVODS5fQ34AVymNIdiXbaMXGuO6AmS4gvxHygdeQ3Vsj5nOdsLSS5G05IsjdebzhQVEmsIa8hrEqRqoJK0iqyeMYIKiSqEDBc8nKJEwOTOkxwTJYYUEWy+7SbEr5bTPjgWZcPbR0DR1iC84pMNpnxhk7lozIBN6wavNYsVQkpSgGD8XMpWKwUZSaSkJZfHqo6gRm0RB0SFtKIHNBkwtxcEcCq4vkZxgZXGDHHRoK1aBO4Ia8yGGiMrL2xqN4pYaEsCuNWEUNHTyIRnUEDUcItYLqAFddrZpcdVgLvLsQY2dXteNpPuI1mH99/aLcD9abH2aLqzNOv8MsOE5stTEwVQjbp0rRLecbehizq3Np08BM2VgS7NGxQOts1SFa+l9ZluGMCtXGZq17VeWqvymn1Z3XP3qNhP/zBy3/oE+a873MsWMfcxt5Ha+hbJqL0CX4tO4vZ4uI2zHKKqBJY60gGIMHR1AS5HUEw5qMQGGEEBt0NaBa3XfPeHf8ANb83om65+9RsJ/8AmDlv/QJ8195k1/Hh2tPuibhP/wBcD1GiAM2CxYAmMc+/kQ4gxgog1/wfrWLOImJiCWwBYBf8gYiQzBREx80kzXoapAZAU/x//GgTIFIzIM/lq0tgTMTEyLFkQGP/AAQEQlEjMxP9Tg2EMD2mjKqxhmkSbgDOhdPMXMeccW5lmBnnkBeD8EymGHdHQz/MRpKjZuUC5G1yNR8NpQDcCEEaQQ1NKBO3mQ/Z9pLLuW8qMd322cl7EHTLXEWepPxCyfPtUhaltN3yfEJ8mEBJTTIBliIJdAkhoq7bddlhNNSE0NZPLRZJRkhKLkk4t1GGGBLgimDAoYAAAd4w4419oQIIIVut4gool+ttgYYdlt199992ltlumt12ummmutcHNje+yS1Lc/y5bV1pqHssNyCZnTBy8HdaOVe7AjFKb0SDP5GPAXXk1BtuN1NRxBIhwoKMEKCmDXai3Xf6W9qOcy3sabCY6kHG37MBa0jXR2dTkPG9fTmrBzMVpv6/b7qLVdHrHY/DWsvBxaZBo9OylKqdK0tQKss5HX15tUIrmzTuaDkt+2uyIDEWiXb0+rYiw+DdQ8uTVahWzurtd56UpUMnilKUxilKUxkARz/FNzI+4Btp/wBxW7FXN8bIaEsVt6Lclm7IiSmxEkVt/BXBFLUHi7Tl5RPEXFh9z1aittILABGVJwupduLGbEJqoBJTcS2IXHDSkw4ICJbb0gjn+KbmR9wDbT/uK3YqgKK4njV5/KLcxJGdpcmsviJsC8TRo0R1QAI8SRTjxdsupbjkBJKGgxQCTuREpOCaKY4yloKsmN5+u1HLmrCDlUwTEEjM7nRyJCBCfJJgiH2R1LgfLVM8Kg1saXqYzrCy/QvDnSNZTzFYkY1G4khI48cc8CJiuZL/AFxxXp5MhOBGD6yf6yRBBCESZDl04ubsW33mXJR+Gcf8h09fl8gkCL+kWPqPZbg+RVVDABvMmldssudGDGzjdyaRLBCmVE61k1YLpxYEcweELggi32Sm4P8AxGkZ/wDk6Sl/eFHVfM7/AOiNtv464w5DpZYul5BQLn1hwpQA9k8qFY7SK29ZsbDLebOJKIBa5VONh5MJXcVjoaAZoFKclqUnXqhc5yYVBr6Zwf8AiNIz/wDJ0lL+8KOqs1hA/baKxEEtlbdfyFpmhJiwGFU/hnfbhdoCgQJUMRyBVY6xiyQbTOwNg12wRWlc/wAVDdVvPcXaXhe1AusgS4tfyjqdWdco7FDOjdGywLxlcSu2CJTB1ic+zMr9zvBDCJzN1i5KZENplSM7Ctqg34rbjefcty6oJIlpq4Jd0iaG2q/5HLN0bQgoeIcRxrl0Qe5OUbQT99yec0A+lxM3DsLc5g3JZixkEzJTW2Z4Wr0Y1gLgZkpMsO07em+UPGJZCRmnJrVKXKIYhAI4vtNOKjHLLiwQ141utmnOfY0bLZd5DcEyodRcotZQy/uKZWsKZnUq+TqTya7ZhWQRGFEsMaLAllx8izGPHyU3lBut8IQFMCsXPLSxbQIQt4tuYtVusLcq2X5/jtP5CyEe+Tb8xseC83C14CzIWMbhhOQnY+mg+rE4C0d1NFlOFJQnYggrgxlOZKwfUHCngFjRkc4FGlPcOOzb/aeRo4yxc149Ma5vMauubqFth3tm4ija21GvtLIzSI6kXNhUrExCNdbjbkQnkE1uwjx8uRCUOiGne/0ky+G2IZXKopzcDV3Wa5ZDblRzVTbOYa51bpNlrn3h3gsit1aysntmxLe8jdxFlNg5YtuqRnyaDHLFTAbFitipLokp66FDR0iWPitZpqwRAyfIAHRABTxSwbz7FndOwDzPeqnGOPGSDZdMqJBUdQORI7m2/wCG5dvTCpQA+aVyEVTU0o8kFWRSxEyWOGVlKbZ1LAKmATAxuwIWy+6GsBmy2ZR3dd4Wc5MLlF+dYRf2PeNsSBr3k6mqRHjgZgtBkAkExNTFl4zaRpaeridThcOqX5PYrqKWIEcvGHBN+Mb+zVbqNBmKuSjdT+Tsm4CzxxHDx0faCWvDfRRQk+amkxZEj1PPJ4FywqtKQ2AoLZd3se0xokOqxHTNVQod5NLAXKU9/wDTf1/t/qWxxkFxXj0zrkcxua9OmYfu9n3vqVdrr7WyREa8Sslc11VxBWTsLvLcwH97NfyMaCrvWM90e0r1njNC5Z2a1wuVfIizboWqmveU3CmqNbZtVP1FQrdTMqcy8XcI49BlHKqa2ZDDNPKOiMiGXMZOGlx2LmoWpjkBjs1BJq7zfbh8mtvNaoDNb64saFAxTWpLQuEIJb+fvd23IcKc29sef2rjbOSc83u0pPxFXXDHLlZ0jRFKKa3L8toTI2Oq6L5lZ8fyCYaNx84UT7XaUbZht6qJkAhoqeWC2A62Kkobfl35Q3IIspJJVbOYn7csYuHGJMcJC46UbKzN8uvdKmiVWTYcB0KEHMZT281o5U3CnWiKFiMMYRtDwQI5opp5t8pni+NXTt2kZIcxEgVkGLskcYRo2c1gQgC9aK7Z3YTaczQsPlBADZtuuFBPGVNWbx0QyhGVRuN9wm08RVbKKeT5a7yyzw+62YNex5lo1rrrGUnU/rv5J/04BG85dF2X2dT95LXWqSCbHwrJzUxbdDYkK08irIKRPVcdv2LLXCLAtTa4OvkZJUAtrxRAK+yXT+yy96xYll5qV1ihYfzb/wBFEdzo8NnaHZbaia+YykndNi5oPlnrGpnRMcbbWYulIqppJ7UmOVN2lzYF9wd95YyAPZ8+lwQtl+ml2nwO4FtJ4cYG4i5A5u7eyCqYF5RYwxitzKyJQiCTJIRmy7LY201dpmLJWjpbeijG8jsiRwyF7UUkh0tpSMCCqRIMAQcroZSFL77f+a72erw2dmlG0mqUMP5w7psXJTRldHa7VeypHy8bi6Ug050kWi+E9VaDiMJI+tpmxIcSccSjvg6gmgbrLvn095WdoiTshRW0h7iO5Fkpm7DjWd7eevR0FjTHLHCEZEU2wfCV0ZLnJvQdGSGvy00yC4VT1wBpqznTUMVUS08RSKKJYIQqLnqpa3WbWKj51NxnMNkAbsR8mqI4p/H/AF9YVymxbPXQxtqKFqK+vu/TNM7QqtXSTcxtcNxS+5P9nSDieqNunmBMHxPJud+wGfTK6qF7GACqVtJutV/RD5rzKa3sslPz4gpiRLiE8smX63YNd2WETBP5tpTjLuEs1yao2oMtneVias8BEi9uMtIYjNJrysZVn+rNkmYKpdxQsYMKwgZG/wCvxczuxVzNYL0lPHOTxnrHEfKoyQ6HquMCTYwbhcQukBL4iqlKksMxjlnO1tUUYNTCebYvWWiOTu1GAWxLbL9beXW8jE8fyvk5shxa/G0QXI9Uc/Fe5TaIofiUJUJNHH6RHOlISknAeLKnm2MfQE8qrt4yEIkLSL5UhqZQylnTJUX6n5RiuupL2v3q1GsavJpssTljBDD9ADdw8dEleMpInNkt15tNZkEslrerFa7ySx+aDpcYiItFCbbW1MA4iq5QyMmG9diyq43Y2qteKw3uZq4vp6Yiw10HbGeKOqutekXPu1lf6rVXKtUUiyIUiasrBsFGZqySpL1lS49j4ocSDkO9vySifcVRLlCb40lOKqhFliuORZS25bmub3mlxVlH9Vb2ElvybSKg+yTALZosfUypOnmUmPwZmS2VgdTc2ol4VqYm5KGo+Bx6P+GIGLYGdKSeMniXAjaBm7vEieBd+SmWGO+H8ZWTDkhKbfi+PjK2lNdIV1IFWWlF0OpdCNGERpsprNZNXXa+XWsFiB80lthnoa2vHyhA8aKp4pcmZFC5qvEDcNfECuHGJa2isGbYJccdHopNRiS3HlMozSbFOI96GGgpbdC259EhPJJpHUPkoEsTDDThyxUcpaEKXCutmhn7aW4O1sL9p9RTH3Aq3njthL70FT2pMLkfbhgaVo8dDfeEQ6spWkFpIATrRXWhQyoNi1jPwNiqoSY5EjyVVRNCR00cLwkYgHFLOq0bHRVxtErsy1R2Fm2na2Y1aGvs151KaqLTJXZvwYbQVrBzdbI7O5czLlSa46t1u2aVMHTEp2dOkp2srf2zULrsr7S4xlOWt19MqsVhecGFsoo9Z8cdx7DbK6Q3DEENSyoDy+10Gx1q8RydFUy4/wAq6NO8UqX1diZG8/x7GL1X2sCYPESxtyIKGpohM0cKFjZ4EcyCHf5NJ+8ftzRA+ZHj14z8qGluHF25rzAsR/BeRUux3ErkBNXkjyDKEtxNEr2iqPVhGNhjF3CnO95oxttigGLV4JO1LjeL8eiTOgRezAg2DNwXb6M4e5ePdGmBPxIlkZ1xXk1Fb/RklOTFWT2bEmR7RSUB8R463G2UYq41+OniwY9EXENvEtTZpTOaN8menqB4+3JNpxhO+CWViDHW4Zh0Rl+YZHYzthWa0yLct2lGsqPd1yu6kiRoYmlGLx7OD2RVt0qqKh3MWZEBRdqOTTArkTRYOaJoEGsWEV2z1VWPXXXTYY6GVHX6uzRWhBXlK9erEKZvZbC8k5rPqWRc9cqSm1NRLIHjKrLLK72uXFQVki0vXWaNlti2tDVkezk7yUIpTRmAcq3JKiyVR+dhHxmVjHHkewbLDjl1vjRpkrIsUxRBb5aZRdkBtSQ+ZvMeSxYnIaqwUlylg0x3C/N5I6VG8i0yIWtphXXE8vdaLr6vLsrsCCItkSapWX+asZxQzHHIL/cvJS0ucgtBpJRpbcCvyM3E5YcCpyelkjJryBFSlFUN+L8SSJGTF4YV/wCb7NidsXsgMC9n+XcRm6kR3jwqbtuA5Npx+TYiVEwUXGG3MznRHfH6xHqUAURGWtst2Jy4iL6Ul6Co1imTNnElRVEs0UVDnWvd+PEk7av3DzSgcKkC3Q5yCL+UHDAJUDyg7GjhJEwPHD32B+ONnDBcoWC8LwxzI4IAVt4otll1G4edDRcm2qVSD9PvOR6+mizMMGauq4pxLf0iteqV+17LO/tLsNQakurLrehaiFjnatRXVf3HHNc5syjba/S2LjVDKGrsX+S8h0lwEreJlWhKdOmQRZWx9eyVgbBH+qlUG9swscY5iqFpueskAoMXZCuuGmTELrMNh6GAHW5sgRU8GI08ZNItw0tNkJ1iKhHS9SdqagpbdtH1EdR1DDBHuC+Ixj3CMP8AMx4yYyMYphBl9UiIQEJ6LTdZEklY911HVFFFsFZ8rLjOSYwkstYqJSgTHNxq73aVLClrtTIwVl4d9/D/AHN2kjP/AGIdvphuQM2M3Xu89pVnuAEgfOJZ0ZDczph5EVwSimnjFz6eZFTzxgME6SHBNlRLrRy4oYtll+nVDdkXlzHnaTzcVIG+eNVKM8RpHSo8uYpbkK5gpaezhkAmK0Q0a0rzdua6FeIKhmkzQtzf1IljpS4DyKy6zbvSRo181tEDbKeNcj5LqKNcWAptmrpePaPapZbsypoBY+rakDZTVldqvIgAUWVpbd8vRG3djxBESuvZ5DouNbe9akSYiozbbjb6+wipS7gywDkUINJuvoLXNRPcdsGx66r5iSd8/akiaQXHGjyzBafLzNXgms9VxpMOYZHjFkOQQ5onCoL2mmOY7dcPM9WIKF2hBXIOV9JZlEO/OVWAyI+moenUdrOpsPltN96MpxIbuZ7sRk1xNd0tlVIrjdcaAslAlBJW0NaTBzKcqpKmRHAOJ6iRMDlDhUYIcuKIFfbdrwgwvPZ+w5hlj7CsIbWuExuCkyDWIktywHckUAE1+NtZZqaIadbjTiG3odSVhWkQE4O4nadHMKnLyotKJw6eUrjYpkam9nHFXILDXF5+QpPDfYzFTQsl5xfkDRXHkinJVbUOQNJTgKvdqRSQepxjRverFmY4Fp2p5K+xmIQWpLUuKCQKAihFQNLqU1Lm1oNdDZ1ou9d8lTrxuOrX6tBlSNU9ti3WsuGwzYJibL4TWpW0WoU4EHYqVc+utq9hWVKkbGE+yiRxcdVXZ17ry7s7NAoqPrqZXii5cVVmx1+k2sxqV2evWKlKVizbilKUxioA3LP3dY5+/wD7Tv8AlNw3q/6gDcs/d1jn7/8AtO/5TcN6YyQ997XTTH7DfXXXTTTTdP2+ddddf9NNNNJuI/Prrr/8NNK9YUN87aeSZSKRCpZnR+Sch92GGKRdBhtSbZCpt3lDIpM2gFsjNWN0fhj5M0AMXN2BybdYVGBFsHvDusu00nL5RMx02TsO8cY3WTSgSR3/ALj+DjLVzaQfPpSqXS3RK9qIoipqmlmyCmmn7CZ4bUofTzxM8TH8WYKGQBwwxLa43U4XipT2kc4YmFYLTLxuy8KpmFZrLJt9ILNto3xXFK24I41bKNaS1TULVkq7ZQTzXvTSxYRBMJJAdJvJjlC4oXnhc/rtDyLYvXL6eu5lv7jaqphVi2KOBfxq+wC7h+1dQlpSIJ70bgvZZkzKuNTpb3hSnZ73j+sSz0WNjx7T0xttD3JqFY5hzSvWOagmll2DY5jHx9lH5wrLBc2iukev6Dv6Q2FFTIcslya9WrH0ds1GNOF2vp6L6W2Wk2kIkH402sLjhWDRNKS04APXS4Q4cNAgW+Fbp4fhXW6a83Id3t9rmeZRaMNxtlegGX3IakIjRwA8I6maLWrJavaYDKApcaSNKUcsyOpDUFA0OWLoxNmOtcMLgpslYjBnrjpXQbjvnO5JPkrBz5OzHGrYQZyT54lvEVXkmJ5RkwSLI8yDczExgOSaxo+luQBWLJxURsuOQUdPXDzdVWC7QHmvI6UQuTNTviFAlaedMa7medOI0x4nPTbUw6biVJLKNozQd9m46vr5mKX0nAeUx5JbaRb9v9H8JZj1ylkteTCxBYQTJiwiIlgrCYEcEMh+tsK7Nfb3yhg70aPkuy478qlfI2//AFev0+wZbRfexlNTrUbkEKoGoxrHUhtq+Ktguavj0LIbGlpTggo2Nzx7Wb6bbim3Vof2dvb0l1na+vC7thVc9VNhtwHpJy3kitTY6qZM69ZQZe40YXR2FKuUcyM6GmMbWCrdSlR0mjQh9xOI7YIKVbzSbaOUU3Q718YAEc1aiNhGV1TQkWNHbilpQqYGDnfF/dn2+Mx5ONQpAWRBBcmEskDOAGLH5HcuwbIayiFQBTRxVazOnVgRs4HgQIFC5k4oGWqQWQk8mUOGztwBcoZFCn2U8jSUEeb4x3k/GkvnHulnIX0eMftZrFY0AvYTmY8eIDQn6dFCfJY1SE2FWSpKCkpt0d1oAR14vgVS1bKAzl240OSBgXckeWXynkRs+SlkBiPjXA59rbpEKsRiSOwstF2eZW1Q5Wb0gNx7MI01FDEmGyKQ1Xg2yQKq5DSRKy0VKKyC3ABkJZF1LqaPNNWJ29al9SLtHYclr8dpXasRWSUWNujj07FNmy1itkqvs3GbEJVV9p1LWlVY/slONEmOP+qfdJB0rlPjNvkFui8huWAbQ1lnfs19ivW9TNdNvVpQitYsG31zZDcyixrfWlvdSfs+sP8AFl3KTGyGnNrxK4kmFF/Ic+E7iLkJJIMSNp6N2O1NxWOYJDHbJlTEfDtbbZR2UVWBn25FVYKAN1squl191nMHPrfyxmx4wqQ8k8enErP95Sovp6NB6XIeM+VqM1HAAgS+wmDLB93FT0eMBWaOjZb7pUVFsFHYsNA0+VgBNKssJ02jXlRf9MrouY0nfKAts699IJVxgxzhrl1J7VIqHhjJhR8N17xUmN1dNp112pNSMt69fNLKFoeBHsSXITRnGRtAWEVMOFvu/lEn8K2XP/nFiP8A3Ww5WOjBWUcZcwxhu35KGuaoVl6BqL/kS7xVMlPuhp++rTGbqAJRFIuOtcrlcWGtuulC37iugZgdZrF3Je1kEbXWOH67fkgEAsBWNd9oyVcNzfcFgKp69U60ru4+Pz2zhxrzf2cd0l041vF2PBEY2KszoDmMOyGZthkySVVKNllRJglEybY6jpVWgBCll1959EJKKeAJp5OYNBGddAtfgMTdhDaOkrELGB8uPDJmk369sdoPea8/mg95bYL3udy/HDXX1ZxpjoZEgICwiKZxYNGDgwiOaJAiePGKXg3ERhSt95b1H8JHcb+55Ov6DV64TSjHu6ri1tpYrZOoG59kZI2LDfijHJaybiCH8b8OY9muI8Q3DHLeCeTsgqTQ4KeDlWXXCKMdTFUYdaBCWFZqIq0tGF9NUSwp/SpZ1lt5E2UCn/8AHdcdjafXSiiyzY52kztX5hTdfRZald6xbhRVddTonZvWR+RTWnhYOePrgysl6v5AfGurJax9+EDwVyVVaUyxV28KYmlXrS0bF+5cBFKvP1MUrq5s2SjLJBJzzxVmOY3NPbZwCy+dkDRZkNJS2RWHw5oitYzUfqM2ZQd+lwdzpfkUBr5ttu14KehcyettKAnAy4yaOEH9gsb/AHtDobhHQDuZTdHKFnHzTMyCjxdO7hhIsu+W6p/kpnIFAi1Tg0uX0N+AFcpjSHYl22jFxrjugJkuIL6PE7c28du/bacshMcyjn8KC0XubISRZLXDh6Y1nIFIkxHscjplB/OBZtVVmY3jMQCqVCv1UrDNi0GpI7RRkxMbhNHQk/xNsSvltM+OBZlw9tHQNHWILzikw2mfGGTuWjMgE3rBq81ixVCSlKAYPxcylYrBRlJpKQll8eqjqBGbREHRIW0ogc0GTC1uybbq/VLjm1Z0Gk0tfbxZTNG1d21XVPq3r2wtuZK9a7c39JsbS/rr2LL3TsH2T9tNwvlTGs8VNGAqVdxutzY101mV7Sqmnfem3TqUNaj54tr1NLaaxJxUt19fWWNPX1zgL1Wymj9xjcch/A7DJ4ZRGnCTcw67HTsU8dhEFmyFKzEkqQvo0cD8jgorrkRpC6UQo8c1qSXNHH8uLzWZwaGNqY53kbzJIa/O26NzzHvcFYTWAj10rilNKRDkcvyam0JBGQkVNFtOVzIyZY5CLRcUwsJAb7oSCLsHUU9MtbLxeQ9yYCWPaqSiSFDVDHHfE9wKri+SQu8ZXGDHHRtvvMNoE7ghrzIYaIyjE0NRvFLDQlgVxqwiho6eRCM6ggajhFrBdQArrtbNLlyWkJ+RV8nQdkgxktqzafTa2r2cbbzkQRjJVcbxgxj22iBldRzxO8M2mKiQQNm1AgrFRAjCQaLhKYIoQhS0S2e2kdEX8hNZE3q/HI07KavMV3Es63OyAYf4sLWbn6UGbAhrsi0r4UIGmdF1jYKam7B3CakmFOzt3cip7BgAx6Rs0L3Bq9goSZVmOWkds9etEjQdZk3XWStjdTXoe2yTvn7UkTSC440eWYLT5eZq8E1nquNJhzDI8YshyCHNE4VBe00xzHbrh5nqxBQu0IK5ByvpLMoh35yqwGRH01D06jtZ1Nh8tpvvRlOJDdzPdiMmuJrulsqpFcbrjQFkoEoJK2hrSYOZTlVJUyI4BxPUSJgcocKjBDlxRAr7bteEGF57P2HMMsfYVhDa1wmNwUmQaxEluWA7kigAmvxtrLNTRDTrcacQ29DqSsK0iAnB3E7To5hU5eVFpROHTylcbFMjU3s44q5BYa4vPyFJ4b7GYqaFkvOL8gaK48kU5KrahyBpKcBV7tSKSD1OMaN71YszHAtO1PJX2MxCC1JalxQSBQEUIqBtdSmpc2tBrobOtF3rvkqdeNx1a/VoMqRqntsW61lw2GbBMTZfCa1K2i1CnAg7GFVz662r2FZUqRsYT7KJHFx1VdnXuvLuzs0Cio+upleKLlxVWbHX6TazGpXZ6+x7ln7usc/f/wBp3/KbhvU9bxu60zNr+AA3MV8Sqz29z7XCiNpOGK5kfDBWEvSUI9akiKTqcsbJQCE2xW803eeVEBIcD4bCs6V0FPS24TXjN4yffQu5Z+7rHP3/APad/wApuG9SB8ok/hWy5/8AOLEf+62HKwCLGXtIkDAQtch4/RsQazZDK+w3FKga/wBGpIRkrIE7qUG2sLq6WVXOXcrbTkRrbBkwUmnWbGymYKIgW1abrMSUSJd4kUkAxEj0YQNL2AskNv8AxezyxbzIZz8f8BP9wLjPjI6GRfK2/YjmeDAEIURLGWtTAgE7R7Gpw8mAJYAxs6spZY6kkLAhLDp0uLbqHpJJLfk2kVB9kmAWzRY+plSdPMpMfgzMlsrA6m5tRLwrUxNyUNR8Dj0f8MQMWwM6Uk8ZPEuBG0DN3eJE8DyD5RmvuxN2wXu12ybFKp8tTpjDDT/Ctd5iOyizGkkzoym89GqtyGXS1y5jNh5phjVoupyCoi0UKNxbVADqMrlDIyYb+keIG4a+IFcOMS1tFYM2wS446PRSajEluPKZRmk2KcR70MNBS26Ftz6JCeSTSOofJQJYmGGnDlio5S0IUuFdbUTjOvsblVBvihcnWJ1xzKWX71XUanb25jbGHy1E2B29SrVX8VxtY2Ofcn1V647KzoAMqVHNhb7dWdid0RFiKVKzs7utoeddDYtXXgWr2TLkTb16TFNOKjWst216rqRMuQ0O4/JsdrMvPIJopMryxH8HsJR1RXIuk1uT5TUb0hgNsUw2kdZCRQnGp2aESy+v3JbZKmRSwSisk7jRbQWHmTvWbXEizu3sb2fl8xVST3k6lBjsQYVtySkxdIrxTTpZLGbMaz4tMpOgaRls0rnCiIkJzHkpfMry8ZAQ0MNQVhbCd3GfMbF6aIk2TdsXEHMRYIOaR2jnbgzCUgH2c8VZWLmmPbPys2Golpj2DINtYHMEItHbqJqsFyCUfAGK6iBaAmQtBa6DfKHY+ZqfsrZQkUVvJjdAh1vw+6Ik5tF7W9fGLjY8rx8TZq2xL0XUhe1z7ZJiikkYVHuKaEyIoxELTQoMKDfpd1rzt2hMbKtr+a2ON1IqsXWPYa9Gq4fsCti5s2EJtzPInzXCe9WzHzpY6lFdtu5ykl95+moQI1L210NC8w3QbK9TaXdtyTUrRKhFL3USbq6hsbJJsVVhYMVXTuKTr6Rknes2uohmIWC5Hy7ZLXe5R6axwrK5prSabiNtv8I0bJH2a7sgkxjnYEZzlQzhE4VcqO6ZKSDzXMFhgXECliWa21b035FQ5ji2Gi8pkd97TbL6kyOofaysXbjsdQClIcsuEo1I+QxAmahOEyml3E4TxJMDcCsCRbScMaAEV1hPLi2DaxJmXjfFiPs85M44pzVb1kdNnBaVUNESTaIUPJ5VTa8SLS4huwZPGu00NuQo8E4m97lgYzqrGHaFq4BlG9YvvP3cntxcmkyXsB7dabJrvUm+gvxy7S6W/X0WVRUZXRkVyOeISLlcwK4WELjpSgQTzhxSsWAhQRSJgLQ9oLbeF4enVhJWz1wmuzYqcp/j/SOtDJ1K2wpc15Bs9OTkJYFhusdWXpLjVsc3ZD2u1yZWmKTV3sg2VMo09pEMRU2HGub7sK5QFizSbxXTajb1wY3vURdXYjdpS5YxQmZouIbKouhNPp8+t9Tahjd/KMdu7MBrlFJGdOjJWnelR9MrohhEddpu5PMIS3kG1o4WoIRzyeft1Iq9ilI5WxGOaeSqt5MfXQPXqUVdjVPNUs+iTmb5xknG+C7CjxKrKcYappqmE61YLuYs4QTN6QO3x0i+xUBWQjlycKnXWnrDNxa7QXX5ktEEWE4rCg0tHrPChwBl6RyFGNqAm6se1iWpXIfNLVuXF9Uy5B1SPnT7068vcXvLa6h32XaXa66/inXXA+Gz8m8k2E2c4FlQighuWujDVmHVN5K7EKr2I5vPENlgMw1Khsg4zjZYC+imj0dqrrGTXERR2gcUG+YSlYkUFRxqO8E89cqSO24tb/X2ySY12he5Do+LMi1QQdu0lythyPU3lJqWL82KMbRHZdmhUPbapkFoVfsiSqi2W42NdLVvfXXU0W75IZVLdgaFazPwcf2NQZtq1q5uTRcZpr2bEa/9FJLfk2kVB9kmAWzRY+plSdPMpMfgzMlsrA6m5tRLwrUxNyUNR8Dj0f8ADEDFsDOlJPGTxLgRtAzd3iRPA6DzfkdC2OLfYzqmh8FmU3pIlOOoVZisIjuJdKLElSythN2P2/fc2EdauSwF5YGDK6uFYtT2wk2XeWLaymkbbjOnL14gbhr4gVw4xLW0VgzbBLjjo9FJqMSW48plGaTYpxHvQw0FLboW3PokJ5JNI6h8lAliYYacOWKjlLQhS4V1vNDNzF+aIj2A8KsQMxFdPc8jNPKPCOD5APM94KyuXMsa/KlJarVTUx7WEG2sDmk+LDLeRbVkuQSjxcwU8aFaEZB0Eq2AkmV0gQT7uS8L0yXNIEFfq8i3karZsCkDLLaD9cmEPBsv2KJbtULIGxrmTsaSORB9hkStSeP8l2b0pA7R0rel0xbKp4tnFJWwrXGhYUSZRrHwFKJFwze7UP0FY27ieGuXrnlVq43zUSlMeFrPHSA5UdmyKmxoVLWqCmlinWxLziaCNFUiJ5Y+jqZc6ox08nWRI6kxBDhgAHWwS6TFjf72h0NwjoB3MpujlCzj5pmZBR4undwwkWXfLdU/yUzkCgRapwaXL6G/ACuUxpDsS7bRi41x3QEyXEFvefH/AI74m4rSW+5fTmy0cZIUiRVud7cAapVTa5GMkFC5I1ZqcxyhIYmqkT6Z5O10holk8Qup3GyiKEVuDMWh1zjbEr5bTPjgWZcPbR0DR1iC84pMNpnxhk7lozIBN6wavNYsVQkpSgGD8XMpWKwUZSaSkJZfHqo6gRm0RB0SFtKIHNBkwtmuPhAX31piwrV0lPsKbA1iex87Vtc3Wiaytp1206011kNHYyba+wfFmV1PUepC4Z830xFOL95wI9TRvsq1kppw9KkSGvdu20XXUssXwDTVzBtKqVOq6+tyaP3GNxyH8DsMnhlEacJNzDrsdOxTx2EQWbIUrMSSpC+jRwPyOCiuuRGkLpRCjxzWpJc0cfy4vNZnBoY2pjneRvMkhr/gcJ93fFHLWBzcil36uFXnEuOLanTJooJj1krHrRYdgTPLrchjNFRkmNiBV8JCErl1sJMIMVxP9XOJhQsOTHWQjBc+b5SYnuBVcXySF3jK4wY46Nt95htAncENeZDDRGUYmhqN4pYaEsCuNWEUNHTyIRnUEDUcItYLqAFddrZp1TNfwMRP/Kjs/tGtqW+JmiV/JLgILccbRrG60WgQTEnT54SJYQNmPDbOkU7ZisRm7XilWrHr2Um27zWJLY3eB03T8zNxb39LayjtIy2jsOC17frhwAUwpe2sK1ZMASptK5YtBfC4qrR6RRJKrCnSLY5mqK17nTGctMhryPHzl5LWUTnAzHmik3C2lnkZxpyQ4ErlJHUCZzk5bSk1VJ+O8nPkSpoMUCzy6PMvMd5Wj2bJUYMhcvMLHR9y5GcyL3NN8JfM57wVZeJKqJyWtNpOWXDzWsDv15SaycuJC583zNw+r666aa+CbRwwJjay26BABghw9MJcZAtRARLBLNBAIdaAA4fhWa3W+GCMGICLZ8/hBih3h36aX23aac49qo8SU8JN3ZQTThVQIHNxLdJMEzxEwCbJmi4pvS4McsZAvEBHBEt10usFCvusvt101tu10rTyof6O9zirTn2BxrjvLNtQKz/kNtnRci45qKYXPV6IYhlfb2WWQTFdhvBBKalYsW3NoS/s6fEbFjwB7/kXG9TcFP6iuruOPck21o6sH7JB67OnqrQbZesEseLFNYa2K6KMLdl2+pUlaGoQjTIUm/pRnpkMqRY8azQjiYHDeE0ZGaHP5jH5GV0uPjKDCp10M3WxwpKBM6owHEYTxi9/JVohgAMTYyo3SMC8LXokxnkRkIjteT1pLtXikWM1mSZNMolm+JpfqA41qN4QZcivduNs34sW0i4XAgpiKfECGCJnhxAhLLZm+T6xcxov2fcGrGSglUcZ/QugSe9D1nhjqbmfD2tvU1tdWlEe4Q4oGdLPI0ZL0MjCWI7bSENuJtpZHRk4mX5p7SUgZ1gEM5ZzhrCrHbIt7TPuEZXgyvO0qZxqsNywdORtI5yPmdFKszCuHswKLUZMWMpAQU5hNIzIJ8inpSiIqpqSiF1rQjZq2dZVXebDS12NEtdW3V47LUFZFwa3b6HTLowtJIGtMO3RvPaucSrIU1oDWVX3givnoW/p1VLbOVHr2LtTRr1geCmLdd0+62jNi1zAP2g0dQMhpa6CbR+w1Futgqid61+j7GPLDHHMyLiUz4vS+z5mjY6fNJFziaZwfURKXCIYAx1vOZCUyye42k5CZc2TMm246EhIXCxU6SNDkAy5wsIL4Lhv+8Vuxff/AI4/xZbadR7hVjJme19y/JfMmW4FgzFyJsksdGE1JHi6IMjFCe9X9kTGTzH5tTKrjGIAgcBKVjkZLyq01Ua5OWjh29JLGzikOIeDCJWFhv8AvFbsX3/44/xZbadZyEfRUd4hZ2EMY6rLl2DqsTctU+jHKFYlFkKwbCvErW0ad2sL1LsC0BtWTIbbSZC0UPAE2gSyuu0l1WtbEhS1jTA6pWT11mfYam3KVh1cprMTOcymixVbelyzzRBnmQZHJ7ceGE3nsSI2xri5/vCJEXIqdI7SU1SnKUJ8dLBUWy/Xq1Wy4V1MakfMgm6ybEGDSeWx0sVUCWDC/wCmSrsRwFFTaOyTtUDqe3vmC1hklZj1+MGSZZDhl6GUY/ocFYOQUPHXE62PIEcOkteOQXbhGaZcxW8NKOFjpsolaIpzO2K1IBgrm6rii57REqXYV3QMjpJcbfPeKLnTca5IH0+QoefhIj40Qzo3XoglFMZHOCaeAa0Th7rddLtLg7PXdwmFtw9ttTKDJuBd1OQoKZMfRC+ZOZePybiPiPITaRDUcxobWREe5/SNHi+/lMo5VpBMKR8yqKRswQvVzBRN0BIlSRcLy3NrazTaXYyT6gxxDjnIthuKpRFuLlnjut3uytPeqZuWZZdu3yVT9dmomnB6ca69aCaBeimq3Zbfc0CWgznk+60dLW2Pyk6Nfd29Nqa6vWsUKEtYilYO4TEPsuce2mw6/ZZaZ8Pv06uHXbNb2rusRQ3ZrlFt/auexuCHhW9Y4dcrIZ1WrEEVTCBUhUW1S8p0SxFAEI9eR0AuNhBmNRLdO6lfl9z8lV+zp8n3wqmqVF7nTJktKu01I8guXktGROcDzec249uFyrPIzcTkhvpXKSwoHDnJyIlJqUT8d5OQIlSoYQFn6gq959VtGOQ0n+iH0/5D5HVdFaCitDa/F+AJZ88GIHCO4F6oIAL19ewjPmI8ZT12naiyn2+qxwfQPV75iX+t3I+bsD3TBHEt6lHsmDKJPtMEX/M8GsYv/EHbo33NMFf/AKpBq1d3L+FtuH/czyM/9K3PUVY5/wDdPyhrckT1HXQoddmCuFbpbhYXXTQVXbyCvv1srCsUt0118IonrwoaWYuv8C60zfbbpbrbdpdrWO887UFk7T24auuM8Enp1+JU0IAQwogQegyw7WapNRup4WowgVlxlVcC0mJhQLw9LxjJsIIPS4S+23X4/axI/wAetgo69tX/ACP47fjz355z2A8efHntMxA/+/mPHnzn1OkIf9eKnzHgd1wPt4/PXxw/hUz58f8AExH5mP8AnxlDYHfuOYZfdRx2/wDSFn1V1TDhIkqKDhjiMhrBQUgrI2MMBpKoRH8HQYkop0VNMmdKDaWXXW+NLGQRQRPBuut8OzX5rtdPm11p6vveTTE8k5DMT5id5tpiY/4mPvsfnPiOMRMca49ExMTGj1MTEx4mJihXiYmJ/MTE/wDMYpSleHnuYpSlMYpSlMYpSlMZAGG/7xW7F9/+OP8AFltp1f8AUAYb/vFbsX3/AOOP8WW2nV/0xilKUxilKUxilYHI6j1rX/wzW92qcjqPWtf/AAzW92qYzfqAI5/im5kfcA20/wC4rdiq4OR1HrWv/hmt7tVyUcEJSXKO6RlEGx8wci8cb0HATbwvVR4YbOJK4K9rVbIjdItIBOfTIbFueQCgbY1Sz16HqzAWiKYuci1o5RXDYA3rEFjPWtzvbzWdwOMI4RI5yGXcTpxh59LTujKf2ywkySFduJT5jl4xFKbOGaqo42kEdR5Ajx8rCUaHAcKcbSlYmhLha8cZKsLDW/C0QMmAocjGC42TLUWP4jj9qRqzUy3W6/Uk3GehEkBJDFEvuuEHMakyIQhowLfeMZM3ijjCXiCX36yj0N8iuLFn/wBnO1l3adOhvkVxYs/+znay7tOoAsFpv1wGBVtLCLV+Pz2suq1Do1pNk+WCuvWa8EJWYIUdm08Fi+1Ya3rpl7aTm/uzXVLFGmXiB9NW3bG9YX1HwLJbaEGSxsG2IAVicKEQj4LG3bMaMLbbTq23X9JSnKTJfTeyWabrf6K2rY3WTKBki/pLeaoGkot7kfAaWpNcpIwqQRPDLKkApGkgJVHIFQTl6QX8bhna3nm3GSRsJ82M7BcwMUnTjyFjmzGEh4ysnHd8shupoSUmNd1qMot5+P1TeLxZ7fRE0ggmx0VESxlIG5dcSUvmrggQah6G+RXFiz/7OdrLu06dDfIrixZ/9nO1l3addYAt/sIaMMDaU10L6j/ZNmshGwrV4NBeUi6sna7Aa1pYBarFaYxDlsgTGcubLk2e8jYr7K9t0PD/ABuTsNndqbHYOWwOpiu5coU22KsTFVg11pJEoj1zILf2yM8lVrkYHnTd/lCVMTAknVnOCPGti7EsP5ASHGQJG9JBjh95VN5zrLktTVVF1sRHi8Y9Ycdyi4k6wQQm/EBXOqKqc/1Ttm0BM2YDW0GVyG8AsM1FNrF59+iW+7yUA/Nw8xAmPosElAQQfyQMa1s+KvkzS8fxfLNxiy6/VL0rnob5FcWLP/s52su7Tp0N8iuLFn/2c7WXdp1eTmHD+8wR2m0n23EATZtu1zbb6TbduRmzaZXbfuGBWGsmZstg5KC8ZTVEaLKTagikta0Xa4BGJTQMQWHWnXKJr1kkCUAyulYIaNarDFnFav6/9MrsG+k9KmBMmfShzI6EGQgU78icyecv0neLYK6xuavKXO1A5l+Fy1ypy55A7Pm8m8i5H18d5WF47nJt9ZBZG5QYx5a4y5kIGJspY2x3NsblBHLjKl5HpbrRZtHZAixeInrEvRiTRRk0FlhhA3allgUxce8bYOR8muDNevdDfIrixZ/9nO1l3adOhvkVxYs/+znay7tOqRjqYsGSAx2N/bQQGYz9+z0qeO33T1KPI2dMhVE68+a0BBNBIvYxpRBS1oGsID6A1uu1IrOIZEa/U7Vm716Ylnae1XaNO2Fjz9JHIgxxqAFjHLu2v86skklUjDODdzkKU8cHMn2Jj9hXGHFaLMOT0mpWp4AwotZ9S6QeUySTzHcicGYbrsbLJVmRe4G+on002q6WGNbtOwsVRVHEGxwy4hiFlt+O4yjtvkGsymU1iASYhN1CTAtAihEiUC0//mOaND3jHD5wYwfPmDJ0yYMCyB0N8iuLFn/2c7WXdp06G+RXFiz/AOznay7tOrfaULNQipYNNTX+lCUlZahZqQy2xSwZbZXUxq652SaSAc4UyAubBykYIwMiYcqFoohjWMXXGxKSsxWUZkut9RV602pQC5szVqy+WTWR67/pUAdDfIrixZ/9nO1l3adOhvkVxYs/+znay7tOq8ll/wBKgDob5FcWLP8A7OdrLu06dDfIrixZ/wDZztZd2nTGX/SoA6G+RXFiz/7OdrLu06dDfIrixZ/9nO1l3adMYjn+KbmR9wDbT/uK3YqkPIXaBf8AKmdcpbiEMZ0yVi/kUvRNFsRxGrMSL2q7W+xWuzA3Dc+mzKjRerhUGhPrBk1TU0BwitdWbzKWmc4GahKiC8rxQtLQ/nGDihPI+5Jle3gtzbN8mrpeEG3ysnn0WYO23c6nGnL087mxFLaayTObfJpkgN9lmW4sLDZMt5nITqNKL9dgTxczsSCbFS2Xb/Q3yK4sWf8A2c7WXdp1CQiWodBNW6sbjQ5LmoaorFSzQf0Yk1nEOpXLVVo9urEPas4kSmMsFhCt6eqzVZBS3ralTgYKbVe6ryDgMYJdqpXeBjEGJqHwXjzEzaxNr2bZCm6JJu3Gs6lvOTXHR6F5Mx8hlvY7x5jJATHlMmmjJyTKrrZDaccjOSTpBampgyeYio5H2Ejs1RMjnklA0OCeP0rJQw08v3GmzuAfSP4rm7hy6cTPol5n+H5ZzlmFuSxz/wCfnOizyfyLkDkDmrzMH8p8r5V5yAeI5NG+f6G+RXFiz/7OdrLu06dDfIrixZ/9nO1l3adXCwlsqNXAKOkzYur+pS1BFjbai1odjZatYCuzat6e22g21ZFtj0BV6tE6NIq9MjBBZWZGwbi6SX+1jGlKNdsq+4o11GwiOvWrbOsu6utXJSPcdmZXMXLcP8AlnbClFBn2TsltvTNZ24ISBP6qmuHI1gG4XYmSeOUwPFLICJgcmjQ+9FhnKLDlhUIakSroesfv9vhOy1FSjC+iHlARdOrn1WNW2q6WTkKjZjZmZayLnPlSzGs5mNErlX2Kz4RhGB2o8b9LXXZC8AMEZSSG67HYnWF0F2v90Ox6u9db6empd6mWCAMXHPVehvkVxYs/+znay7tOnQ3yK4sWf/ZztZd2nUK3+zhUV5kYrobVqwcy746zq5VCr0vf7PiSFM2UkLq+kK1JradeFVmsUXbEfSTSdJSVg1NsyBEmLbEsBwMuQmVxbOXKU9pWYaT3pU50sYpZD5nlJttLslT90x8QMo31gxl6pMxLjaQpFajCZkxxTOjAQTlhxtoc7wO/biKE9ldn2eWJzLfCC5WW92+jqygl2r5wqXQLEL4OOdr6XXlOEUz/ALiGdD4zkcWPbs0fuPsUIUNMfF/GyOpCDT9U5Pk9Yidkrb1WpLk1thinRGa533IaqSaIqusXoqCXuNFriNEdDfIrixZ/9nO1l3adOhvkVxYs/wDs52su7TpVmacpmvMj8rGuqQc+4aTnWTum6iD/AGBRcN5rbyG1BSytec67XJVpzGkfH0+33TM/Qlda1IESpt111hpRXuSqQm4kqK10Gqsy1bqCk0XCyopaR+Xzb28zeTUkRNkvA+RL7w3zNg1FcTOj7IRhtdtSIkrUavEwXNOmKJliB5XANSXI5OHi4a+joqofSDzXdwJZzISsUOBDBGYqyE2ZchM1YiVWVm7uRuWeHsjO2PHfCJ1t4yMWG4Rh1dZr8aznWnhrCLQkA2uSNJTmaiK4o4Tnk9piOEGK3Xy5hmm1iZhRUrFK/ehvkVxYs/8As52su7Tp0N8iuLFn/wBnO1l3addQU1iqkqfHw3Q2NID/AMqqd0Lo7KH1Ut7pryWxgr7AUALbddZttA7FqyxvLI/WJC+TKGJms6RM1HZrTWml81tiSWduvFOYqiiyTVBXBSRCFpUIf15p4Q9L9+4Pvf6Tvo86GmXLNyn5L5l87fpH5otp0N7mJ5bzsbPM/lDnJ5Zzn8kdPknkXk/N4z5T48C9KgDob5FcWLP/ALOdrLu06dDfIrixZ/8AZztZd2nQJlaTrh+EsvP2Rh/z2u2aet17ndp8lHenqNen1wUKH5/YCxa15tEAm8bJR5cNJGvE/Mx4p1rewvIT1iYCelra32+yR9pe/oZktSQX9FlNhv0lptwbmP6RuZXQxntfnDm5zQ5x/SRy5FrvjXmxyvzoQeZ/kvOvlrlrkt0+P8g5O5JB8q8vLe05M43Q/l7A8mY2z21Q3nEsst29uO5C1NmU8zeBYbKqaWqJSmSECOJK83ltPTHA31YoJaZS1tMIHwddby+lus6dDfIrixZ/9nO1l3adOhvkVxYs/wDs52su7TqkkKOtYpkETXtW3X3rmZ/e3Ypa7XtdB+e4EVTU69QisgBZV4csQexzGXA5irVe6syC1URXrV3DPUlJqXbuwriMR+syq5sbjoYQyyZd0IyWtQLjEjtjbjGjPvgZX3tJvM4z6kBGgEXRMWYSbmXwMZWFtEwk1w8vgVk9qE6QEawMmYlIvC4D3Mm9L1UI6UO36XWUNOe2SlOFuYlncTZ2fGHk0YPM4/GmPkppaCkTYlDRU4EJrtp3xhNDEkg5pfL7TcqUz0I6MZPO5BdyY608u7Ut1FVXU1cb9I6G+RXFiz/7OdrLu06dDfIrixZ/9nO1l3adaTaw5kzMiaVpF1liZn6nWa6rKFMfa/8AuH+E3b6jBzTW1Wx2QOAx2N6LFCVhXkPUACtaG1l1ZGDoqruivDUq15wVJa2RUqdgCuMT8tb8f7dXTx9hbdcyvDJWMcns7suyGVzggJMfZLH6KY/x1b+OMGx8rye1dGU+3wvNUzIs2vSQnupte84iJSgvSMAgtwgpqdqU2gjJwQ1p5ZHm2lnFjcxD8AYibow8XYwJ5gyUidkS1h4xZ9mKBmcoHx1E0xo1m0eWI7S1RERxTp8oyBpWieS1BqpOiWlXmVkqkg2jVn0N8iuLFn/2c7WXdp06G+RXFiz/AOznay7tOoyXnr+qxiEfOQApS1vXD2WRK0tYCu44GtdCrNoXWVKc6uto13NUV8NOJkpmDKCUQS4RdKPSPVY1ZdBzUDxJSxdb1LcbHMaJse4j8fcmz9jcu7ciTtxFXRKSM0GweJvtpTkTcZYKdkCe09+mpWK5AAukinpxO+QxZJPKDjUBS6cRImSqieRCwREkKDcX8Hee1BmHknDMi4+517p7ryViN0xw62kgNBnYnRVj0XPPJUQFFKZUhTgps95OFfmCyNFsdIfKIw2+rxIzHG8UIkefKe5U8MmmELY6G+RXFiz/AOznay7tOnQ3yK4sWf8A2c7WXdp1TaUq798WQFitkRMt1vEBTl5JCvFuvSX0qUr6kKqpr7Ckmvdqroawa9hUazX/ADFOagqrFsOG0mexFgiJlnzNmbhrfZZJWLSH2jdYs1rTHV7Tbd4rKmzfu+/4We9uYec8I8YsOzMzBNsxjm68OXQLJIEb3qYL0vxMX2SuXEw2WI/yN7ZskDmd5LoPc73Dq1OUfHahOXyPxRrog+WQ0pMZTvjh/ICc62M/mwvMt5thXB8oSnG1XQlGkRwISkBpdbqMQVkk8bIGw9LrdbwBxLdLrdddNdIp6G+RXFiz/wCznay7tOnQ3yK4sWf/AGc7WXdp1fbZN6dj9kLsRttje2uxBqlkq3e2VSjRvNYrp6oXYq62kk6wANWBTMgkSa4mZ6agoRQin3rTq6FLWa81NZDKtLXWLlukpbe8s717F+00LBEVmSbEG4hUqAihjbV2dGPzbtgrE3d6kWIcREUPkWNIlf8AidD07y/DLDEuE15hRvkY6nQiqOqMhAjiJjGNP+PH6pNBELJKcCYUb0202P1OxVxoY+IkGM2B2AvyE8Uhq3rymqPuWniff8oyE8ni4VR4Pl/yC8FG0EVbdrydq4sOBYHKk01JLmT9xFESUlHKkU0r4R0N8iuLFn/2c7WXdp06G+RXFiz/AOznay7tOpe90iwTaxpO9Uvc8yfafKYKFy+26WWnl5MjYTXHLmzDnSbYg4elUEuRAVgqPCa6f8FNMwJBBpop6U1NFZmoWrQLRSZpE4UZBN/0qAOhvkVxYs/+znay7tOnQ3yK4sWf/ZztZd2nVWWZf9KgDob5FcWLP/s52su7Tp0N8iuLFn/2c7WXdp0xl/1AG5Z+7rHP3/8Aad/ym4b06G+RXFiz/wCznay7tOog3BsUJ5QYGYJ5U3Ns33oWHzf2yUYJHczB22yqcTUXHuSYoN5HdhYVnbfLTV7nAwldUIvppljioaapx1NxGJvpsvRkjuFnLrGdAc78NumxH8NsX6R/oz+iTKjHzJjlXmhzz5wfQQ9wHlzK8h50NTkrnV4jk3nJ5Ypch+F5ZyCseD5Lr7TlDCvSSxqyDx45y8zPp3hKU4d54cjc4uav0lsdcZvOPm/yqhcuci8s8pckcto/KXk3kfKhDx3lQU6dDfIrixZ/9nO1l3adOhvkVxYs/wDs52su7TqhtZD6N3WtDtS2Nm5buI7GPusX9brdRbZ7BKHL9uu1Gur9FMAF/P7lCD2va3Qi0+tepbFLOlzXrqJpu6gXpXRv3dnVH1mJKZ6r2wuP8tAyP3etkmlalh8xIu2VEE1YEwZg1Lrodalpj6y4RJxnOseCax1JzAl6BWumoDFnaNRdTbnBZ7wTDZIyokk46acyZYTVD6Ep6rJAwYuHmBR2v865rbxeHszd3qTZvxpMiFAX3G0NYvxZihJcwt4icCM6siT54YrudLivZjiKg6Ir6T42bsaKrtQjSknjLZHy68YOxuhvkVxYs/8As52su7Tp0N8iuLFn/wBnO1l3adb2WntuW77Dg7N7YTtbfYAmu/ZFI97pU+vxxZYK0qa0UQTUVqldkkinVWnCqutFSpSR7EpoVE0KZqc5dqtSrkRpqqvAwbwIWxjWiuLHX3PsOmJbYebPisy9vFwz7KMJZK405Lu3DPK+AGi6IyZcrIDAasxsdyRE9DSOfccXSjDr2OJaQ8W1epISepophPcbYXEJS8cok1S48GmGEySnts4zvP0mYqzxlzuMPOf5nxRyijKeWFqn4/tSIIRR2Qx7zpp1Rq0oVYkgh2EnhJ6na2zjgmmSXtLy+3izYARGU228hK6ynHLq6G+RXFiz/wCznay7tOnQ3yK4sWf/AGc7WXdp1VWMqra7kzEsqbBW1pk4RtfDsFbIdxFmiNmHDSNuzhl2yNWFLuOt7CbYOjZbCLMmpU5NhBrCFW6B6u0KxhP00ToHq/Q8kwsm+rXENKuxhE6rXr01VmKGjThH0T5w3555/wACZz/SNyb9B+Pc0wP9F3NDyznP9L7lYzi51c9udBXkXm9zM8j5D5oq3K3KXlHLCZ5H4g1sZ9YctfPjE+VcWnW8F+PC0hFm4eQ3+2C5Y+tMh6Md2Ib7Y7pLpR0UuSWwEd1ttINqCGbMlAlhOsNp2h5PFMBHy3wvQ3yK4sWf/ZztZd2nTob5FcWLP/s52su7TrPKgmqipEsWmqx7qspc1D6z7G2tbxlivaSa7SbAba7YvV7C3C6o4g+U0ghArvBhBZbciAJ75r+6WLW1Thq6+rqkrbXaJ12J/r6Vaq1JqJVhYF9ANJziZ44qYHZfTDhTlxiXl1n+jZBL+SkSLcSNKV0LEZnQuUiVOcDVWW8rLpuP2rKivfIqupnFQsrH7DT2axC21JKkEcqjaGT5szf0MQ+nxVj7FEAq50m+kqN4bYsPqakoIgJIg8U9nslKZZ06ebZg6tFyhNwlk4UcyiDqKsCXBOXkBTp+yy4cWZOhvkVxYs/+znay7tOnQ3yK4sWf/ZztZd2nWhp+77oYtEhsl61V5Y10LTYXqVbFFETStYqj1r22x9xAAlcO0bbk2GiswoWoVTSkJZBa6dhNI5c42I/tGa5t3qwzIyhh6nX+uDIoqjWFdWErNgn4JCu0kz44xTyxwAfswr0p4NTqrPcKD4dvbF7VfGK0eSKYPri7F7VljR3OK58NtrvM5a6oqHV2WiHWUIHekq17xTbwAyvnjf2yM8lVrkYHnTd/lCVMTAknVnOCPGti7EsP5ASHGQJG9JBjh95VN5zrLktTVVF1sRHi8Y9Ycdyi4k6wQQm/EBXOqKqcr7ob5FcWLP8A7OdrLu06dDfIrixZ/wDZztZd2nVJrW2Gi8YshY19HV2VWvNpNunraz6dIbibHsVbsJRasjN6yDbzTs2HOsse5jCnMflZB/hNNu9ersrzNZtWxsnV7F3421/Wymh7qlQ5qVSTUCataFJAa6YDzzF3bEZUCbXIG149JHU5PYBqJ5lh5xyEitzWOVlSbMxrb6UjxhJQx3K/NEVSQiD2vIERjLgWwzRlMCUDIWgZoRPDzMN8Csl4Ti9Zx2y1zaQc3cY9IJ6PTSh9VxPY8KmSjD0TCrTtBf73b8hPNWkUfSPCt7KGs0ItYsfLn1BYVQVBVEKDEvVuhvkVxYs/+znay7tOnQ3yK4sWf/ZztZd2nV72FasbO1a6WWblUJ2gWVrsVrwCOxAJfTcJ1CYodvsvS6EQ5M3GkowLrIgiFBSBH+2jXWH2teVWZqspOtOo2LHytrypqFObrNfLK6jGuQ1ErlXrHpMUMbauzox+bdsFYm7vUixDiIih8ixpEr/xOh6d5fhlhiXCa8wo3yMdToRVHVGQgRxExjGn/Hj9UmgiFklOBMKN6babH6nYq40MfESDGbA7AX5CeKQ1b15TVH3LTxPv+UZCeTxcKo8Hy/5BeCjaCKtu15O1cWHAsDlSaaklzJ+4iiJKSjlSKaV8I6G+RXFiz/7OdrLu06dDfIrixZ/9nO1l3add97pFgm1jSd6pe55k+0+UwULl9t0stPLyZGwmuOXNmHOk2xBxD0qglyICsFR4TXT/AIKaZgSCDTRT0pqaKzNQtWgWikzSJwoyCW5Z+7rHP3/9p3/KbhvX3WfWHLXz4xPlXFp1vBfjwtIRZuHkN/tguWPrTIejHdiG+2O6S6UdFLklsBHdbbSDaghmzJQJYTrDadoeTxTAR8tzm3BsUJ5QYGYJ5U3Ns33oWHzf2yUYJHczB22yqcTUXHuSYoN5HdhYVnbfLTV7nAwldUIvppljioaapx1NxGJvpsvRkjuFnLtv9DfIrixZ/wDZztZd2nWZqxaMCUsGYNbQYlza70uSwHIfXsINb69iu5a3V7CGLehywalgMASjQphKMWB0mR8/qxa3KMSiRNbUuE0uSwJIGpcBqasiW0DAiGfhWvgXL0vY0Tvi/ua5RoWfDFm1EQmzroh45NfFm1qpCPaIdvUioLIfb4UFF6jOcFDdic6NFlNAbqw2kcZCRCV1p4Q7NZHbG3GNGffAyvvaTeZxn1ICNAIuiYswk3MvgYysLaJhJrh5fArJ7UJ0gI1gZMxKReFwHuZN6XqoR0odv0uss7ob5FcWLP8A7OdrLu06dDfIrixZ/wDZztZd2nVzChrLDGLTMWwqLtIhCRpWRpAS682KALGk8xWxq2NbXNlhb7AWDaNh8MpWPqVXSs3BFRth1RsPd9VVls67LE1rvf60CwqlSZBTwCPkqwIiNdMB83khtwsqZcasVcXo4exuHmDihOeK8sM0Q+iqcoKCq28XHCmrCQxVA8tPJCWBFB0kkwFPPPpVWF1RKGxBlg6krxkUQG/0/cTw+6fOGM6YifSJ9FH00oCIh/SFzS59c2uRng3XX5VzT5zM3lnynkDyDxHOVK8T5X5V44XxHkw3ynQ3yK4sWf8A2c7WXdp06G+RXFiz/wCznay7tOumw2fTLDJhW9u7fWSMpM3baxW1VR1wzKZOSZX0usAlwUI81pZCoa+ybrKxlTdRsVvCm62rUpUigRmEVaNu7eqKgCglnCbWwuNgmCZnDfWwiUtQBTM3xH9MmPctwRzh5ufSnDr7ibnVyTyxyFz1Zao0OX+Q+UkvlPkzlLlDkrlhP8t8T5JykU8Z5SHwk3hceUKKtonEPFN0nicmNiP8itsyAXGoqCJyKRfyC25djOPlg2cbvKi1qklXOnFDIo6RotKlxAI7cVtVDdwWhq/qF0N8iuLFn/2c7WXdp14jPu1S5MoGajR9Om5hn++Gg3pCj+VUdI5tbbjZ8kfsWucg8mIveXs/bvb6mY5CciYRUuSzR0dGU/EeRrKcoEBRiolUD4uV7EwMgzkPC9ttBKIKbVbifIGbVawAokIaFfYbkEgPpVYdcALbPWpLK9QBCaJVa8mkqmg5RqdOYMMZpO5DpE632S2C9sh7tfqDY0pc5C6hMrDLWOF/wjp25dw9SLHopam85MrVxhO2XoFjdPYuwk7MrUuOzBG9OMs5My/U1MuaFVgSd+pZLk5fhxek4tbYGoKbpWnBpeuCWBrtwYjCYH2bbhmNbTmKdsbARmIzzCqe5aMEi58NfsdoznBvBU/pAueYVj/udoVwR3R7acuWWWCaaBaZHQ3yK4sWf/ZztZd2nTob5FcWLP8A7OdrLu065KxKo+kzs5Vr0fWywZ2Llua0WIrlb2DyZftGibltiTfZYa3WrDwmHPawpp/21itZrf7dlIyOkCP8NakRmlhTTpr61Ksea9cBhCFwKa6EDEIStYxiR2xtxjRn3wMr72k3mcZ9SAjQCLomLMJNzL4GMrC2iYSa4eXwKye1CdICNYGTMSkXhcB7mTel6qEdKHb9LrKryc24mVN+I0D4exw9jcNMHHyT8WnwzT59FU5SUBW3i++Gs7UhoKAy08kBYPqDoJNcFIPPJVX1RRKmzYy6dILxnxhUx9H0N8iuLFn/ANnO1l3adOhvkVxYs/8As52su7TrRL2kYMIyNo7PV7iXH4N7dlpbUXdXasuKJbaKnb72Frsm1JNsXCYs5u2/fTFdIrNIh0QdDYauK4EQVlUNpUGjfr1qwFCKg2agLQZ1VpYIJR0MCQmQovJvHaNMtsf5cxqmEkpH40mlkLLEdoaKoXJK2WT1cDwQlRDU9AjFpBcRTwZRYRjQxU4VBUyJW82SOldBio3LZv7ZGeSq1yMDzpu/yhKmJgSTqznBHjWxdiWH8gJDjIEjekgxw+8qm851lyWpqqi62IjxeMesOO5RcSdYIITfiArnVFVOV90N8iuLFn/2c7WXdp06G+RXFiz/AOznay7tOskoSX1QxQOXerqq3EPj31bKERchIvqO71WEmNhdhTSTLVxZbAGMFl5ERRW/YgOmx7ajlFKbNY7PyTYlFpMhZUL5oUiaANEDOpXMhk0gQ+eYu7YjKgTa5A2vHpI6nJ7ANRPMsPOOQkVuaxysqTZmNbfSkeMJKGO5X5oiqSEQe15AiMZcC2GaMpgSgZC0DNCJ4f8AxhDg/lTjqxB4RydznSMzMeUeFykGx/FxvFJjwkoo7SIEyLcJCPl9N+QnoqyIbLsMjzOvt8ga5U+CdPrCsAoqghUUn6N0N8iuLFn/ANnO1l3adOhvkVxYs/8As52su7TrS9hWrGzs2oC0zdKhO1CytditeAR2QBNim4TqGxQ7fZQl3ohyZuNlRgXWRiAwoKa0R80a6w+1QmrM1WUnWnUbFj5W1/U1CnN1mvlldZjXIaiVyr1j0mHYT2lsysbW0Tx1gvdyl5jYNoh1QTmXDJrGyIXfkLGcaKagdPjRnHOWzrWlRQRk0gGdvR224FqInK4meheATaJ1DOkURSR61w323Wlhfjvk/jTHz60OR/PUzz/KLMDvap0qYidBnBFTUgqxjI6i9V8/IV7L1IXiBuxQUG8puYEUO1VJgKNhpWPfW9DfIrixZ/8AZztZd2nTob5FcWLP/s52su7TrO5QWE3kWJZYjaaqxpdk+w1r72w1tmxSttr3ti0z2Fsos0EPTYfZZarsO4Vdyp2Gw+mYFKn07CoFR6/Yo21FagBdansK6L1VVitTARqJ/wBvsbSWJWgUPCa8OUz4qXz+p4NYx9C/EDHXFLnv9JP0BRY2I05+82uZ3Ozm4U8l5a5rcvunkLyz/wC85N5xLPk//u+Xj/8AvVC8gbXM1MOe5an7bnzoXMGzeRzoMSHkdELjx+ZGUMEyPKpgqGTNS23WU7XYwF6MZCcINlt74Umq8+SHkaKJhxRQwjJQwKepXob5FcWLP/s52su7Tp0N8iuLFn/2c7WXdp1qsObauu2LmFN2xNv3vXPpJwXmA62lop9YHWe9SLB1SGa301qliFQ6pWNVNdS6tRNBIDFSuNeEoZHuBRVEsr1mhLvYQ2EIc9K7MF9AqsWFw3pYdB/2YZ4TLOMy5LEtS7klLWW2TE8c0i8ozLJgSK1G+TbzCBWA2dH0PQ0zASrDh6OEIy4nEs2oKNYrLSw4XArrDkdC2LeQDT/48N/3it2L7/8AHH+LLbTp0N8iuLFn/wBnO1l3adRBihihPKpPO5sRI7m2b7cMtzN9goywsIzB22x1F+qI+23t8uEJ2OwJw7fK6kE3ATSF5LYpYsxUtltW5qstsnDjZNPY08Xi7IsYbOnaY8LWtKxEAWALUMAAiACIDERHkpgYkzkmHJMMiktYrgvEsIjLsbGta9zCgRCJY5xsayQWAKDuZetK1pDqtYANQZabZiFOk3ouX2PE9ydhFmy32UYjrpDQ6kMt2JsisK/XUUgyJ6h2REZaj+ZGwhHdAVFBDWC6U4Eo6RSdSjjDLIqOWIeEru2FmfkUkHo1z13WpInLHlcKWkHxBuN2NcZ4XEpWSbhQ9FBpyfJTbdcrSuoMRyJ1x9EdrUYzvj0Bwox8QkaOB6Wa3iVr0N8iuLFn/wBnO1l3adOhvkVxYs/+znay7tOqVqWoRWICaAa14VnxFioDbD22rEhTse2qEPtvdceAqgHXGstsErJk2bWSbGi/2NVYEUjFqs1tS0XzrWivLLVU02GnXrqTWrsYwzRVSmsogQlax+azu270jK7B1Mwphd+oeKyIzF2AFWK3EkxgXkdux2n47vxnPVlt4hHVzyYJZQSQwWWnIQBcRzFAiZXW0YQE/aFcVG8NsxB3ntL7Nb95uGr7NLrdb7NNqtg2a3W6a6a3W6X9K27wdbtPn00u8G7wddfn+bX5vmql+hvkVxYs/wDs52su7Tp0N8iuLFn/ANnO1l3adXi1oue+WMa21sWbayVkytQ/Yur0qr7TQsy0DY9GupLfBDIPhAk0TImEcOi4FAitSxrUla5EKWCoVSQ+3ZRWH1CH+JL71s1RPmV+4gCYCAEfjM09txNygkuJ8nYjnqQsQs2oNbS2yo8ydipAaLoGUmG5RfKluNJai98kVJnS3GYioIZX0lpOK4DRvuIyOrJCkWFMnwzs+GNqjIrIlwsgDcu3EHFmbCMeO9uSEmYxR5jTHWKMLP8AezPO6KrVUZ3LNp2yY9pbb6EuWE3CVYRh4t5jmlxFQTSsgqRYookletuhvkVxYs/+znay7tOnQ3yK4sWf/ZztZd2nVaf9uxLVfrNa1F2qE/uirciyd0bVWsztXrPG+w9iLUKWY7LrsYmLoA8ZtInplDSIhKnOvayJkLNilKQqzXt3AkbdwJpgND/dOcX9f21/b4jNBX9bbbZbbZZbpbbbppbbbbppbbbbbp82ltumnzaaaaaaaaaaaaaaaaafNpX/ALUAdDfIrixZ/wDZztZd2nTob5FcWLP/ALOdrLu06ZGIiIiIiIiIiIiI8RER+IiIj8RER/xGX/SoA6G+RXFiz/7OdrLu06dDfIrixZ/9nO1l3adM7l/0qAOhvkVxYs/+znay7tOnQ3yK4sWf/ZztZd2nTGX/AEqAOhvkVxYs/wDs52su7Tp0N8iuLFn/ANnO1l3adMZf9KgDob5FcWLP/s52su7Tp0N8iuLFn/2c7WXdp0xjDf8AeK3Yvv8A8cf4sttOr/rlbt5R87WTKm6G1XLOcpy+uo+fbKsUZLkVIhJMezquPbZm3MqlRV8hEsOxdHJYRGInyraTdGuwG2EKiIqYOrhKrjFWV9W6Z8jqPWtf/DNb3apjN+lYHI6j1rX/AMM1vdqnI6j1rX/wzW92qYzfpWByOo9a1/8ADNb3apTGb9KUpjFQBHP8U3Mj7gG2n/cVuxVf9QBHP8U3Mj7gG2n/AHFbsVMZf9KUpjFKUpjFKUpjFKUpjFKUpjPM5jmeKMe40d0xzfILVi2LmIlDLLsfDzVyqKgoxALXSy3UY2avt1HOHB7wiSYmE7DCmrqRgqmJZM4oGixYWUcA9xmEdxtrTK8YPaE0NBFhSYVKGV4ObWCDGq4vK5Jtt13EnO32sOvKjnJNRebzpRlJH57JDOdeoJj/ALzaqZd4Gl9OSjAMLTarRiuS9GTPklRhl7ByVF1zyRy68UZUgF0s+jEnmjJp/QZNsciWnqZ4NGVxyg5xFMGNTyUKTP2BmbOUW0P+8DvU/wDmnyB/6IQrXKU+2/s6r4ghXxq9t6friQlTaPIuGaoieckXv+hXIrgAkFpGtFZbibbO1C6HbUSupRenxHfdVNfblnkiYNvT8nviCBHqKQQWmrGxxy9lo7EqBdJdMj2NjZkbi0FYXrkdR05m3Mk45ATCEqnImxhxkjc7Ls9v5Gb4oAbkdBBrFzyKhNxnt60fUZVd79dLRbYYZVRtLKhoZMUAi2FiDuXwpl3JD6gn6OMhMZMk46bhN8uLGvLaMQojmEzHCgqXohGTWmnEHE72m/I/FWbbEo05GQ7nAWRlE2mk161LHVUwM3E6W7WnE/yiWSS0zHCTWV8l9umIGjiQ43NqWTkp7mYumB/LE3RUyFs7eXLn32XMrzUeiozE+44tmW8AVWxggyIJO0XzLcqyKjFp7yuysymM6Ew/PSRLE2MCWEpu3XKaq1YZyBiIckhtuQ7ig+hBDCfblZgDqZqQv3hrKgCw1pxN0mMTTVC8x3XELR0EPE7DeT7TaaislPgG07SOSbrjWsOqA9voSt2rrbLfHYkiTqbF6zUBJUkrtQuwaC30jPpTx/V0NsbWjPSxXPj+q5De9xF4gJeGxfqdRCiAWbVVAXuYNh6B6KZS7n0MY0y4Tx3bUR5OZdZHXN1NejjgjDiIdJcfEdMRauPhoz0lFXWnGxo4jpGWh00wCiFHY/Etwret5QdJQzpQ8TMD/a4Z7hkJ5rHpIZrVak1whOMNXoN0u41ZORiow7PUdp7sBNGWk4VdonTiukrLTdJckZHQXazHI6G2eDDD1tVLNTRPQx/LKB/CTbgFn7M5+pa1Gylko/I4+nSRW60p3nBxvh3txrasmOwNGSwUeT19DSUVtJgpAuTZzTRWmRvuNqioCGpKRo8a574HSIxdxXcwlXc4gRZb4eOcZ4kpmEDYvucDSFk6VHyqSxpMjneD9jpCXVN5xAgskgTSW0zWjNaQzJOUDay5VgRmI6HeRHUI67/M8K7D+jwjYO29lMRCNI9Oodeo1gEOxGp2wPT6WDuENrYM2sbpVfWVTHU05XJhCnNjymWN14aau2Jl20Seyq0di4pmBHymnG223ivHopDro1jLF58FcsdAY5/im5kfcA20/wC4rdiq/wCoAjn+KbmR9wDbT/uK3Yqv+pYxSlKYxSlKYxSlKYxSlKYxSlKYxSlKYxSlKYxSlKYxSlKYxSlKYxSlfwqiYRWkxRR1MDQ0mqxA2mKBbUQULQwRPlxCpsDUUC8IcLQUAUQPxgIoYtnheEHfZfppdpBknAHKhA2wBSsGHKwI4iegmwVtJYEXiCMVMkYmShZzHWZrgJYENIwVJjDDWEMYITMdyBZMULDEfMiBNXBTEDLAie0cxnBu/wCHadnHFeADUUn9LEySU7XXHyq74ta6e44SiSQmiyFWQT8eSnKRxwI6OSf4raRVAyIyGUXfDpb4oYVjzSWwGaKjDdHH2+mdGDKdkjyG5kZmMNiN1ZdzydriPAJiC2my3yA6otriuoGbrACacmJ5UwbNmBbtLQwQr7v9ddNNNeD+YkKRHjvmxsAw9BcctCKIvZeSeT6e2GMxkQkgN5JL3YovgYe8EiRCDtGOnjQgx1UUjWo6iqqA5lQUjZo8YHMCeu7+Bm5YweZUNGThwm28ms0cKsdn5oSt/wCsUI/kHIVljPJFGGtMlhwCS4hohpIP6l77hDRM6OniW6Fjg4obyTUVa1Ywm/a5PS4tXuPSS67bm4PjVahbfSXYYSKyLvII91dVxzZqo8RZN0955+F2pZaCQpI4wXJLlaqyHWARQs8pLYprWXrSuxZZR0A/Kba9RBWTGGLQqTKMZJ37cbTSWlSe4sV9xKO8SF1WTCiNnXIWKCm3cUzbacA5Qu1pQOr3O03KzZiR03HyFyNIrviNvtvxZ8jcpHE7U4WtF6nz7k5BGMMEPDJmcJJQGTB7HbpZ0Lj9FEMK6cMlqN5UBEsQCqCApqTpU3KcPpyc1kZtk1RVcqmop6eiEzxs6XCE+xkuM2fJURv+HXOjETrCfsdOmNnAgCF7bk4y0nO2zzZVEm4rbqHb5GKkHRyniLLg9NAdfAsus+bTXT8imNz+V8hsLvkwMNSIsKa83XLlQ5DrrAPgBXBuoHBJhzppExFcvsO63nCicrNFmqXiBrBgVA4il1A8FYOUBAFvGF2HPrI9iFhu+Fa5NpxA98UeU7XZa29bsKAUJZZ1K9eFxK0Cld4rU1fWqUQ51fk1Jm69YMBGr5NsLlSvJKWNnS6kdxr6Nay6WtkNoCdlWY9imFTCgFogYT4RHaKO96qFXC9YybM14nbgWFzTml1EGJFE1Zh42ARXCzvfK6YvLtJnmnkivx6mY+cL4us0uZhGV0VhauDwtQSV9xoE0ABSO5Z+7rHP3/8Aad/ym4b18zvEx235Q2sc/Wy5ANBSZDFeYH6mDaW66jprsipoqMnshbJ3aXh3AqCC8WghLKeYtv01LnCIA3zX6Wa2XeIS/IizLu1tghKrjMinXFJM57GL7cB0cIMAU4uOzcFwSXFc2ICEIMEFcZUTxkbUMMUS2zw/Btu100+eipCwvZ9Fys9XZ1cEUn2h1PehuS14lHWPNys3j2zG44ITXcl+u9NVTQtG3jYagtYTCEx2itxAiC5CE2dCWi+shmWmXz2l8ipfOg/Y2udS0bLdgbKlVeylKUqvJ4pSlMYpSlMYpSlMYpSlMYpSlMZ4LknOShjtFilJqZBM95HHE9VRkyyLsbGm2HpKalarnLSgimmobvesfoYqUj2XanVkwYcpYUuTsuvLFzY3ggXcxnLvQK7Nbq+73ZtG7wrbazVRVRxuVwrWP2OScjoSAiER1JYWVZQNZbhFiKamJ5YwdPHDAgYBYsAKMLfbZZddp2zrjHueKF2UcxYt7UCIObvQ8nz63OeYgyQoaFT6LhJj+rt9Qc7ROikz5FYSQ8ipWU2HDgSkTuv8oag0jldQ7/Av1sp6vNyaqGAVnYWhRVhw/wCGsEIl1u04VRDm09ZRq3tzfhfstfFVtxXEzBS5uGUCB2LAMGrRrnYuSgo97xBnhVevLp9A39g9tbVaxbSUh+xs0ksMJeR5VyBuMY1j4EtfcgklTdcB42ueLUWXtDEzN8NIfKO1XOICE1Sp5pNFSel6q4nbecSrGigs8+5zjqEW0QFvaKQ6mVCvl2O96qFXC9YybM14nbgWFzTml1EGJFE1Zh42ARXCzvfK6YvLtJnmnkivx6mY+cL4us0uZhGV0VhauDwtQSV9xoE0AB8ZulpiQ5MmNlTGgyXDJRk7c7jEhq7VIkwQENRtxegKQ5EjtDNlwRi9tqOlPAJvKZZKtLip94qOTGGD01TiwI1PbxMdt+UNrHP1suQDQUmQxXmB+pg2luuo6a7IqaKjJ7IWyd2l4dwKggvFoISynmLb9NS5wiAN81+lmtl0716lUrbrdeh39drt3fUGv9glYnQ6/U6fbuMbMRA/2rl7axUqkyJq1361VixXtJuytXNfRt3Lej0ctUOx2Wr1zm7D1ySB2ey2210qRCr3VJUqz9RNywPsW+4q7FVLtedWbL/ptyz93WOfv/7Tv+U3Der/AK41y/IizLu1tghKrjMinXFJM57GL7cB0cIMAU4uOzcFwSXFc2ICEIMEFcZUTxkbUMMUS2zw/Btu100+euylb9hTPXX72vaQm2jcs02GHnoZ1XGgyDzET1IgmR8xE+JjzETnna64Ox19HYABLC9Tq3BWUxJLGygHiBTEREkEHAzMRETMTMRilKVjzZilKUxilKUxilKUxilKUxilKUxk/ZO5Rwhh3EK3OOQLysZjCRj6MhgCFklYcrkc7rcygEkNZkshntsiqud5vNzqo4RBDbbdS1BSN36jGbgQk8meOFueLI3p4bPv2NWbPWI24ThM35jc6CxYwmHMHGkCNoYcz9dpnUqzmMovdqv6QdI9dbtG08BBSJUTWKKZE0FAHuLGSpwEt0bmfGmEchViFl6Y2MC9lLHmWkWdYguNrrnTCbTlduJSwjILvFSkJbSkpyGUcivKnJyc7CS6ilTo4SoCm2qhIicLfn43I88MWN0KPFjaaxZfIa1kHkZITCaCi4Zdarjx7bsTNyPJXQXa/JCaoGRCTFrom54N9NYyuCx21jwhSUsG3COlq54wjNkucWg4VPJ7CpVYUWH39tVr16CYgJjS9tavZbEmzMtG1UK1fe6wYRqdXTq0bV36RsWl15thYpN7GTUo16Rlb2LQNoo2JndYhfzhH+4rRVqpJVRLI2m1stuU6QJZXrHa77ZRZTwZhrDq/O2Qz2BY8eoJxIR7TASYrOFwONzuI8EltlmsxpN0kqOV4PByKYwZJGbrfTD6iZu8ebECBTiR44VhKGt4qHJFmaK4Ql3F7OvChxT2eGQoCcuZ2PZWJ2DMjyDIG1gGPGw628+n6Wb8hKCIRNqiSzZKAYi2q6hhIyeVMOU4RRDUXbu85tmO9xTZzjN7sh8zGhN1ZyYn9jwoxEsktu2a8ko/YbRjXHNvohJTvKohVVb7nk5eeA7ldi22GYx09PPP51ulFQWoomLvb1LcGkxKmXHmNd0na5LY0R1LEzs1Exsn4xNkN5gxa0clRr1PWL0d/iIrObStA8mHxvHJrIeycRcaJavq3JyM9dSwa4ppsqEw4q9g5iyjYbl2poqjtWUxda6GndXVbOIBvKXbZdwaOog2QVZvHoOs12/R6st1hITIsE6divpR2V7wE3207Niq7YoN9ZEQUcfra8alm5tokFOFm3Wu1TbpLJR3Urj9JW8K1WfkVPmNka4HbieUbpxrcLQakpvLGmIoXe8dJTiezFQpDRkkBYc2Q7IXPLbW+4CflhdRbSaKCcBNBh2DlrADRjsDX5s4Df8An3BWUe6ysQpttSrPq3MWdernQHRKMrM3EuEzsWsuA4cjxrOFoyBILWX3PJBlxmm8thkho6jV3NMrakCguR7IqjeUsVqQZE32IYbAUGi2GwXC0mz3Xa+64xr0oIgWyRj5NtsLHWJCS+b2SXrSyJ1nHWoDRFRMZtadE5a4FSqs7V728xyxJgexn0aynWEfB+YtSIhLSXMdmcTcp1jKZvO1eWMUss8UhWqskUgFv5ZMBisFwuwM6RuO3LLSKMWTpOJqCMSut8iPGDx9LMhHrrQgyYwWvjq8zw3/AHit2L7/APHH+LLbTr+TBTPwlmAbmKLpDhN94qZZY2rTcRMgsZJKWG66FtmhvNLFWWQ82c/2eOZaEnxk8yJVRtbj3bl4AJo2kqARlNJl70o2q/14b/vFbsX3/wCOP8WW2nWxsR/iMIV6nVqz0sQ4LKHpchbF2UvWxqmrsDPuglsJcScgPWB6jlQcGJ/s2SBz1sB6TrOSYNKJS1DVqaslR4CIYsTMIBkyUHBlf9KUqrLsUpSmMUpSmMUpSmMUpSmMUpUbZ05VXYmQUddjXbtshTpIi+kw9jDD4V13l0vZCP3QyRj1n6WBmCowDdJmgTTskNc0MFwGrHDbdjmNGQQEq67WpzZSvsKm2Gmak161cROzctWGhXqUqqyIIbbuWWqq1U9hl1hylRMScZYpftPr3WoBFjWucXrRWrpWTrFqy2fIpq1ULZYsvPwCEKY1kwAFMedibm+NAm4ml7Y6Nc+HNkQZi9blBwLLfR0E3FrEAQ00ivDMl4ucw6Ci2UkMy21dBcwLdSGotAlEJxt86sqSVyuTCE6G1+XqLcUrcRt2baiZTicd0hze/sYdx+YcnpjNWW2qkzZGSBdj6oSW/DOuhcrqWRbTwJZrsFCtABLtKN22z2kTCsKIgXz/AKha1CrprtU02qfacrcBedWIipsua3lPINKyaBGC2MoCOsWFN7kosWq4rtWK9Z7mIXmlvfYbRQAxdZDdTNIHDIWYq3+M6HbhNxc+fVbNmyYyzXEmLqtMqqnPWkHM5mbiG7RiHtntoFRnNVe74fpxGFdSfBcFNknIkzjsUkoFk5bkZUbZlcbqIzI5QBTOnKT5kBzNJtDmAhEhHUVVf1BSRuj6Grll9FR14nYOETW0tPVyoZm0OwyGWUigJwCwxYEKMFYPYENZaLaGMKHaJpdpYKJbppdrww3woBhaMNqvdTlNgRkz2tJU5xgluOX38mI5ex4SGqoi0yG+hiOdxC6CqygSQ0ZPLEERJvNaJCOFoPcmkSwpw5eP2tjT/wDDiP8A/wDpLU/4IhVNae6LgOiCtVv6hxsX5BQf2Q7mG1FjJFLgqlrFwFw/Sy3JsdNSmJDWVbaiVt1xK8RXtlyJcCXknMHUnxz5bLC/AJN69u4mVFwwK0wKvru9IsHG2G/7xW7F9/8Ajj/Fltp1f9QBhv8AvFbsX3/44/xZbadX/XcYpSlMYpSlMYpWBzra3WVA9MJ3tNOdbW6yoHphO9ppjN+oAjn+KbmR9wDbT/uK3YquDnW1usqB6YTvaa5KODMHEnHHdIyiHyGykx0gYB7YCbeATMGmebY0i4J3CtjIjdIvcoTYEfDmQ7F4RvWORvXrliVqbuSbV5FuP6F9FQjqOxnYqlQB52Lay4lmAHrkY6/EannYtrLiWYAeuRjr8RqYy/6VAHnYtrLiWYAeuRjr8Rqedi2suJZgB65GOvxGpjL/AKVAHnYtrLiWYAeuRjr8Rqedi2suJZgB65GOvxGpjL/pUAedi2suJZgB65GOvxGp52Lay4lmAHrkY6/EamMv+lQB52Lay4lmAHrkY6/EannYtrLiWYAeuRjr8RqYyuJEmKIohATDUsSnHEYFVsYyXRjMiPhssoBXHJ2BCGwEwZyqiYGfGKhjAiGQytwt4FgoVwtttolmuvB7aYyYxwSMgt361VyBhJMufm6A9FVj2qErMQlc80tQhyGE8gpNTQyvBauIgePhiEiZxI8sLmTYd5YES8a26zSs5xy+2F8nCbeTsk8odorIVPaRk+dahGcZrw1lkm2TiqEWAVDbeLP1zL4CKZUgCZME+Om2FhTgRQsGYvEsAC0s8GSVb5LygKqYuoSnsIoq2iqBJWR1hJO7eicqpKqnGQzieppigTEBNkFAgbBBNEjpUYIyVMhBjgCBih23aRpQSdhYtvmPW/UXdHIKiSMal3c8Y3J2Y7yIzYUzjkIFXn1GFmTlgEEDPbUyymiunx3Vsa+1mWx4ErNXW77WLRBBJTCDXuvcbeksE09BXIl3yi88pW2yH7L7BwT3IWBGIxSTWCsSnDTuyabzMSYVcqujLALYc7Ui+XXIslTDYm1DKn008fRkwZsOAw2lxPESFRRtP3kq5nxrFWEMrbmWFmOG2FHMGJGN+3apyjlnlnJmO5BBOx3rMz2jVbg6C4mV5HagR4q+ZgGtWXM6XGGtOpYVklotkdNP3XHCQ5JM6gy/ndsi5BtTVhz3mVtWzex7jgCjczJfyHxIkpqXKBXwvJj+rdebvWkjU4X8K7xBrUn48HwrvF32/Pr8/wDXFWf2ypBLPJR5CGbG1xDbATRRx05jRVkhidHjPIDmr9RTIxJstF5o6KVFMia6iDiAEg7xr9dbxNbrv9a7Q7VmC10yRKsuuzFefSOwuosMscfs3hGIkC440qVirCyaVu7pdfZa1SXXKbI3v9wokqiJF9WKBTaiGlrqVhPz7pFDzBQf97WZsKrSOK561W3usqk60qo9P+7M3UIIJZYZKYcZOqjExGl2GHM3zkTgS/LDdQ0fJ2EXazybkQJiitXdScyU1RFKKZd2tp6MRBOO1QZR1rDDKa0NcOfKI0VR1J8RZIb9ybI+FrrbEkM+J8GH9H2d8txCrkHLFS29lqSmuJjlGDreLXNiNRzS2zrUaQ1MEsIfXlxstq1SQhg0zUgeLkatmnNDYoyRRyLeyJyw2l57QEszodTEOaZ2w8lJHTjmn/sNkUx8uldJFDOn/wABy4AYv/66+ni/cG2XIQZydHcLZvbX0Qx+j3DXpLFi/JXFFgM5LvMa26j3pzYab0SUQlcNrbbqNcWIhaia226363a6afNynHpfrrViZZZ1dO7WBi5gP7B9/j9/jz79wevWuba+ys3LFOpEVm7IVtq/BQkdWmd3o5NytV7KRfbrWtF0+0qsUdzrN6VesQeqWI+vWBWqFZ9lhGvYIW3bC6k79n0KOf4puZH3ANtP+4rdiq/64QsHc222ye5Jle+jm4NhAVZLjwg2+Wm3niZyvgYBqrrqZc87myw8WyjOEV/WpCo4GmkP1iqjmRiJwdRQU56NM8qFipZxo4py3/OxbWXEswA9cjHX4jVLI5f9KgDzsW1lxLMAPXIx1+I1POxbWXEswA9cjHX4jUxl/wBKgDzsW1lxLMAPXIx1+I1POxbWXEswA9cjHX4jUxl/0qAPOxbWXEswA9cjHX4jU87FtZcSzAD1yMdfiNTGX/SoA87FtZcSzAD1yMdfiNTzsW1lxLMAPXIx1+I1MZf9KgDzsW1lxLMAPXIx1+I1POxbWXEswA9cjHX4jUxl/wBKgDzsW1lxLMAPXIx1+I1POxbWXEswA9cjHX4jUxl/0qAPOxbWXEswA9cjHX4jU87FtZcSzAD1yMdfiNTGX/SoA87FtZcSzAD1yMdfiNTzsW1lxLMAPXIx1+I1MZf9KgDzsW1lxLMAPXIx1+I1POxbWXEswA9cjHX4jUxl/wBKgDzsW1lxLMAPXIx1+I1POxbWXEswA9cjHX4jUxl/1/Epqaaipx9YWFAikpCUSNKKoqKZsAgnJqeSBvMnT588aECLEyRQuGIYNGjAoYBcEO8UUSwOy67SDfOxbWXEswA9cjHX4jVkODdC2lHYhLTWdO4jt0uVsuRJUUFxNxwZb40rKEvoauUGT1ZFWkhRkAynqqSqEDBgkopx4uOTOlBxixkEUEW+y6DfZ62enpLuh+qGyULlnWenskYkoDt47yMSUD58RM+MkHTuHskoX2H2SERJwHmO8hBSIyUD56wRREz4iZiPznOTcSykxkcO4ZsmryBkXBK4hM7JXJRRd60jy7H6mktVPUMWXoQIHnIoknCOTQyZ0/faSKGlMYqAZN3Wlgb7xtdLNaX3eUg1k3t2OWU8UjreyBdeN8ywZlUyEWLlRDkK19KeMkuNSR3ey24cb46yAadR1lpjkKpqYneUKh1UvJo1hUS5S1BE8b/+yy//ALAP/wDnXVXxDnnslY+M0COYEzO2sIQj0soH1YsxIhyKxKjVml1VVEsFU1MBrsx4IqIEoKIodgh86GRtMnBLLLzAgl1umukYWYIZ6Xyi4nc1+Q6uz6RcFXbUf6E9exySYEPTVs6JNyV9hh5F8xwK5JmdkxO2lj0w+mWonQbCrDTQdrVOfv23lhYATNLbid8+l7FwJ1lj9KWe+AiPiJf3rNv1KwwV8lozyYiqRlt5sDUOGoaZbxRnLO79mB3owRZhwymw0gKt8khSWbdiskIK81RkcgqtIa48dcdyKnph5QK8x35jDIe2/twbLc5PBrqy4obZUwtSVMvUVqod7qXWhGGQrNkRsZKuhOKo6YKqqxWIF2VgVtasTihoYZttxSWTp0zyTqq3dLEXJb5Pk25gNZCt2f8AZtQJ+PHDqidnFFlXCZKmA4oKRXyFRPGpMIrwD0MHD5L/ALGdMjLd45or/wBnHvEC/wChVHi7ru1aOEIAPuUbfgwIwd4QwIuY2OYgQoQlutggYgd8i62Xh32a6232Xaa23W6623aa6a66VokhWbbNRcosO23FttFZrSs00f6T2F3Z06HeArus1rz9jaRsmshTHUwqrStDVvdY5AqOFVrBPdTjX8i1dpiyXXu3Ecipo1rrMTC3Vq12jRRJUChL0LuW7jGqbXNdUIS3UNw3GKV8E5Hx3xQn+HMkMkM8mSqYzYzxZCUjNuT3O81uaiJhmLLqNJzBXFE+3WAwWopOF1vh7r2qc222SRRSiqauUDRNJPUzllFxOD8A8U4WTzGhsjEWVOy3GJQ5baFZocLsPcgwgawJvwQCpEHTU1Yl6D3eKJFA9bhNdbSwGmugVvxEU5N/J94Iei9JEH5CbOMNSI6gjoDofsUyxhPHj0cgKmd5TUgV50tFfR1xYCUFL/vA6GonjFhs7/2sfQQf/rK8v3BtzbbbekDMFHZ24NhA7Fcnm/tkuw4ltnK+Bl5RKtVhbkmKD6fTmMkUt/GjIDfZbJbjheLsWRQrU5uNVCWXCsGSaQlnjgHQlal3IULBZsX0m2u5iYinVhfDV1QmADuVUttt3Nt9ElaK+CirLCkkjrbBNOjJzEhrq91aPESMlZ2jKBbSzMdiha7IajULTUknlVmm1n1vm2QJ7vUqAPOxbWXEswA9cjHX4jU87FtZcSzAD1yMdfiNVeSy/wClQB52Lay4lmAHrkY6/EannYtrLiWYAeuRjr8RqYy/6VAHnYtrLiWYAeuRjr8Rqedi2suJZgB65GOvxGpjL/pUAedi2suJZgB65GOvxGp52Lay4lmAHrkY6/EamMv+lQB52Lay4lmAHrkY6/EannYtrLiWYAeuRjr8RqYy/wClQB52Lay4lmAHrkY6/EannYtrLiWYAeuRjr8RqYy/64nYBmNZs3Ot33JFVENGNYxkGBsD43AMmfDDQWjCkYlZOkAIqV0BAuCsc0oy4oqoggugul4SeT0LC32aCiC1l52Lay4lmAHrkY6/Eavh2XuKbNMcDvI1HmdW2QwjUivFTkWQTLLydxXaw77kFaLECSy+nkMhvciI53irE0tMKKbnW7jy2fLJxAA0eFCJl7A+I/x3Ssn4IQ1Owq1YiPDK+xu29UEXQP8A5CP6Re/1LoCYNidwxc+Uk4SN8MqTXHyMsv0XWfPglvo0wt2YqkM+fBxuQ0myUyIggPWdYOBYYM8E3nA1qIgME8+yTeWnOzcB8vEiTJ5JtpvmHG4ELG+UY+eUNS6/09NTih5YOlo5KO1FeK4TTSwl2jeSVVVMagho+hgH4HdQ3DcYpXwTkfHfFCf4cyQyQzyZKpjNjPFkJSM25Pc7zW5qImGYsuo0nMFcUT7dYDBaik4XW+HuvapzbbZJFFKKpq5QNE0k9dou67tWjhCAD7lG34MCMHeEMCLmNjmIEKEJbrYIGIHfIutl4d9mutt9l2mtt1uutt2mumuulTpFOTfyfeCHovSRB+QmzjDUiOoI6A6H7FMsYTx49HICpneU1IFedLRX0dcWAlBS/wC8DoaieMWGzv8A2sfQQf8A6yqPlQ+rd1l4SfrthsXXrMLOV2Tr29ZqtXf1YM6zCq9qtqFSi0Ew6g+5ffCbZGkE6gtFXs0tnU7K2evohSrGUwdUWVNhsNpqrxJ6wZNqXdrcm5X9kL2NdVFC2a80WH2/t8souJwfgHinCyeY0NkYiyp2W4xKHLbQrNDhdh7kGEDWBN+CAVIg6amrEvQe7xRIoHrcJrraWA010Ct6r1wh3BtzbbbekDMFHZ24NhA7Fcnm/tkuw4ltnK+Bl5RKtVhbkmKD6fTmMkUt/GjIDfZbJbjheLsWRQrU5uNVCWXCsGSaQlnjgFv+di2suJZgB65GOvxGr0Ldp163Zu2Cg7Fyw6084GBgnWGE1pQIxAjBGZTAxERHnxEeM82pVTSq1qVcZFFSumqgZmSkU11ipQyU/kpgAGJmfzM/mcv+lQB52Lay4lmAHrkY6/EannYtrLiWYAeuRjr8Rqz5oy/6VAHnYtrLiWYAeuRjr8Rqedi2suJZgB65GOvxGpjL/pUAedi2suJZgB65GOvxGp52Lay4lmAHrkY6/EamMv8ApUAedi2suJZgB65GOvxGp52Lay4lmAHrkY6/EamMv+lQB52Lay4lmAHrkY6/EannYtrLiWYAeuRjr8RqYy/6VAHnYtrLiWYAeuRjr8Rqedi2suJZgB65GOvxGpjP9M7c8ELAYPHt+SmwTRvHKTpoIQ/N0+WOK9ORcYgXWgq18eyI+UINtq3KLAXnySTGQ5HGcXWmksjVcIrB8+oiClEc9zT3u8vMHpq25JPiGPpxhXITIKdSrSSMKY5g2S2XJ8vurIw+42+LDj1iFNYSuvOMuaabiUEdwmHui2lCSYjC3lxVovy6UAPdGFbdL2nV5MPoq5uM7eC0jqhUYippKtl5jYopiiSMWahmCZ8gckIYqbKjh3XBjFzAQgQtmutt9l1uuulTpEeRfyefH92n3/A07bMsJPtVLmSio9Yjk/CGNnapFTl94pwsfcbNXEVYOFzQgoghkEwdEDHvEvvFtvuvu11zzXiwDa1xjvnbbh42aTIrbCvVFVTxUqNkGLr3FWq77dLdQLHUXWgOaNuaSfZpixFcq9mmsItJrks03I+jXPsi60xdmwgJS9tdqbCal/WxZUq1WpQKrNRl2w0J+3FwjuKORO0HuST2GOpx5jALI2OGXMgliJtVTopLZUxe22IkTkviFRT9yWyW/LaGVQ3Uu3eWeSlXun3WmhRNbAjmfu9ZJ48ZgxrjLg3jLK0T5HZBZKZcYtOVpNyIH21ZOGjyLYnlpty9JE+PS9mL5+1sR22WUzFYjavKF+ga2cWA05GKqngKNxHo2sbpW024UlUQF/cY271xCW086kLSKsZd42KaSrpSiXEJqCYqJx2QhyZ9PPlBhip0kbBFLGi4ogA4QgV91uvhkJ5V7AuNJteUMcskdnyAD7qDBBc52E5hwuio24wS4vjy4S8ZYriQRlgMAbXUYENQvMWhC/8AWWaW3/61tiw1l2o94oGvr+Sq5LSRVXKYVIbtHJj1ArkpBdNnIQu35t9mWQRtbNJawCpRarzprAqg2vWMzsWtAfHbbbkw73KLVv0gbZrAgG2L6tO5NH5WdKbI11FkkA/Wm11FulaLrJPDhK+SWDbM4zIvkwGI7ni3bZPFjcNb0bQkgBsHVR0dd7IDcd2jfvddqTqg2LeuiVcf0P66AVzwhHdjx2eEu5Q48ZGr7Aw4nvGOXHIzTkbTfLbWbhqTYjALp6kwMi44UXeVYtrhjiQEZRDOacnEzwrVMWhFFs34tSRzijoXbhezBfJ4c235x7YV0zgsi+MwZcuyYxTuk8KNxFvRyiR+G/tXrq67GQI47dHBe1LVbRBvW9NFW4hqf00Hrzub8rdgfJoRDFyRyS2fcgxWxaZsbYk3zFhdK4jesO626nLUO9+OJfuSbTetlmpm0hqX0H1st1F0v8HT5s3+YTQYwtkFWuV7SWSQApzNgt1K/UYuJYbq+vrDUbVsf7Zx7G+2JFlagxes/XMEIdg62KTlt/BMNIUyXeptGZ9YrfbedhD1x70xSpCXZbbqXeKYHPxm5fbtWe+bEADJ7wxia2PGPmGzenZv/wDbmDOsvsR3SBI8kqEYOksZMJL3bEcEXO2WaoutG8JFU1IQDVDPrCVYXUhrtw3/AHit2L7/APHH+LLbTrBa+5xtFsduIjPZW4TtxNBpNpNKIzcazXyxxlb7cQEcgFaARSkRESX8UTEpNJAWWAlCJEqAVLhW2hghWWW6W6R9ihubbbbcnnc2WHDuDYQISQ/c32C7GKqLOV8DJac9GqT229vlinHM0zx5/AFnG3yr2ZbxZxlZRxTicA6mm5m8KZtV0FUJlbo6Lq0qaoL1UkOASPx3a+7fu7fY2CiPwsbW12V6ymvEnFRDVVIc/wBHvZUUSy1ctnAi24yqRgHnotdDWUNPTCJL9jYNDWVIsu8ANi39FhaKqmhVR3epUAedi2suJZgB65GOvxGp52Lay4lmAHrkY6/Eao5LL/pUAedi2suJZgB65GOvxGp52Lay4lmAHrkY6/EamMv+lQB52Lay4lmAHrkY6/EannYtrLiWYAeuRjr8RqYy/wClQB52Lay4lmAHrkY6/EannYtrLiWYAeuRjr8RqYy/6VAHnYtrLiWYAeuRjr8Rqedi2suJZgB65GOvxGpjL/ri5mfiHuNSRnVEWWOL8nYTis2DIaXWVFUZZasCdHkTj6U5BUlAvKEytorEL7YJe96uRhBoMcJi2uKKte32hc6ktETUsR2L55VqTzsW1lxLMAPXIx1+I1POxbWXEswA9cjHX4jVCQ8urvgjFlVjWLkS8DMvp2qLIYMxImMotu6wUfo2FuCRYoCiXb/DYRMCS7S1qcJDEzILs17YwJf9g7NrLhnWYhqZbXZBoc1Z8BJ6Sd6G3eE29AHW/dsAeeRca80r4rVG9EeVpWIiTMDviD6SC8gIKlNhx5KbnNfO3uZBxuONISiHgLXLxFR8aR8T+rAhK0e2P9NhJZkqNdJ7FjwGTDsSEHeiBv8AGY4SoG2lGQk2PzSnc89Y8sdmt6AC6Rky9IDVLg0kdR1UvnB1hNT3FdmlbfjWlNZzr2yVeT2MkOFvsmR1PJ3Fc+/GcgO7yDV1obWd5p7iuFvJDn1SkvVwpqSolCS1yaQ5SAM+Rl/F/wCF24XswXyeHNt+ce2FdM4LIvjMGXLsmMU7pPCjcRb0cokfhv7V66uuxkCOO3RwXtS1W0Qb1vTRVuIan9NB60JZAUtdRNYQFUt0dhih8MIr203+1pxX7TMAEO2NGLwz4hphfsriGtXlTAgrexuQR9rMauKwTP6x8mr0GrtTamPy0pXrbh0ijySRZUrzMJWyMlTf4yJx+MbVGf8AF4E6Q4PJdkTjol0dgycyhH1atFXe2RDSRc0rFu5ftVCwYIt45DVP0Ng2BCXCBW22Xa6dYceZxhWU2Y1kSMZgi6RlpAYjUHXUhiSA03eqIgOqURKaDK6e31dQNpoWpu24roIcBBs8ot1B+fxmmttcsXu+fkzUmO5xSBJDw2KpBfjwVja87Xs93BgC63c6FxQE1GPrTici8bPrK2rHRrtRTaipnTRwyJrqIMNfdrrrXo8IZN/J9sZVVcXcbsg9nDHxbc6eXSXKswhLGE8UKrhSiZnU4UTFxQYa+gG1ZPKm9dTRckfGMFgDOuo4QdouvhVnpwQRZK1I97aNdDYREkK7GuXtpH1kyRkkudtOpSQixak9ogzPoM7cy0qUI8eug3a+r3R1NqtszRwwmdJMQYhOlGQAewm18wRiAQU0fhv+8Vuxff8A44/xZbadX/XK3bynOEpflTdDkuJZiiyUY5dWfbKFa7/jqQWk9mS5AkbbM25m0rioDqbSupoSwGlONFWUBSvTj5m0itpKmlGtQjxA0AF0z51tbrKgemE72mp4zfpWBzra3WVA9MJ3tNOdbW6yoHphO9ppjN+lYHOtrdZUD0wne00pjN+lKUxisAt/ulY+wG1/yLrrfrALf7pWPsBtf8i66YzfpSlMYpSlMYpSlMYpSlMYpSlMYpSlMYpSlMYpSlMZgFv90rH2A2v+Rddb9YBb/dKx9gNr/kXXW/TGKUpTGKUpTGKUpTGKUpTGKUpTGKUpTGKUpTGKUpTGKUpTGKUpTGKUpTGKUpTGKUpTGKwHL+zi32+1P1Sj1v1gOX9nFvt9qfqlHpjN+lKUxilKUxilKUxilKUxilKUxilKUxilKUxilKUxmA5f2cW+32p+qUet+sBy/s4t9vtT9Uo9b9MYpSlMYpSlMYpSlMYpSlMYpSlMYpSlMYpSlMYpSlMYpSlMYrAR/wBouv7fLfpZtVv1gI/7Rdf2+W/SzapjN+lKUxilKUxilKUxilKUxilKUxilKUxilKUxilKUxmAj/tF1/b5b9LNqt+sBH/aLr+3y36WbVb9MYpSlMYpSlMYpSlMYrALf7pWPsBtf8i6636wC3+6Vj7AbX/IuumM36UpTGKUpTGKUpTGKUpTGKUpTGKUpTGKUpTGKUpTGYBb/AHSsfYDa/wCRddb9YBb/AHSsfYDa/wCRddb9MYpSlMYpSlMYpSlMYpSlMYpSlMYpSlMYpSlMYpSlMYpSlMYpSlMYpSlMYpSlMYpSlMYrAcv7OLfb7U/VKPW/WA5f2cW+32p+qUemM36UpTGKUpTGKUpTGKUpTGKUpTGKUpTGKUpTGKUpTGYDl/Zxb7fan6pR636wHL+zi32+1P1Sj1v0xilKUxilKUxilKUxilKUxilKUxilKUxilKUxilKUxilKUxisBH/aLr+3y36WbVb9YCP+0XX9vlv0s2qYzfpSlMYpSlMYpSlMYpSlMYpSlMYpSlMYpSlMYpSlMZgI/wC0XX9vlv0s2q36wEf9ouv7fLfpZtVv0xilKUxilKUxmB5M6f5wgf00o+9dPJnT/OED+mlH3rrfpTGYHkzp/nCB/TSj711zofD3zae2bUwQHAcwYsRW1orxYxSl9WVpfxSludnA6XBO0t5qMwZOThmZmpjsnNlHbKdjsnGQgjKc5zqudc52+86mgJwABrptUARz/FNzI+4Btp/3FbsVMY+jndN+uRgB+WnkV3sVPo53TfrkYAflp5Fd7FVFQPktCuTKfJKnCjxFd5aIJif0AyTYaazyaB5qS5GB0snvhnnUp7t5tqhgVFNHCttiwnkzjeVgRwzSKrKJXXx1ZUvZZY9QLKOPkLS1JSezpQypdjhY8BNIwjuZTOSC5mqkF1xwECxtDRVRLQQE1POkdRFV1HkJIFOqCclFz4yooEiY6P2moMfmb/xfDEfmbv8AZgpmt+SI/Nn+wW9DKXp7/WDlEj2CwJJP4+nz+Pi+77PP/wDJ/WS+Nl9P/wAH9fNazF729Pkmu+LHrlTOvhX0c7pv1yMAPy08iu9ip9HO6b9cjAD8tPIrvYqvc4cKp5Q0fPGQCZEiWHOHDZkWwEsVKlgrhjBkwMJraGEAADZeKKLfdbYGHbdfdrpbprrUEOPdGwWaeG7Y3AF2bhyuI7zU01Ha0rl4qmhTEXFBYeB5hJQJGPkuOjsoCWKLrTjaWSM3Mq0qYtsDUQh7ksyWOjRkwiDmTGIWymk5koiAdsWtr69RzM+BZfelyaa58Faapq0QZrIY7AlPjwMz5CwyPETPldRUPtsj/wBwqpmHWDj9UqmGMkQmJx9HO6b9cjAD8tPIrvYqfRzum/XIwA/LTyK72KvDGLvt7Ur+fLZjktlcUYzqeZ3VNagU5w3kJjihL6j89luicmPHICJozZxk/eKMWLhkrF7ykU2cIlAwrzJ4mEP1y11000111100000+fXXX/TTTTT/2666//DTSrJAxWLiEhSZMEGyMwsyTIw0RZMdSJUkMMiJmQkh7ePMZCDCTJcEMmEDJhBRJjB+ekkMT5GD6z1mYjt4nx58TkAfRzum/XIwA/LTyK72Kn0c7pv1yMAPy08iu9irwiSd+Paaip4upjuXL5CWVViG7SD3WIvi6dJtj9mntBhS45R1SpDMXv2MW8ZTxgDFiuCru4mIjeTmLla0lYALdZ0qh+Z4kyCj1vyzB0ksqWozdRe8y3X1HzjS3U2VawEW4AyGVVkgyaK6miRmwQofJCCWHE84EMUOgAGQhAreLEnJmymJbXiRiXriTTEn56RLR8hEl1LrEl5LxPjz4nOsIVMBLShTmd/WpkwDGeqAJnQC8EfrFiyPrE9IMJLxBD5kz6Od0365GAH5aeRXexU+jndN+uRgB+WnkV3sVX/SuZ3IA+jndN+uRgB+WnkV3sVPo53TfrkYAflp5Fd7FV/0pjIA+jndN+uRgB+WnkV3sVPo53TfrkYAflp5Fd7FV/wBKYyAPo53TfrkYAflp5Fd7FT6Od0365GAH5aeRXexVf9KYzjq2XBukLmW02486ZRYCFB4ux0xbmcR567d+RBgJeCnmS8wWOC2LG1pukAXpIjRvxxHVRVy5wqlrhtewRCxFQdWxeeclF/Rzum/XIwA/LTyK72Kkc/xTcyPuAbaf9xW7FXzmT27hgHh1MvR8yBmN1tiYtGOiSSIymnjzkvL5ouyHGprCMjL5pUhqHpAQShc6poKqTtLGlUE+CIV01MlQQzJW8eBMWBLA2ABuOVpEiESawVMcS1jMxLDFKWtkRiShSmMmOgFMSgDIWGIlIKETaUDMisDatAEwojwAk5qkiRTEE1q1xMmYxP0f0c7pv1yMAPy08iu9ip9HO6b9cjAD8tPIrvYq/mxY3Vtv7NJ+q0UY7ZHt91Syip96ueid3NOR4alS9JCA0NGFVNjea2bHj2WkwmUuCOHj6MhHyhAkYKHDgwBU4VFG0Mu9zvCbBN6x9HWT8sr7GfEqILgc7BbLahKfJhVXAgtY2TIr6kGBCsXyHongphlQKWDWK15Aa+0bxwAQoNgolk2f4prQ3/HN0ZKnDP0m2Ire4irQXj3jCatlsyrvELrvOf1UyRgshbDyVMMirIjZlcwcVyI0rEXyPmEyTLFdYwzrMm9Ix5JoQX+H0c7pv1yMAPy08iu9ip9HO6b9cjAD8tPIrvYq/ixa3W9vrM5/qMS49ZJttzS2mEhFIeJHi1ZFhiVjKcAUEUDSikRrNjOjt7rxAknB6qR86hoSiWIJt4CgdFAJmS44tqyTJkdQ2xXNJ8tPpoxnHLMTRFh2vp9uFKarSbaWFeGFceWl9bNEkxOL6jCglwxDRkPQUyMCXC8McYMO43/CsHO/xKYqHra3/Gs0zJDDgM/AkqSEhhkTITIlET5ifACFpECyhhCfqIQmDIWeIn1kI+Zg/BDPSYgvBRPj8xkb/Rzum/XIwA/LTyK72Kn0c7pv1yMAPy08iu9iqeWnv67RjxdTfaadmKgIwjsVjKG13g/osniL4kcKmWEGCuLos4SVFjThtSsMXlxtE80UfYpRUtDuvTRzdmnhV1+LGSx0sXOEzABsmbACMlTRYUMcsZLDh2igGC44V14QwAwV9ggQod1wYgd1t9l11t2mus4WcqB8AcoYUiDoGfUZREFIgzx0IoGYKYgpmImJ8eJjOSYC2UEYw+A9spkohsLkyXDJXM94CWAa+8j17gQ+ewzEQP8ARzum/XIwA/LTyK72Kn0c7pv1yMAPy08iu9iq/wClQyWQB9HO6b9cjAD8tPIrvYqfRzum/XIwA/LTyK72Kr/pTGQB9HO6b9cjAD8tPIrvYqfRzum/XIwA/LTyK72Kr/pTGQB9HO6b9cjAD8tPIrvYqfRzum/XIwA/LTyK72Kr/pTGQB9HO6b9cjAD8tPIrvYqfRzum/XIwA/LTyK72Kr/AKUxkAfRzum/XIwA/LTyK72Kn0c7pv1yMAPy08iu9iq/6UxkAfRzum/XIwA/LTyK72Kn0c7pv1yMAPy08iu9iq/6UxkAfRzum/XIwA/LTyK72Kn0c7pv1yMAPy08iu9iq/6UxkAfRzum/XIwA/LTyK72Kn0c7pv1yMAPy08iu9iq/wClMZAH0c7pv1yMAPy08iu9ip9HO6b9cjAD8tPIrvYqv+lMZAH0c7pv1yMAPy08iu9iqdMpHBukQNGjZfA2UWAjusXMi8PoY0Sgtu/IhvXFBcjstoSx5Ac+p+/dIXtDAbJHlEN5ioehEC5zhIN7asWm3erWuFL7FVAG5Z+7rHP3/wDad/ym4b0xj6Od0365GAH5aeRXexU+jndN+uRgB+WnkV3sVX/SmMgD6Od0365GAH5aeRXexU+jndN+uRgB+WnkV3sVUjkPkbDOKUWqs0T28tGLHCOts9tG1sNvup2nhnA/3aisVnIiU12QhuV2rqovOpwpCUUIoaGomLLjVxwwGAnlThsv7bbdpdbbdp8+ml2ml2ml1t1l2mmunz6eFZfpbdbr/r/rbdppdbr/AKa6aa6a6Uj9hIx/YBcVcjj8iLwUh5oIo/EOBFqs4lzMGKrCGSMA1ckn9ZEZ/BGHsEZ/EkvuS/YMT+ZD2AYd48j3Ah89hmIgH6Od0365GAH5aeRXexU+jndN+uRgB+WnkV3sVX/SmMgD6Od0365GAH5aeRXexU+jndN+uRgB+WnkV3sVX/XiEM5HwxkIfmBNh556PQxAsuuaBpVGLt51JKc25aZpVLNutnFVdwIaSkug03rFlPLqyk0Tq8iE1EQdJGU7VQkeJlg/uZLD9mBXO0YD+xhVU+rVZZIY8kNddm7Srm6YhYPt1UkUMsKExfqAsL9QNwVhMvwBWGJsWF1xKfxLmV6lt4KiZYSathojIJYQzf8ARzum/XIwA/LTyK72Kn0c7pv1yMAPy08iu9iq/wClMZAH0c7pv1yMAPy08iu9ip9HO6b9cjAD8tPIrvYqv+vC3XkpCzJnmKMY3E8Bi05Ta1369o4YhBrPJdGVWhGIaXe9XKsryC3lNrMpFShVtJIFlB8rjbLLiufLorfEVFa7Uloj9mLUP7NbLYUuPyxsorutuhYR+xymrXsWW9Yn110OcfhajIU/gDZP4WuBlhz+AXBtWkJMp/UYNzVJGSmIJrFrjyZjEzp9HO6b9cjAD8tPIrvYqfRzum/XIwA/LTyK72KsfKTdjwKwzlwnA+QkyuJtS4cYiVJdrJZsDZFTQpFGOuLK230hdVzMJRNIqYhhqCs3VgsWJLJ4gp32FbDfkWhM2SMGMTHTeM218q5RLwhDeUjbMTGoW26osWyYypUgN/ua+8G4xYXaDTntiRmtvE5eVDHN2EmsSVzdxMoeN2galiJwUDqIm1MRWibEz7/EIj3TPytNFrxC+3n5nrYl/wD8LVmtnUxKI4+YrQU2ZivAikil8+qBGwtbq5F7OvgXpcpqZnxDVtWwJITGZ+z+jndN+uRgB+WnkV3sVPo53TfrkYAflp5Fd7FV/wBK5nc5Iz66NyTHxsRxIT5yMwgkxmKeU+FEQOpmtTBCeYwc59v5EZiwVj6rKLffSxuQyolICw2yUnjOdOFUY+c5I8aRwkwySCBO3nC3U/yZ0/zhA/ppR966h/cs/d1jn7/+07/lNw3q/wCmMwPJnT/OED+mlH3rp5M6f5wgf00o+9db9KYzA8mdP84QP6aUfeunkzp/nCB/TSj711v0pjMDyZ0/zhA/ppR966eTOn+cIH9NKPvXW/SmMwPJnT/OED+mlH3rp5M6f5wgf00o+9db9KYzA8mdP84QP6aUfeunkzp/nCB/TSj711v0pjMDyZ0/zhA/ppR966eTOn+cIH9NKPvXW/SmMwPJnT/OED+mlH3rp5M6f5wgf00o+9db9KYzA8mdP84QP6aUfeunkzp/nCB/TSj711v0pjMDyZ0/zhA/ppR966eTOn+cIH9NKPvXW/SmMwPJnT/OED+mlH3rrESi7k1PubQNVRLb7VsDQe69vnxLRBebjf10vCstcweoIegGoIeoV95i7UUMUbQW2wWwAH7qsBH/AGi6/t8t+lm1TGPJnT/OED+mlH3rp5M6f5wgf00o+9db9KYzA8mdP84QP6aUfeunkzp/nCB/TSj711v0pjMDyZ0/zhA/ppR966eTOn+cIH9NKPvXW/SmMwPJnT/OED+mlH3rp5M6f5wgf00o+9db9KYzA8mdP84QP6aUfeunkzp/nCB/TSj711v0pjMDyZ0/zhA/ppR966eTOn+cIH9NKPvXW/SmMwPJnT/OED+mlH3rp5M6f5wgf00o+9db9KYzA8mdP84QP6aUfeunkzp/nCB/TSj711v0pjPhUou5NT7m0DVUS2+1bA0Huvb58S0QXm439dLwrLXMHqCHoBqCHqFfeYu1FDFG0FtsFsAB2/JnT/OED+mlH3roj/tF1/b5b9LNqt+mMwPJnT/OED+mlH3rp5M6f5wgf00o+9db9KYzA8mdP84QP6aUfeulb9KYxSlKYxUARz/FNzI+4Btp/wBxW7FV/wBQBHP8U3Mj7gG2n/cVuxUxkT4fg341b0+5RjN4sAiycuYshLcPixPLgKJYsA5i2gkA5Fah+M8YmGlFXeSQzHOqjlNSw1miuStMWGhBLry3Obc8arsy2yQ3HslooMmT7n2ZceMcxICvsBUzpEHJVsSig5wTvcgWJ+oAI64diOOo6ixbA1FOCA6q+hY0AUK3j2n+iG7IvomKeXO15uMrqhagMaL5hk3E+elsRQ0KEAIjymj09agqS0AIYKgmU5qykwGsoB33iieSDKd5i0gfM2lPJvXtmWNVdYwDBmeYm8CHI+4LIEyZlzElntLzVhsvkq4j6myG+YsOFgBtE1CgoKNmeUTTAPgFE9JsK6BBWfOBZlq/WevRe1xrHacHp7DWa+3MD69dytTvVwGuapgQbSq/xxflcslbO1/UhNom2Pa2zpeddV5qLq/dr+U2tJsLtDzEMu8bACZy5vsmBibV3nHHo+5Ym3267knZ0gVsgr4m6fmMTLbPchTlBKsRV3Bl5EcYxXjeJqMEFe4nRmYI2o/YwydbdqOFceT0WQDTp1AEuusAAQzd49+lhcS6ox3mogZWIWyzi/CJM6jIDGx2nPboYppaNmAElEKJUdSvH6ctOVUPHx7QCRYxqmHl5XUlA14Nlwxs8eM666jDaxjh9q4pbnPbi2jHWt85hNrHMDMmTpqKq2ugJxTinDFTSUTBdfPJNlodw5Bb0yFjVWQrjHkJay5maGA0s8VLlzWnU75RyRJKm3q001SJlVFOUc18JSKgnni4JskeJG8g2gXNEzhUxYIAZKmQBBADBccO8EYG+8MSy6y663XfHoKxqNnrBldPlH8ifx7s9CyxEn9HE6HItD/plz4goMXo2+55jWuLn1OKVLgolYVmF5zgaqps9bfb9NjjfB+f6/bMVPrP/UVrU7ipv1hBR1+Zuu47xrY61hJ8+vYubMmDxSjH3R869u3K3BbI7FSIJpgLO2cciIseUZwXjjjU+WRkvI7lmNWQjoscOYBsRcrO0yzEyOXWXS5AUZOc17dbTFLtu5cNuIgZLE7RviNw1LyLjHa0278AFiST6bPGXkj4Vbe05SkkrB8ZZtRl9m23ZEK6S6QRwTNxtyIDBcjcEVLrxTCsQcZ0MOywU95aU6PZQ4C7Yy7Cr8VMg8ZsWWTHDQbau6FiUL47j6L1uKyyUUuODPtrysgJjdc8brqHoXsOEnS3HCjKhMYEO0I3rbfqEJwCFcGV0y7A+25ni/U6U5vmvBTI+L8zTwS2lq2suzVjhCUtyKxwHUrADKOimvuVdxoW0qSlBzHTxs66gEwdyqJ9SuVz509mRFHrdC/6v60+U/xe/k43IVOqLjgb3cptldg4haak6k+QByKb5Mq7DTrRAAlGs2MO2sG8a65Ves3A0/PqXGxREhsP9RX+PVLNCUz2lln17TV6aKJ1YTGr2dpAWic3d670/rIheFIox3i5mQtCTDbkbRfHyCnttps5sJ4RBLTEtMKAkwfD0t0uMKCgYDBtGVFhSGOK6yevHUlY8dPmTBkXxDGnBqAMRpFyUkKBUZaZAWU8go8qSJHRBXtAidFfyc3wUBXc0esEmTKJDOVHvqDotPo2T8eYci34kwYFDKEUwiS9og+dIiyTipmTdBcgtiToskBFKrzWeTTVCqolHyZkO28QuNeXEuETldMG1ET11DUbCqwgKxY4kLJEipEzRULyDHPNmCcrpGyMj6CVZafZLGF7IEaSBKSSlhHIbW5FVm/Y4lxjx7IpA8cR3m5o6LGE8hJaan6WXtBYVU1NO3CDmtPB2OG0OwvQ+HxtAqWR2MO7xdij/Ya6LUW4P/N80bONVDpbHri78MFMOlPnAiac6+pNf0TrSbUmjIQPz/RKHzT+X8dYsfL9nr9Xhvyfb5/2/wBOVvSlKz5qxSlKYxSlKYxSlKYyAI5/im5kfcA20/7it2KoVjn/AMSjkn/5R0H/ANzTqq6o5/im5kfcA20/7it2KuNs1YR4p5y/KIpuYWWcKNSb2gz9rKEHe2UN2XrARVHcl2Qz3RrlYreiqiUZ8ouS1E6TusFHEAuDH111C1EtDvs5WlkbzRSoAMvPKomGMJQwuf495lDjghU2ZNaZM1LkYFrBBRNSJy5dd6Fzpdv7CMB9nFZiQAWFLI5/xCVDIkxUQBtgAYfaSUsiYK2kEKP3PfQPxi6n5tsRrGp1HUdxUDPeAnVjIntIIFXlxnx2kuYFYyJdq2RSRrXAlwWHFaUqGZK1V9S7QV7E5IuVbRrUrUyn5md03wvj5vwbbMjT3L0XwhHpbC7M1JMvuXn+1I1ZpdVVVuPgkxMHdDzVkVECUFEWy8MgSEPWmTgll1hcMS63XTT4Tb5gKENnXcgk/CQzD8bNOMs3RXZL+A2TALIbKe/jfJupNal7BB/SgGnBOtwXx0YCAkKFSDiVj1qkzTB5PGUz6+XSkor63mTHjAk/f121WrJTGZ8htgTCjNM8I3Hy2UV2oIh0msx9cUOXo6+SUE+80VuvvuLGLi+owGt92oV9ut2vzx1/kWcVmucmOx2vN946WxMDTuv/AIt3el2umhEF5U/Vnx4kvaRSu5dc3Z1ffqbevdY7sSM1b+LUQP8AXUOG6auCmyybFNP8lazca3bQ0ggYTsl75bhqCuG01KKjbNW0Tdr1PPs4pRgrcky42xWvt8vthZHTRi5mjH+Q0u5JQIrp0iR3jzi+kobpClhjPWe2SKqMdLU57tKo7XSIhBdJtxO8ZHsUVBuApKaEp2+t5asojm9vPYu4dSoVIunGPEjF1Xz6fMUrFpkVrydOK9J48Pwnc80a4xanO1IjTk1bdyYjqZQyi8onzBdWLqpZREJFvH98yC8YsRsXk7LDFuNY0xw3DWnLsINzD55Y/M5vRxMMuSM4paZCMfg4whMENtH5yZDzZBpyp7vjF0FnW3bmzeqKAqHf4i+0b03Ld9J2De8ViVm7MY9jRxtywxWXsCZUlZXHFTY+haZUSQrZohg/IS8aPWJLYQpGMnHGxyCws+CmJygQ8tPHiBEJUULLdaCZZo1T+1cebcnN4OEJRPJLH8eVZ478kxEABnvl8QZqKjJbsE8vYi7XbLNjqVq7sYbNXZtZ6ZezimrTVhYyLh0Or5wFnkRXFyRtNZaHacoWy75Clc09a/r1I9un2Zu7lSPFMay9G7qh6TmO2HzFz3bZxoOphuRHJKTYW20fK6kzCQcSTAVxXUroB4OhfQMOy8mIGCOUvAHABEs85xQxoYWHWPMW4zRcsPtcjuHm7o1Gackl1DvN3At8E6bNp6WdcBguTuHIowJrRJQiIBQqRRkImnIycWLkCBYEP0uQJQjiKY9cksyW+mmw4xaCAYdLof7rXk1EaKE3SoGhkZZUl4+YATiyfoDdZcGYvMaWD6iBWAaiCCh23ecYr5IsjL3H+M8k40QZAb0ey4hiOlklJOaRpju1QawqgdKIblGbhwcyYLIjtTipd0NM9cNdYtNVXRloHSwBQDstLgvOxlfntJ66Np1n9vZH9lOq+2I/aD8Tt/hl37TH9h6fMRY8CkOtSD6ePNqaPnr5/wClb7fl/wDPTp8P1+r/AB+fh9/7fLlBUpSo5LFKUpjFKUpjFKUpjFKUpjFKUpjFKUpjFKUpjFKUpjFKUpjFQBuWfu6xz9//AGnf8puG9X/UAbln7usc/f8A9p3/ACm4b0xl/wBcinTuYS7Kjpeba23sJXRnUhRq5T7Mfc8LU3sPGTGLR5ops0nuRmRxKryRXs4plcLVUiZhLc5+NY2XmChq4V6OoPoBVDEJWfQ73k9PrGnapzRlyNFQ633wmRaWaSC6E8MYQ6zxZRd7Zi468y1xcMYwWGaCa8jjjCPggGBU0RMtUAy5i8toAJUWPTNx4wswyh1lNBystkY5QZCzOTkh8KSygpDTEaaagkhb30ruO24iiGjTwNGBnSsuDw7OcK4uHFW+8Y0pXXCUDMnF+yywNenripV56wvs+7bF9p02HtkhqVKFKumJVKPZtHbYG1dhUjQ7CrsLi7LjXqXWiw/antAAj9s/OGqnSxIVkJNZWLl1u5WINMmIopptW2lads6ljX8MXhk4/dzfObAjBmWMdXjjHIWK0zvbNfOaB3S6kKQk5vBY/NZra4siNiS2mAVa8rxfKEizIhOlHcJRPSgxVNgq6QfRiqu2TgYPUWX9w17DypI8BYNYmvnOKW4aNlEeZltNklgQTjlD7vOppdZLxu+J5f4ineqyhaknUxRVGFE8eyiuNIsrJdz7Cafldvg8xcMpzMSG1d6ve+bLOWNNHOnSJGWK6YqNNQAcipCWB0WLyUkLIzbNp5BwgDyfMJd0LCugLRUsrpV6QTQlawpci+LK/wCm1lhbPSLtyY/TLH+8HOkZMyZYy6VEnGkCF8CXI0yMkTOCPKs1uBckOW8ZXa+VQZOeay4i66sP52HVJHDSbko3ckkEYulJ1qZI6Phgf166+v1nJ9vKJgFt2fOAtt0BGF87LacVeHcXp0t7V6yVfa61C1WmCy3afUYeHlIti+6xdv8AG9STBmTTr+KMUW+6/GKkWXL5VyWyGmbP+O5rrjLTwKaqKreh2JG5W/pue+U2PWReJa5iTl9iux0mVF+GFGYWpMzCfsWO8mvCsR+MGa2S3U0ooJayebxlPXyR9jkFdpjnSBcwRUVSxXS0intvzLYvndhnj5l2WZIMbhzsxbHlcwwHbY+7GmY0VlRHNIlztDbzTtWxiRpLGDMGdW4j3hmNBSwhIMQC7W6TsAcYI5VXHLOfKdmbKWdzmymiZqwyiTi/GXEkepQMVQ86pJLFyMcIsQRNEbUUW2uulwKymWd+jcUiDsKJqO4m8tKyCpllE/xy24JTl2Ytr7Bra1xqcyswZukqOpkP5Pzg1NSA5zEXEVIyQlpjL7oJqIxsUuBPM5nk5XjGBSycGaNJ50s+ZZDsT02OC45u6IYU2qnprFuDHQ16lRZ2qtMbBN5u7ZN72hfcBadHrtDseSONdpWssUdu/VInXmlLqwEZYuyVli9Ol12bVowRYsmqzR48ymALRKEmadsrkev01dZqfsvv01K21mwNbC7Mn915laRruAZJIMbWrmIGCrbd6aQyC5/glAMkZxjlJPHZDjaHGuC0VAkeY7ZcNyBGQMxCvAyRccpqK01240FIg1zy+Z9bf+4Q3ISxyxvk+aoqeZDIjJ9vs4KLsLoiMgy1NjxlNyNIk7l2MWVedIR+QVisdp5kwZkGS3UVYbAZiQQHWnWrIJYcgEbgXcVhyNbUva32ZoKaaaz4hmOcGm434wUa0wMmJGG+D5ZKmF8pKqKMKOdF56P8nFbaHWVoyaOONUV1gdRMqCkbOGNfo8bzibkFv07hLxfAAOqtgPjhi/jhALeOqF4lyEi5Doa5NswSOmtwTS0snKbsPgNVl6OUoGIbNNlvhJN5kEqYEKXxqrGxPpBzWK97FFelC0Wm6zi2sA93vqVb2WKoDyfku7pcXVUk9pHFrGksPItyNLdfQeTVpKxKgU5NFd5lMWFZQqzyTe0tPpdTZs9UNYzjtGpc3lxywpFv6+2QC41I2tdNH6Pzp+XkSz1jVGuau2Gv40RXlfL6VA8XzA0ctonyLU0KUnMlrCy1G3KEaMVooplsBqCehqIysvth2vtsIepM5dqtKAAIJgzREv7hr2HlSR4CwaxNfOcUtw0bKI8zLabJLAgnHKH3edTS6yXjd8Ty/wARTvVZQtSTqYoqjCiePZRXGkWVku59hNPyu3wfQMgM8IoaEd56psPur6Q54whx6dcqyMzG01HY4iLNcg0bOt7R61VxxlETVlGHgtBt61TMR+VcozwTkIYorraMlpCkQPmORO1lhbPSLtyY/TLH+8HOkZMyZYy6VEnGkCF8CXI0yMkTOCPKs1uBckOW8ZXa+VQZOeay4i66sP52HVJHDSbko3ckkEYulJ1CpJq70tkk19YmjeK+v1L+pXIfujTKObBPSdWqPHOSWLNysivLQdp68TBIuW7VzBgSSSSFr9o6zRRQLuyKTNNFY9xZTKRB30uje8br06FxtiBZO0ukw1/Nrh6Y4Mbh73yWmWfcVMk8WHBhvltjwks17ueKTUqtGdmS7omkYdVKsiSo8ltmJLcIrxA8aRjRZbRlJrISo3DRlOImrTClywRRZ9whGByb3PdyXOJRFCMsHHzRp7asBqo13zEy5SJLQZXyoWCgwuvk+pdSl90N1vCKJXXQMS1gjlRhxNStwYPiICrFWFOLOcm9eFmfI2d70e2LRFjRvMslsuJI9b6mnxC6ZEb8Us+PkOH4oiFrKjYkGa3mnlS7sCbqmUdxTRHcLbWFhDUyp9Q81fjefO1l8nVaULt/U8LlxOUdNeG0y28xfe6XHmRna6b7XiY0PC/MaUF1ruSSHYpFjgmlw+iezC/zW2hl7bbJOOymbluvVQzc6vVq1FGjXKylNrl3L9hstPpFVJuHNmHN43St6XfpccV17flsHR666KRqKUt3zU3WmL1e32/1vvPisYV+N8V1+m3O/O2aIWtY0eUX9Rs9WwIgz0misjsrEOlw3qa2UQRcg17Pjc6WArx784spHC3YXPj6X3XaYqYt3HIVhvUn43TTUsXXlJKerjMhgaWlzYp4A5p4et+gmv8AB8pNjyOHJtXTFIy+mJpaZIXdUOvHGCQC5Mlo/wBhToemmOkNpCx6uiCFlJGU3KaO2ICtyacC0MJBkwYNBC6J4IpfqjjJDEe4SYiwrBhZXRW3H2OcMNFmKLmWTxJERQSzNbhUu4nYtqZ4UsRIWKaiApOBXPnBwQbRzpkyYFt+e+6uU5tft3kMuIWVY0uUj+2Bg3JpWaD8vXElVMbGbeYTGPqCdG7dh4ycLFyz8x1x8Uw1F2OeUSFxtoSLJFqIgMu5eQEUd16abVSuWw1mm19l7qOjbx+vG2QRJtVdFxt9Cszkkv6wFXbWkUSuUDMQG7ya3XrABssyGU0rrgr297aqLGzsi2V8dRbGHIsX9t7WVuLuWXT7NZUXbr6rYJEZmvxinacaRq1SWPdRoaLtrSa9rpvtFc2jdRNHELaEGBaIu6JhbRXvtABGMAg23qHlF2gQRgcMPTXwLBhbdNL7voqUrj2+5znSC1S5rG+tIQtS/Ycn0UuPwCw89QCPwIxAx+Iyusn5q1ev7GO9CFJ9ri7tb6liHsac/wDZh9exl/8AsUzP/nIA3LP3dY5+/wD7Tv8AlNw3q/6gDcs/d1jn7/8AtO/5TcN6v+qsvxSlKYxSlKYxSlKYxSlKYxSlKYxSlKYxSlKYxSlKYxSlKYxWAj/tF1/b5b9LNqt+sBH/AGi6/t8t+lm1TGb9KUpjFKUpjFKUpjFKUpjFKUpjFKUpjFKUpjFKUpjMBH/aLr+3y36WbVb9YCP+0XX9vlv0s2q36YxSlKYxSlKYxSsDmo1urSB6HTvZqc1Gt1aQPQ6d7NTGb9QBHP8AFNzI+4Btp/3FbsVXBzUa3VpA9Dp3s1clHBh9iTkdukZRAZDYt46TyAycBNvAVmAzPCUaSiE0RXPkRukWOUVsBvhsrliCI4bG23rFy9K0KXK1qCi2n9TGiWR0AYzoNlNipAOasIO/HHJ2PCspQy+xUAdzs40uulr3HjDXcKW6kE0VcbIXG07EY0nrqMnnLDSIupxgYMIUiZEGTzZwqY9pbLcRGc3G+0W0nhJLcaqIlNxvpQF4wgKYiIZAumJSeCIYEGMXhEyBUAsHeOMKNdYHpcKJffrddrDfmndrLhp4Aepvjr8Oaead2suGngB6m+Ovw5oH+MXgv/GFlqrFkQ/QbD0KJCHPEfENalBklTGQRrURLAoCZiR/vKZP95rg5deT/aULsGplgEzPmVA9iEm4Q6i00qI4IlhMezMjDjGmOMmJizEZMVJKDklPzXabMluUAFZzmVB3NpkFSBNuJt6GeXDTURdSxdKSg1A63EFIUF7VJShF82qCJpG8D/fK/ETHrN+HlGA8nmCNJMUKq823OdbJd5P1hGL15oKgS03FIByxq6Gc7CYyWqAAmwrCS6XBGvDtsNBDhfPZr4l5p3ay4aeAHqb46/DmnmndrLhp4Aepvjr8OahK1ymtXkAmvTlc1ESIymrKbZX1TWV46IlV4iuLlQj0tkVgfDpk5l2KGPdBFDrQyFlvmfZYAqgUJF7PPZozRWulIskomosK0x6REInRF2B9pVJcSA5lPFIWRTbZP2KiOjTfPmTmQDIAULPm0tNGo5nGZ5Cj9UE8DTUG7lVsnbbywo5W+24uYHCE6/EE8glECSUmESaclpxMunp6aQLAkyBAgTBsLFCJImXsDLlSZUuGGAXLABhggAh2BBWW2W226QZ5p3ay4aeAHqb46/DmnmndrLhp4Aepvjr8OaulrCV6CYcogpOEyZSqDmOsn65np2kf1kuvmY/Ez4yvoHshvQfbAeqG9Y9kL7Sfrg/HaA7zJ9Inr2mS8eZ854A/thLaSkd3u16LeHyEgH34bCPPVvxdKc7wrG7qNhh6B3jL0RQ7KTEipU1OW+HcqWG2aKGrimDg6pYcGOmxBumsRQ3E8Ax63ImhCN2VE0ZtErcTbbEj5tpTUa6OCILeOZuKJCMVKE7TR40IMdUj14d51TPjmD6gYMnDA44kk+ad2suGngB6m+Ovw5p5p3ay4aeAHqb46/DmuLIlIiqoiXViRmKy5kERIDAhMJGYXEiMQIzA/qMREeIjJMmXNh7p9ro7+HM/dsezr7PDC8nHfoHfxP7dB7eeseL/AKVAHmndrLhp4Aepvjr8Oaead2suGngB6m+Ovw5qOMv+lQB5p3ay4aeAHqb46/DmnmndrLhp4Aepvjr8OaYy/wClQB5p3ay4aeAHqb46/DmnmndrLhp4Aepvjr8OaYy/6VAHmndrLhp4Aepvjr8Oaead2suGngB6m+Ovw5pjEc/xTcyPuAbaf9xW7FVCp2MUHJOSjly+T2R5PkS74jQ4JcUh85XeLyjFTbc5t4orV5pDr4jGKeROQ6aUeXCLZLOMx43yM2sDkLAytnJtg7ZO22c3JMr2Kc2+cIDTJbmEG3y7G8zjOKEDDtVCdT0nnc2R3i5kZvCsG5IS3A7EhhMVLcyyRJgKK8nMtpkVQyaLNxHCJ2/5p3ay4aeAHqb46/Dmg/qxbR/Vqvd6mD+GL+is+nY9Zx+we+nZs1XdZj21rD0H2U1glwogwNRxBqZKZYsoggOa9hNyvJhPkSlFutXtJkomVWEJeHVqgIfcsmcSce8w2e1mNkTH1r8QmLIjSltjGCboejEdDJktinLzzUerNfUcuNovhqr6QOKPYGdQXEn3miZk0nntDRA0YLC+JZc7YWEudTzjyQ8nomcL6e8Ut9eazAc7cm+fohVm+gOg0SOr6daZheUY91Ug1MynkxBxVjRQMaWg+KCGDCEFsv8A8vNO7WXDTwA9TfHX4c0807tZcNPAD1N8dfhzUegfrHQfAWm3QjrH6XX01659sfx+tp2vUqg2xHhrKal1TMkAIROSKZmZIpma66kzMzMzVVbK+qtPmfzXXeM7i0z/AIwtmVgRhxSc/H467O+23ivKJSboexgQApiTA7QkGUZPfMrz+/WppaEIBbey3VPr9k1aZI9pcY0WtMtM4jGNCx5RL6C6AqR8MxecnRbGs1MNyxbMDAZsoxs8SNqY62FIDbSHc0HEQsMgHAiyy3l0oeS1AMudKlTxXykqJcVPFSp0vqEaLgi2R55p3ay4aeAHqb46/DmnmndrLhp4Aepvjr8Oam4isJGvYKX1wEwFDplqRA58mAqPsAicxEmMDEFMeZicgEQpsvXELeUrknB+jZlMQKplg+DmVDECuZnyERED4iMndl7A+0Ww3I2HKlYdIa5zLU71lqNGR5XnyXYpQFK64W/QymQvKsqvOIi3ibhxrioNjI8nKaiX+ShA+FrXYIuXAKgAlSoIRYsWCDLly5cOwEAAAGy0MEEEEO20MIIIO22wMOy22yyy22223S3TTSoF807tZcNPAD1N8dfhzTzTu1lw08APU3x1+HNTlrZWCZYyUrmZWqTKVrkv+0gEz1GS/wDMjETP/nEiMslsjEtIYCWTESyQgiOAk5/aRgzM4GZ8QRkXjyUzN/0qAPNO7WXDTwA9TfHX4c0807tZcNPAD1N8dfhzVedy/wClQB5p3ay4aeAHqb46/DmnmndrLhp4Aepvjr8OaYy/6VAHmndrLhp4Aepvjr8Oaead2suGngB6m+Ovw5pjL/pUAead2suGngB6m+Ovw5p5p3ay4aeAHqb46/DmmMv+lQB5p3ay4aeAHqb46/DmnmndrLhp4Aepvjr8OaYy/wClQB5p3ay4aeAHqb46/DmnmndrLhp4Aepvjr8OaYy/6VAHmndrLhp4Aepvjr8Oaead2suGngB6m+Ovw5pjL/pUAead2suGngB6m+Ovw5p5p3ay4aeAHqb46/DmmMv+lQB5p3ay4aeAHqb46/DmnmndrLhp4Aepvjr8OaYy/wClQB5p3ay4aeAHqb46/DmnmndrLhp4Aepvjr8OaYy/6gDcs/d1jn7/APtO/wCU3DenmndrLhp4Aepvjr8OaiDcG2ydttlwMwVhnbfOEDTVzmb+2S0zio2cUIGQVE01X7uSYoMV9NkyeS2CVMjt96MlxuFnOxGFFuTnG1V1ZbywWOJCoeJjsZ2ukGP2PK7GdsZyY00B9x6/W8qtN6Mx1JZRabjnba4TFT1dFWko8GMUPJ6gTHFLmC44d1t9l+vzfNdppdpzagjZH2usa3kgPyI8UkRLcLPVh3AxbHfJM0yu245cgx42p2ueMmTLMkvdlxo6SSieNHUlzMNvt5dRTIuoyQoEr7A9bfVvNO7WXDTwA9TfHX4c0807tZcNPAD1N8dfhzXIERJhjECbVwppxEQTFDDYFbCj8msYe+IApkYhzYiPDD7SIiJfpIiJMERwopmV9zERMukzI9jEAEi8eSERiZmBiIpOB8coUxlhRo46Qgwk5kwuxklSQ20xvLlpyEyqYsqKirrAJ9Tdymvry8KrqaupnVQ44FVUOqJg8ZvOGBvGa1zob+wTtCth2HXYk4VsvQJSc2rxPR6pPyZF2CTTi1vJCaHxccl2R1KAdQw9U4jYAn6RromlwCwRcAmGBpqHrQnmndrLhp4Aepvjr8Oaead2suGngB6m+Ovw5qZERWCtkRFbMgI7RTM2CJbosAROmfYRBYGHhMlMi6IbEwcQWc7FKiryUyg5OST5n1FLAJbJJf8A0mWLIlnMjMkBEJeRmYm8yCcnpSeSSUsiTTUpNJlk5OTCBUAmnkE8mBYWKESRIvYGWKkypYMMuWKgBhgAAB2BBWWh2226SziXgvihgs3pAa+KcOIsRo8qSAqyjINhBadrmUXQ9lgMMI2pn1x7uBzLlhIAIPxaQ3iiiWbSBYOctQkhO0PHdB/MvNO7WXDTwA9TfHX4c0807tZcNPAD1N8dfhzXImYax0TMOak6zWxPhra7H17TK7Gf9jSyzUq2TUUys31q7iGWJWQw6j61p6j6lNW9SvEetT1IsVlOWH/UGrrWrVdbBiDBFmwoZhbmCVIGccIYOZFpuWJxm6m5/RYiPwQjPsy4nWYDR4sVXYA91ZuJTRFXb2MmmlZylSZ1VcxJsgO1SLESCSdXR0YiUTwZUyl2ldvjM2VUuc8g8ewXFMiS39GoHJzIk6ZoSeym3LPFaF0dzOGDZFjhRd5IkGCGXTQnWOs8mFLdSafqWKXXg3bfmndrLhp4Aepvjr8Oaead2suGngB6m+Ovw5quVhI1hkAkaRvZTGRiRqMtNuPtMrR48IOy7YX3PNUATm3rjGSR2XSdsMYJvYLDE7IKXZODKDsLQmvWQt5RPloJr06ldQMkhWmrXUEQtChGi4Ixjx7xhiwpCWP0OR/E0UlNDmtzIZzcIJqOpmVICwsrKbh08WIac62sghh2La84zCotLXg6XKp85dp4Vc8G/sE7QrYdh12JOFbL0CUnNq8T0eqT8mRdgk04tbyQmh8XHJdkdSgHUMPVOI2AJ+ka6JpcAsEXAJhgaah60J5p3ay4aeAHqb46/DmnmndrLhp4Aepvjr8Oaskil/0yUzZiEjFiZmXwNcwagfbP+TwhiwYmO3hRgBh1IYmIR+qCrD+tYiYRV4/CCJwkDSJUf45JoGYsmRmTEyEvMFMT71PmKeP+T0YIkLTfHRN4xS3XZHz2S2EWW3Qz25YuxYtEHEwgzpFjrjatVm+31lLTTobOVrjzQUNU8mArIR8sWBBs+EzGwLxXz7aLHYuV0dLEkteN3yUktkpyRKkvxWMhPxPTjyUnOcFUh5/MFXNqSYRUz4SZcoHzYScIbGNEggDV3j9PgPNO7WXDTwA9TfHX4c0807tZcNPAD1N8dfhzUCADEgMRMCuDsSEhghLYBFOBvkMxMTcGNfQgbUx74ijTiDiKyenVkSiE1TKjCp8AGuZAho+bU/EJD4kanm9dn54mE+blqen+4b38Ga+w5tQNldTHAaxQLyMOkGwj6ejT1NOROSDLBOA+FpYYEj6f5cktiGhPmv1tv1NtwfxtnzWC6X2W26adaElISkBLTkNCTE9FRUciVTElHSSRZNS0tNIg2FiSenJ5MIEoRIky4YYBUoWBCALgh2BBB2WW226Qh5p3ay4aeAHqb46/DmnmndrLhp4Aepvjr8OatlrJWKZYcqEpMVSZSsTKPEmIeesFMfiSiPMx+JnIdA7+zoPs6yHs6x36TMFIdvHbrMxEyPnxMxE+PMRl/wBKgDzTu1lw08APU3x1+HNPNO7WXDTwA9TfHX4c1DJY3LP3dY5+/wD7Tv8AlNw3q/64e5wbeGAEKxXEMlw3gzh5EsjN3PvazCb7/jPGaFWG9kMJf3M8SG0uhI7qazJSl1MDWm4sK6ArWEj4FqkiKiilHNBiJ4yAL2j5qNbq0geh072amM36Vgc1Gt1aQPQ6d7NTmo1urSB6HTvZqYzfpWBzUa3VpA9Dp3s1OajW6tIHodO9mpjN+lYHNRrdWkD0OnezU5qNbq0geh072amM36Vgc1Gt1aQPQ6d7NTmo1urSB6HTvZqYzfpWBzUa3VpA9Dp3s1OajW6tIHodO9mpjN+lYHNRrdWkD0OnezU5qNbq0geh072amM36Vgc1Gt1aQPQ6d7NTmo1urSB6HTvZqYzfpWBzUa3VpA9Dp3s1OajW6tIHodO9mpjN+lYHNRrdWkD0OnezU5qNbq0geh072amM36wEf9ouv7fLfpZtU5qNbq0geh072asRKbLbEPuawRvoglhdbACAsvSiF1oIVzcb4+oQVtxfXQMPUcYYbWyzS23UUUUTXTwxL9dWM+6pWBzUa3VpA9Dp3s1OajW6tIHodO9mpjN+lYHNRrdWkD0OnezU5qNbq0geh072amM36Vgc1Gt1aQPQ6d7NTmo1urSB6HTvZqYzfpWBzUa3VpA9Dp3s1OajW6tIHodO9mpjN+lYHNRrdWkD0OnezU5qNbq0geh072amM36Vgc1Gt1aQPQ6d7NTmo1urSB6HTvZqYzfpWBzUa3VpA9Dp3s1OajW6tIHodO9mpjN+lYHNRrdWkD0OnezU5qNbq0geh072amMI/wC0XX9vlv0s2q36+FSmy2xD7msEb6IJYXWwAgLL0ohdaCFc3G+PqEFbcX10DD1HGGG1ss0tt1FFFE108MS/XXb5qNbq0geh072amM36Vgc1Gt1aQPQ6d7NTmo1urSB6HTvZqYzfpWBzUa3VpA9Dp3s1KYzfpSlMYqAI5/im5kfcA20/7it2Kr/qAI5/im5kfcA20/7it2KmMv8ApSlMYpSlMYpSlMYpSlMYpSlMYpSlMYpSlMZ8FKcnsSFI1fsvye5E1oR1GTRcD6e7oVzAZZOQmw2EwyrrKkaGFutt0sLESg19gemuog4ngAA23iiWWXcmNobcbyF3A13NS2eoWbMDlYQlyOUuJGEUTnERkdPieXIrR5fYts13rTnXCF0n80XM3RnMnoCQ1CTfVjCggjpN5pPEMXaOQ2lm4jmalYTp2nl+KeGrhjKd83VCz5zSDLM02DhvjHPEM1b8wqUroqCOQR8gJ4QVEM5bolFYfbB0mGA8TwgXy+2b/ER31/vd46/2ixpXNbHufsGvnst3G9jc1aP+vqXr+T8Q15bVsee5Hsi2l2rQUxaYTraUbVDb9PkdQ6cdhMpXRSqOrVchoVdkz/t2m9xrlGxXrQn8CPyDRpXLpBLxZatposmpc015Da8jn+KbmR9wDbT/ALit2Kr/AKgCOf4puZH3ANtP+4rdiq/67ksUpSmMUpSmMUpSmMUpSmMUpSmMUpSmMUpSmMUpSmMUpSmMUpSmMUpSmMV+ebH3JrezzLBnOSsflfa5YENsfKnJSAo+SZoh7K1cklQb8ESw4o3KrzoUGJkQUbIqkqaod95m5PTkoEUwEMZBSyJYcuBb+hmvzu4ybZO6rCsGqEUtXcniXFO4CX8iJQTi0HYpMjIe95K8zzK+ZQIrspPHIIs2/KgCxN0pSObY0dx+wDKZyQcsBlBfCPkhEfPBSN6SYt7Uf02whYqIRWvYTtOPlXe2CYv2ENAdslSRhrJmwTYVIpNqrGTEUghZLF87enLBJZG1tAdTyAnqUcAYJEr8aojY0krkgUuXR7IBnaLGgtlOVi8qDmMs4/rs06LSxcdUMaG1IrTi+9u3ChaoARVHlJ2PR1hrQQHjrVgcVcEIji6hXEi5ezS+zX4TOnMBn4LYzP7It3NlffxhuitxssOMWlqHa7JVlR/uJNZcaRs3LxQjFgCi7ngtJSYIf1KHuSU68+r8nqGhDUkPPG2Pl1NeQSNklBOVKQziWV2EU5m4DmdxxqSU02NpTJHm2jvmM5fZ6QrXjnW0C/WQukTiw0xzpy5GWiZ0wWuJpimnJZCKt/17SO1hdqBLi5jI8nPBe3TIVMtKO3GrWN9suuQ27HcrKMYgO1euTlm9IZ6S+hEVwOg+UR1NUJJCSYUEMpeuE0262+1BPZploaXp3l3h9Wvb16Qh56rlFzTVq+xoovIERvM1ezC9VTs6kSF0lhs6XaLFbKqpApW1c9Xhmnq8ps2Kl50wodjxyttX2NdcsVnzEVB2OuOi+xStEsasG2jZlcJdP3KxkRvrQgnNKfJvxXwumOEj7sa5aTMXcRDOQzqzKi9jPZxJaJottp3OEVQjGcXPFpJW0W362m8wGURXwUpUDbThJJQVzhAt7cqu0uxzje7T59NLs/tpy7TS626y7TTXdNw2108Ky/S263X/AF/1tu00ut1/01001010rm/lcZ3e9vWI3dng4c744zJjmFStshZE4gK+I8cwg0jcSl1AgI/TGPspM1eWpUbbkYbcvVVRvFpXcklE1+wnoZWTgYhTVHWL6z2dyLIGIUFv1tijjt175sbP7uQBzJe8oZGRXJucYWLKWKYKi/8AWlhxCJ0C8UuJ/wBMETW4O/8A6VutXCQtrNFYJGKFyEtUPuO1RVcQJ0a1iw1jZv1XTT2DqGzZYv2bDh2dN+xf/WhVoZgkgeqGza82apMS5sVwq3iqtGLbqyFwLqlmt9tNWwqtVWUCnaxqKqydYsXOk1KUqrNWKUpTGKUpTGKUpTGKUpTGeST5NrDxshCW8gpQOHCEdQtHbuk56mk4p5epWNtloZ1eVbEwj4wHQ6pDlSIhdPKXDgWGDgoAN44Nl9wtnGpqZBb9kyxci5UxXAG28yoqebWSpTj/ABLlZ3ZGqWTq3HKmggOJKb7im5s6JUQM+WHUnDBapaMJFy012+oHSKW5HEFrapHU/vhXJTPfI3dDjI+821iFgUiyxHQTYKDF8kEub46dcitkc4imzDkVG3hq8VOE7pQVWcZtstRm50kmuaeBu0IMgSNXiWJZrBbYyuFl6zYVliVJ1YlKl0adoBvOs2r52etCVPiKQRZ276+s1661iG+1mwWdbSkIcVceq4Uljm3oKWk62ppU69VNcK/m75rkdtrU65Vm9bl6DWK1UGhZ/wDTW7vDIe1okbnxKP3wpIDgbSSQRILL6g2SCenlYf8AZDBaB+UBCmhMFWAmzUViHXPqnXEwSRUy5QkowHYGlizjJ+R++9jlFjqyzmCCNt+QIVjZvrUoSli9DLqyNJ5NNyLEYC9YXCTRmd16nohkKRmY2QjaotJ18Zs9BcI6YokWwpDGNUuxUtfaNQMY2rt442t7EOQFqUYVTGwt6Fn26yJlHfDikA+7nArS8oSA2zxcoeaT8GlQ+8BHY0jRUC9tLFxlHC0EKlC440I7pE+7iosc5ExEcwyUYtweXER5siXM4IclFg5MTW2scVhNsSJBkVv4iHD8JOhvKurOUHEJeroDsm5wMAqXFdIMWvO9P0Tq2bz/AGVzbxQNK7Pe1GpK+ba3H6NdUpBZXXXJWApbZfDrVzZ2/p/qEpjWVqdituLezp1UrtDr2WF22URseu2iutbuQXgsvZCFDVpkz/6jXpIhM1tYn5g3T7EWrT6rtbXp2llFuWNiKcX8ZJvx+YB3ISQM6nVDsfYcRoMr6sRPfzqnBuXvRtqz6dA6at3sZlNZilVZ4PNUtSVY4UKJVyYXK6DG9DxSPJXzL3ccAmyhZJZ/x9t+SliEnuhjNyeTmHImRrVmPH5GfroTGoHJ4ZWYlB1NmYWIylRZTg3WWTSseOgcoLaqpyTYT8v0SeweKhCEUnGTHxIxpWE5wY8o8MRokQitpKheqp6rFaUz0hPYp4uoi2BDm9DDcLp4goxkEA1cNqJoaLgGNBQbPz9bkc1Zay2zgob3GsRDGFm2IvSzHhbIrJKJJcY+Wx5xMZDk9LV2i1pILIhmInxjPG8gOJFaJB/yYjxXPxVvoyuab6mdZ4B4V1lNtlderyNlNI2BVY5OCUhtRKsilx5V3X1H666JisFbEwO+w2e3+6tvsoo6StFyhH05KJm/VVbduYaK9Iqbn9TK7Ny1s2pt2zv6yBIheuFrrJpLNc6hDFnZ29r5NgPydf8AcmFDMY4RoODfoICNn3tNChCW/wDu3hibpeG19l9v/s/0utu0u0//AC1roHXPXcdEJC4zxYKmilx04XPTaVETxygtg5QYlfuj4aXFRSo4V14YxcQDUO8EUO++wQPW2+y663XTXXoVWc46mQ+CHqRR1OPBx4mY8FH/AIKP+Cj/AMT5yaCMkpJhKJhKWTCRMykjkIkiTJeSlUlMyuZnzIeJn84pSlRy3FKUpjFKUpjFKUpjFKUpjFKUpjFKUpjFKUpjFKUpjFYCP+0XX9vlv0s2q36wEf8AaLr+3y36WbVMZv0pSmMUpSmMUpSmMUpSmMUpSmMUpSmMUpSmMUpSmMwEf9ouv7fLfpZtVv1gI/7Rdf2+W/SzarfpjFKUpjFKUpjFKwOWFHqov/iWt7y05YUeqi/+Ja3vLTGb9QBHP8U3Mj7gG2n/AHFbsVXBywo9VF/8S1veWuZjwc0/w3n/ADtMTWwlyLyHj6V8PMMY0S1qGHvhojit15QpNWfbpdyW50rIDLKClWwM0iTwxTaGoN0k4k85dotFjhpOMp4YRpjOqVKgDpkZFcJ3P/tG2su8sp0yMiuE7n/2jbWXeWUxl/0qAOmRkVwnc/8AtG2su8sp0yMiuE7n/wBo21l3llMZf9KgDpkZFcJ3P/tG2su8sp0yMiuE7n/2jbWXeWUxl/0qAOmRkVwnc/8AtG2su8sp0yMiuE7n/wBo21l3llMZf9KgDpkZFcJ3P/tG2su8sp0yMiuE7n/2jbWXeWUxl/0qAOmRkVwnc/8AtG2su8sp0yMiuE7n/wBo21l3llMZf9KgDpkZFcJ3P/tG2su8sp0yMiuE7n/2jbWXeWUxktX7HsFJ7vlN3MPMPc+hzWYpYf8ANj2a0K55S7FrHNyLJi6O4XcvFmo0hU5MBNKB0YMHUyKGYPXESZAqYOGLCgOtsdbXO2M64P3D9w+UXVMG46E12BkTGAsPqUwZAzKejzKZuKeNzcILrtlLV0AAIOTV7PXlNQaqO6D46xa0Bm8koYBoscQArA+tXTIyK4Tuf/aNtZd5ZTpkZFcJ3P8A7RtrLvLK7RmdewSreABWnLT11eIkayYt6d6GKkoIhmtX1EUVL8+uK9lkePK1+OW4+1cg6ZImbT+0sMn8lZYdTb1rC3f8dotN2x3HMnyZ2EAUzPc5xHP8U3Mj7gG2n/cVuxVf9cWWjNGVqJm1kHP5rawzfFaUmYsYdQ8iIxaTtsa51EHHBst50PR0qayUG3FQUUFvqyZkMzyrZMJ68pKhpRRXYGsJCIUKIZ1wVP0yMiuE7n/2jbWXeWVzO5f9KgDpkZFcJ3P/ALRtrLvLKdMjIrhO5/8AaNtZd5ZTGX/SoA6ZGRXCdz/7RtrLvLKdMjIrhO5/9o21l3llMZf9KgDpkZFcJ3P/ALRtrLvLKdMjIrhO5/8AaNtZd5ZTGX/SoA6ZGRXCdz/7RtrLvLKdMjIrhO5/9o21l3llMZf9KgDpkZFcJ3P/ALRtrLvLKdMjIrhO5/8AaNtZd5ZTGX/SoA6ZGRXCdz/7RtrLvLKdMjIrhO5/9o21l3llMZf9KgDpkZFcJ3P/ALRtrLvLKdMjIrhO5/8AaNtZd5ZTGX/SoA6ZGRXCdz/7RtrLvLKdMjIrhO5/9o21l3llMZf9KgDpkZFcJ3P/ALRtrLvLKdMjIrhO5/8AaNtZd5ZTGX/SoA6ZGRXCdz/7RtrLvLKdMjIrhO5/9o21l3llMZf9KgDpkZFcJ3P/ALRtrLvLKdMjIrhO5/8AaNtZd5ZTGXubBFMFDJcA2MQHHLjAgni9hYQwTFFDusDNgBnADRQQYvfdoMFYaLGC119lto4AoWtwd3AeJtyfNXFJqKcD7hGBOeeR2RDCcLpIIWQmEGLqdM8GZLMYw61jSPXilKTAW2+24edw7cuS092MySCTCLpQ5YJfvNFiymdJIvQHpkZFcJ3P/tG2su8sp0yMiuE7n/2jbWXeWVV0ZD4YLfCTVKbCCATgvBQabFZhftVtJn2r7RDKtlFhgXKllyNdYoSKRJYLkfBLshYBgT1MohTVMqu/Ew2o6GA0g/Vyn10MrWECVpdmZcBo4yEx5jTP3PPK6IHYQnfKyUnbk4exTh4UhLsmMWLImixJZEMwSgWoyra3pDnJUZzJt1NlW0slkFbeDlTkQkKm3gjhl97cDhuXs7sIoHnTGyP3IwspoTkKAs8scIfyCTQ4yeQMjMEG1xG4Gl1LMKZgkw3a62S43XGa8QVVrVFbT1PFLllbJJyYOtFPfOmRkVwnc/8AtG2su8sp0yMiuE7n/wBo21l3llWHEyuqKSKqzVjxmNK9PUj1h8UFUaxwjZGwu6wDo6lxxeCwtp68osLsLuWQLsEMzZlywsDsT5BO3SyWAnYp5JLI2NSYrsQ2nXNVvZ1xim5LlovRCHIZUrsHlhlfmJlDuUYyvnA7Hzbozvx8mjJtsaxBMUqZWwaYijHjHGPHIcJoU1OmyW1ByE0mZ1Qo0zDiJRqlRVasmXeZMElsYAgXB5FPdIc7GYlxzhzAceod5gRFYmaOzyzEgQ5foKbES2vuaYVIifeaE00t0EMXlCINw9+luml4ut12mmmmvzV9d0yMiuE7n/2jbWXeWVLGYs0ZWzlErRZbW2sM30lTRMp8F5hNGnNJ22MVThW5jzm1j5P7wTCwiPuKrZu5wLTSjNbRmmXGJApZt1H0YouK7fRRlBeTZrKFqsgICJ3bKbNtg9/3+VTVUaihIjldHX/VsG1FtN9qH7S+di5YA6661BARtQRtNiaSrKaK2Cr2Li6VU79my5SkxYu3vg1y7BrVVorTrqkUtdTcewff7TUqAOmRkVwnc/8AtG2su8sp0yMiuE7n/wBo21l3llRyzL/pUAdMjIrhO5/9o21l3llOmRkVwnc/+0bay7yymMv+lQB0yMiuE7n/ANo21l3llOmRkVwnc/8AtG2su8spjL/pUAdMjIrhO5/9o21l3llOmRkVwnc/+0bay7yymMv+lQB0yMiuE7n/ANo21l3llOmRkVwnc/8AtG2su8spjPfsrW3Pzvxvmpu4rSKnRPkgox44rYSf6yhN1yIiBJBYleba2q4jutEcqAOiKamXAR1cwfQFfROTlAypF080bKAA38sW5u9z2hslKZks7RO51ZlqSR0lCcDBjnH1LeUAuCSRU4kEbOtTKtLfBuFU+LDS0MZGudjqciSrIaMVOXm22cPBJpRZtDpkZFcJ3P8A7RtrLvLKdMjIrhO5/wDaNtZd5ZVULKDsf5WQq0NUGDHT21/lK1PsoNMGBWbZG1IWpamylsV6hQkGIkztlgStAyhctrtsMBsk4YcFkasGi2tbQGwtRU1lVKJW6t77wrbA2z68+IPxS3JsRtqXQlA51hp2fh7IF3Zmv2EADTNVo2eF8qTwoS/KeISa83SQVW22g1ZgrJ1glH+170coSexW483XSlpJ7V3abUrbqU6S5E76heDtpXcw6UUgNF1x6gNWb8eEeMcfWi7llHU0S5fkDJlwPUeE1GOEkcW1StUGm4nIoOogKRJFUYkMbVLkO7emRkVwnc/+0bay7yynTIyK4Tuf/aNtZd5ZXLNdFtFmg5QxqbKlVf69Zuj5KFfWUtKjV0bjWuuI1oavX1q3ztdYaDBZfrWK2xu7O3flWsMqnXtKLztEW7F5myMQ73Llm+3astW6SgTrisTs7Ny17K1Wr3C18TRZr6Wqq6+MbYKz226sDduVhYmBh5Hn8Oikfs/LvH5uWMsms5JxMYZCigyBfDztk0AkdRHbGr0UCj6jlDAcjG53pSRzeVjGgGoDXUPAc0cup53N8YpOwQxd24s+o4f+TzWsi59SxmljqLjZBePrBdCgmJ8gPRyPB6OE1ZIrmbaCOrCNpqw4VfRtXViOqilqd4QKNoudTOmRkVwnc/8AtG2su8sp0yMiuE7n/wBo21l3llaLkxsrGxZswC9X2uws7G7UPuoW/YtK7OthyTBy9PYlJG2so12wK1dmpsKsvGVZ6kf11bWJ10zTsaqiihVuj1ayIqMc2neOu4WUmbKsT5gXsrHXeFeim5Usoq+pnyWdrSLsHDqBGITOGVEoys0tnppFVA7eJecPF25ua4VI4Bw3eMMYFvMmgiVo494pgcS4W+/W8YW7XW+7pZXHXJ6UsnckGTGEXJe2vmHGemmYeAMlrb9kyR9uvVktZmwVnVjpOb8VFgGNM9JJfZsQNlRyvhpKe2WO4FBRWxE4hoVBAMjHS3WvlhR6qL/4lre8tWWHttPfasHLH2XNe5kwMSxrjJjDmBgRiSMiKYEYGPPiIiPxlVdCqtdFWuHrRWSpCV9iLopICtYdjkjLqAiPYiIp8eSmZ8zm/SsDlhR6qL/4lre8tOWFHqov/iWt7y1Tl2b9KwOWFHqov/iWt7y05YUeqi/+Ja3vLTGb9KwOWFHqov8A4lre8tOWFHqov/iWt7y0xm/SsDlhR6qL/wCJa3vLTlhR6qL/AOJa3vLTGb9KwOWFHqov/iWt7y05YUeqi/8AiWt7y0xm/SsDlhR6qL/4lre8tOWFHqov/iWt7y0xm/SsDlhR6qL/AOJa3vLTlhR6qL/4lre8tMZv0rA5YUeqi/8AiWt7y05YUeqi/wDiWt7y0xm/SsDlhR6qL/4lre8tOWFHqov/AIlre8tMZv1gI/7Rdf2+W/Szapywo9VF/wDEtb3lrESlU/afc11rZWxNRFsC++yww29Li92jcb4egQuojgDsuEusDsH01AvGC8UMFpqLoPoMCExn3VKwOWFHqov/AIlre8tOWFHqov8A4lre8tMZv0rA5YUeqi/+Ja3vLTlhR6qL/wCJa3vLTGb9KwOWFHqov/iWt7y05YUeqi/+Ja3vLTGb9KwOWFHqov8A4lre8tOWFHqov/iWt7y0xm/SsDlhR6qL/wCJa3vLTlhR6qL/AOJa3vLTGb9KwOWFHqov/iWt7y05YUeqi/8AiWt7y0xm/SsDlhR6qL/4lre8tOWFHqov/iWt7y0xm/SsDlhR6qL/AOJa3vLTlhR6qL/4lre8tMYR/wBouv7fLfpZtVv18KlKp+0+5rrWytiaiLYF99lhht6XF7tG43w9AhdRHAHZcJdYHYPpqBeMF4oYLTUXQfQYELb5YUeqi/8AiWt7y0xm/SsDlhR6qL/4lre8tOWFHqov/iWt7y0xm/SsDlhR6qL/AOJa3vLSmM36UpTGKwC3+6Vj7AbX/Iuut+sAt/ulY+wG1/yLrpjN+lKUxilKUxilKUxilKUxilKUxilKUxilKUxilKUxmAW/3SsfYDa/5F11v1gFv90rH2A2v+Rddb9MYpSlMYpSlMYpSlMYpSlMYpSlMYpSlMYpSlMYpSlMYpSlMYpSlMYpSlMYpSlMYpSlMYrAcv7OLfb7U/VKPW/WA5f2cW+32p+qUemM36UpTGKUpTGKUpTGKUpTGKUpTGKUpTGKUpTGKUpTGYDl/Zxb7fan6pR636wHL+zi32+1P1Sj1v0xilKUxilKUxilKUxilKUxilKUxilKUxilKUxilKUxilKUxisBH/aLr+3y36WbVb9YCP8AtF1/b5b9LNqmM36UpTGKUpTGKUpTGKUpTGKUpTGKUpTGKUpTGKUpTGYCP+0XX9vlv0s2q36wEf8AaLr+3y36WbVb9MYpSlMYpSlMZ//Z;" vertex="1" parent="1">
          <mxGeometry x="-31.88" y="470" width="473.77" height="130" as="geometry" />
        </mxCell>
        <mxCell id="mvXqKcknuPtsK_GKtYUi-83" value="" style="shape=image;verticalLabelPosition=bottom;labelBackgroundColor=default;verticalAlign=top;aspect=fixed;imageAspect=0;image=data:image/png,/9j/4AAQSkZJRgABAQAAAQABAAD/2wBDAAEBAQEBAQEBAQEBAQEBAQEBAQEBAQEBAQEBAQEBAQEBAQEBAQEBAQEBAQEBAQEBAQEBAQEBAQEBAQEBAQEBAQH/2wBDAQEBAQEBAQEBAQEBAQEBAQEBAQEBAQEBAQEBAQEBAQEBAQEBAQEBAQEBAQEBAQEBAQEBAQEBAQEBAQEBAQEBAQH/wAARCACfA5UDASIAAhEBAxEB/8QAHgABAQEAAwEBAQEBAAAAAAAAAAgFBgcJCgQDAgH/xABREAAABgEDAQQHAwoCBQoFBQADBAUGBwgAAQIJWRQYl9kWGVWWmNbXChMVERIXNjlWdXi1uJS2NTiVudQaIyQmOlh3qLfYISIlQnY0QXmHmf/EABoBAQADAQEBAAAAAAAAAAAAAAACAwQBBQb/xAAvEQACAgIBBAIBAwQCAwEBAAACAwEEAAUGERITFBUiIQcjMRYkQUIyMyVDURdS/9oADAMBAAIRAxEAPwD7+MZgdmdPthA92lH5rx2Z0+2ED3aUfmvGM38ZgdmdPthA92lH5rx2Z0+2ED3aUfmvGMOv9VnL/AFj+nGc384K5i7k2txwajqqIIBoiKuowYTfPgiiBaEDGomwIbe5jGwITds/Lt2C7wBtoe7XTfuCE0012btvszp9sIHu0o/NeMZv4zA7M6fbCB7tKPzXjszp9sIHu0o/NeMZv4zA7M6fbCB7tKPzXjszp9sIHu0o/NeMZv4zA7M6fbCB7tKPzXjszp9sIHu0o/NeMZv4zA7M6fbCB7tKPzXjszp9sIHu0o/NeMZv4zA7M6fbCB7tKPzXjszp9sIHu0o/NeMZv4zA7M6fbCB7tKPzXjszp9sIHu0o/NeMZv4zA7M6fbCB7tKPzXjszp9sIHu0o/NeMZv5gOv9VnL/AABY/pxnHZnT7YQPdpR+a8xHMXcm1uODUdVRBANERV1GDCb58EUQLQgY1E2BDb3MY2BCbtn5duwXeANtD3a6b9wQmmmuzcxnOsZgdmdPthA92lH5rx2Z0+2ED3aUfmvGM38ZgdmdPthA92lH5rx2Z0+2ED3aUfmvGM38ZgdmdPthA92lH5rx2Z0+2ED3aUfmvGM38ZgdmdPthA92lH5rx2Z0+2ED3aUfmvGM38ZgdmdPthA92lH5rx2Z0+2ED3aUfmvGM38ZgdmdPthA92lH5rx2Z0+2ED3aUfmvGM38ZgdmdPthA92lH5rx2Z0+2ED3aUfmvGM38ZgdmdPthA92lH5rx2Z0+2ED3aUfmvGM38ZgdmdPthA92lH5rx2Z0+2ED3aUfmvGM38ZgdmdPthA92lH5rx2Z0+2ED3aUfmvGM38ZgdmdPthA92lH5rx2Z0+2ED3aUfmvGM38ZgdmdPthA92lH5rx2Z0+2ED3aUfmvGM38ZgdmdPthA92lH5rx2Z0+2ED3aUfmvGM38ZgdmdPthA92lH5rx2Z0+2ED3aUfmvGM38wEf/AEi6/wCPlv8AKzax2Z0+2ED3aUfmvMRKLuTU+5tA1VE279q2BoPu3t8+JtEF9HG/rpvC2bXMHqCHoBqCHqFv3mN2ooYo2gu3YLsABYznWMwOzOn2wge7Sj8147M6fbCB7tKPzXjGb+MwOzOn2wge7Sj8147M6fbCB7tKPzXjGb+MwOzOn2wge7Sj8147M6fbCB7tKPzXjGb+MwOzOn2wge7Sj8147M6fbCB7tKPzXjGb+MwOzOn2wge7Sj8147M6fbCB7tKPzXjGb+MwOzOn2wge7Sj8147M6fbCB7tKPzXjGb+MwOzOn2wge7Sj8147M6fbCB7tKPzXjGb+MwOzOn2wge7Sj8147M6fbCB7tKPzXjGb+MwOzOn2wge7Sj8147M6fbCB7tKPzXjGb+MwOzOn2wge7Sj8147M6fbCB7tKPzXjGb+MwOzOn2wge7Sj8147M6fbCB7tKPzXjGb+MwOzOn2wge7Sj8147M6fbCB7tKPzXjGb+MwOzOn2wge7Sj8147M6fbCB7tKPzXjGb+MwOzOn2wge7Sj8147M6fbCB7tKPzXjGb+MwOzOn2wge7Sj8147M6fbCB7tKPzXjGb+MwOzOn2wge7Sj8147M6fbCB7tKPzXjGb+MwOzOn2wge7Sj8147M6fbCB7tKPzXjGb+MwOzOn2wge7Sj8147M6fbCB7tKPzXjGb+MwOzOn2wge7Sj8147M6fbCB7tKPzXjGDP60o/8Acv9Ramb+cFMF3J6SJWmqqiaj6ojg1DE0b5/QLaFofbOg2zeDq5t28QQTfuA3BC7Rw9oW0MXZvCG1G2by+32Z0+2ED3aUfmvGM38ZgdmdPthA92lH5rx2Z0+2ED3aUfmvGM38ZgdmdPthA92lH5rx2Z0+2ED3aUfmvGM38ZgdmdPthA92lH5rx2Z0+2ED3aUfmvGM38ZgdmdPthA92lH5rx2Z0+2ED3aUfmvGM38ZgdmdPthA92lH5rx2Z0+2ED3aUfmvGM38ZgdmdPthA92lH5rx2Z0+2ED3aUfmvGM38ZgdmdPthA92lH5rx2Z0+2ED3aUfmvGM38ZgdmdPthA92lH5rx2Z0+2ED3aUfmvGM38ZgdmdPthA92lH5rx2Z0+2ED3aUfmvGM38wGp+qza/gCP/Ti2OzOn2wge7Sj815iNku5Nzcb+oCqiBgaoiVqCGK3z4woYWpADUPYKNscxfYKJt2fk27xdgAO0Tdprv2hB6a6bNrGc6xmB2Z0+2ED3aUfmvHZnT7YQPdpR+a8YzfxmB2Z0+2ED3aUfmvGMZv4xjGMYxjGMwHX+qzl/gCx/TjOdd2Cn+I6swzINg54dvoJEEVoWrlfju/AXM5/wJF2nCpDU7+AM1GcLnVPyGzpYLsyMiqJv/nfvNAPu9gm/Z2I6/1Wcv8AAFj+nGc8kvtBH7GXkF/8DRf83NbPL3l1us0u42SBWb9fq9hdSDoIlE2pUc9YtEDWZLI1xBwDAKRmYExnpMb9VVXe2mtpNIxVcv06rSXIwwV2LC0mS5ITGDgTmRkgIYLpMiUdYn0hrnYqHLZwowLE1+eHp/DkopZpaYrw9H3S1fxxMJKyihGjPo+9URtulM+6VUo+V+5WERPMb+z/AH4YW8sKCMJ3XnzscN1mIXp39ndqVZKwbxKsSJYshF1rrqXzAI5wxrtEmJ9p6Wjo6YU2CHVlwuFYOEENvopEIQ4qrCgTJAbfzhvzts7oX2i638rR+q2TrhwWW4mCmJHadUE+dTUrITVejibKVvNBq7mbULJcWPg450tNEJmthg803u4EgHUod0Nq5QQkZDD+g3Cquu3O81ymlNfT3rVd1h8xC6lZdmwmu3Y3IBdSpLVoI+95VwPsMwGAGeng6exYv6TR7N4LF+5pVmpro6y61aOim5aVrqPe27aFENjuFAWCXBqBhybA7/oMt/dGtNCocMz/AGxkn9FMSFHGhNIw7PQ5/Pn7twuXeZDRE/8AAY2arxc2/tu8mY07XsRtxEt93+U2ZA037Nd3lJ/yo7go/wC/N/5Zrh/+33LHpjcGjPNXVBOl5nsRuSzF4Tv3oryiGwEctJxq0cSc3U8qd3JLpaS3sdbX3LJNJcBRRRHEhnVZNOpSxpvTlTQfcpEyvyvcwFXKysn7RVwxxezK6QS0Y0f36MPTuO2xEUfoLFev586PApv9LWklN4ogOP8APKhBFt34wnnPzi4YYOv5Q9m3bpjCvdXyDTaG2K1t5Dvqmo15iEwNVVvVMvqs2ThrQtrbNV7kPq9inVLNSVwyBJ7trbNP4LcbysTGq0OlubS8uSHusNp7IaTa1eJACrsXD1Kauz3MXZRZE+3qK1/UrUbme41b2rMmN+qlkf0pq8PR2oSvIxT9D0+Mf0dYCUaLkj6/2iR4taBVX+4NGgAvwpCGU1oX8/8APBThA9u/ftkT/lR3BR/35v8AyzXD/wDb7npM9Kt1lguGbBuSEa6QTDjiVoJk9EVV6K4ij+PVpTRd7VUj+9IUFRpN5IPHUveeJEzu4gZHEKbjZQqY1C1GLhb9nyn/AGQWplVp744Z4cc6Vnr9NDhBuC+WyCvSzDMcyMtBNsKGYROBN4NUeDbWDwaGGbVVQ0Gk7R9CGwwpHx9pfQU4Y3CSpjN+5u66eiw0PGtRubEt+x2bOy5He05rTIdIUgK865giYmyHLulLCByFIk/rUrat7p8ny2+2OsV4x7fWq0dJT2ImwSIvPYOx7ozImhcpZVCAE0NbY+rWpHIvRu9xE6bqTZ6KZsOJRMRSWWq21/VPkNBSgzuiboruGMnKXQ5Eb6OOe3bCxNXWmwRTTwggehM0PoIHrutPPgw+0VUciviMfNPeXPjiaLcq0/2dYRJjuSY7igtvZEbvTesN5ddqJvKspujpzfbyEuIDKebBkhrN9OT288W25imw4nFzJU+Or/SbyDczFfOPeusCS872g+pZlS1RBu7a31yjMpobkGUF1wpDeU9pUMYwALsRkVMHdTdTFBT1T1RXHU1tLTUBtLyoa7Ds4t1WzQK4kbCn1t3HHr1BnSy9eytAuzp4qlWCPcDc0nA+opKisKNbk2gS6PEPCTbRdr1H+Fq72odvKFtcTXWdClYbT2ntA9hDVnWWVdHPY/12qaLFl2rZMewWM+ciPOeuSI9sxA9auTjjglbjiO2oPgIVeJLWZrZE/wAbuxzGVNMRy7deC80mozQmEp6qi0hpp4kLqvKTeNOBAMuxPb6EqBLeyj4X5fTT55eZ54lpYrfuhh2xwwD8lRDL2svBvRNnltgk2o4k7VOZesaNPc1D59kuNQcY5YB3vDYmGmg6UMyNuMJ241umpZubWSrtM7i90deRMPGRceR7O6rE6ShKr9Cv1c3WuYvYEsTJVZkAfSsnLBVhxSULqnrBdPYcz49zb9DWW1BAydjXW70xUXs64t1w2JFLLQGUDPtRkYj8hFQC90SnHmNLv5lwT7O3P8pEPoDJ+771pbG6ade5W9P9jK3ReH+RAJmT/YBHrsU9fu+y6E9Tu8MtvjDkO5d9tKrhUZo7GVfe8vO90XXon728UljbG4kSMQVyJTcLSSvFi8bSSeWkYbX01VdwO4s3iwSVHbnNblfXaVF7P1Ufv/B5bn2ROPjfReKR5uPwiLI4V6Nyq0dJUJp2yJldwatENI1h3e7txLciEhGjqb2zGEB+FGt+38K1KbdyaJVWmLR69qp8lW7f5HrA7RkWWbvHeP7HbX0V2MkQV8cVZVq25qzTarVbutpHOyYokWW5ioFwHFCbNepoL8wceQU1N9vqOqossKWUNn5HzNrUxAhZXdYpbOystYJ+f3yxnhBfrm8ArJa5u0FqNUGUuQm7Cg3CD1d8PRo7CEdtqMGipFyh8kdf0jn2s9wUJSHR1BLXtwBpshoKcjLKEaXnOjiriUWN8l41OaVvXommbqlzbVyXKO3Gr0j7XLI8JyqpEnQg6tvcOUC3qTXkYujtLcrbypZSSFoQNVZzeJq7ZXEpzs1SdiF+KnkmVYZthLK/QwitfuCUzC4bU1ZyvZWq8skPZr0Tghtur+VaJBnkIYWfbKzBU5GLAkHcdBcyIk0VM2sAWtXZJUGNVl8WqKmuzKjsCxcqEoMZn26zAdf6rOX+ALH9OM5812n2hqWLCP8AnIhxfcW03chkJVzVTCDJdgEuZWnBjaVFdPANnTxWJ2042K81uUTAqcT3nkVDSRSD1WS5hLHDaJYouIRpT9QOPbkwr/ynVMcNgYHCcbe3oojjYkmxo9y5Qm9oyf6agAqJ5vLYZEybInyRgiok1FBXk8bcTV04fT7wFOViisjpiuJWUm9MSQLqVNgYlHjcOvvnC6V/129liaNpkitFyFTWYZgAtkmBBQeQ1nxWdPa2XtqfXqxQ3UAxrqLLC+9Cr61Kc06LGDbFSXMlPYphD6YYxjOZLGMYxjGMYxjGMYxjGMYxjGMYxjGMYxjGMYxjGMYxjGMYxjGMYxjGMYxjGMYxjGMYxjGYCP8A6Rdf8fLf5WbWb+YCP/pF1/x8t/lZtYxm/jGMYxjGMYxjGMYxjGMYxjGMYxjGMYxjGMYxjGMYxjGMYxjGMYxjGMYxjGMYxjGMYxjGMYxjGMYxjGMYxjGMYxjGMYxjGMYzAM/rSj/wBy/1FqZv5gGf1pR/4A5f6i1M38YxjGMYxjGMYxjGMYxjGMYxjGMYxjGMYxjGMYxjGMYxjGMYxmA1P1WbX8AR/wCnFs38wGp+qza/gCP/AE4tjGb+MYxjGMYxjGMYxjGMYxjMB1/qs5f4Asf04znkl9oI/Yy8gv8A4Gi/5ua2etrr/VZy/wAAWP6cZzruwUARHaaGZBr5PDS9O4glRC1bT8aP485mx+Oou44VP6kvx9mrLec6X+U2SLC9pRlpON/8193oP93vE2b/AC95Sbs9LuNaglg/YavYUkm6SFQtt1HIWTSAGGKxNkScgsygYmRAp6RO/VWl0dprbrRMlU79O00VwMsJdewtxiuCIBk5EJgYIxGS6RJDHWY+GSy8YyTJP2MOrhiOySiqFY29DZNkZNTAdDBgWOECdZNTVlQGA27tBxE5uqy4guZWEADF7AmIxtVNbQiBA2ZA+lfje5EqEleKSrssaWPg9jxpDlWYjackkluQW4lnowccexsht5zsZxN88dAXSrkIq6MdTktD2pgh9z7txAZrl1kqrJQ530wgSssG1igVnVhhNgk2nBDBb6m1WvHqgruN7kCbdWlBUVFVIPKj+WHQ4V4mfOLSpvM7HArqm4QE3vJ67ux7AgNnmM6Ps53Co8JIElVYoPGoDpFUgVURPbjxmFmx5vNgb9RNu3WIWhI6FE3YhN+uuppL9Cfww7prrtOEx9uv5M93Y2Cfd5vNPtCny/kauRA60vy2NfYr07WtWB0gZFe4hlJ6zNE20EFoGdLLUnCx8CjS8Gs4euwXdsOLaB3H2pTMjTv1HlUukYWyjzVbKdlWOBsHRsg2i0QitXeojd47fY62c4zUbcjM+piKtt2CJrtCm7IWTjyYKio5ou1gnqor5tDSwhNUgHYnJzzaLcPiI+wUqAdRhUXtgm5F1AL8W5p/+0ycG3/9W/8Ar29M+y6Oo4j6IWO2YzipkNONo6ZiWCiNFisVvpTVaTZSC+7fvCTUNvohUklphPYIIIL9wTKhbNwwoo2/TcKKJv3S3NXHTTexFmYNuJMUO+mFja2/hf6FpF/SDKbf9DPwVfOuhM/6otZ7ojEcXZl1ROHv+tjYXfvvvuzGPvSYYRfZAJQjkHAr6Id8bw7Y8eJguOGX7Wu0HG3aAGD+IWd61PhsmprxWHe0JtMlYE3TZF1rR86ptJfyXMKO/wCwggxpV9hvN4rbys5IjcNOqEHWFwLa9vYtxp8jWyPe1iP9X+c//B2Tf8lLefG79j/tbVyDOOec2pNlk4Ch50nbjPVwE21KcxR3Hy+bQDUNwgQLLhZHdrjSFEdIMHktSJgKQRbeSGNpx4uGPuGKGNgf22OJASHY311rL5Tt6C5UZTQFsj9+ZK9tSFkkOnKRTtRIYscLdpJmRgfvyhgAyD+f94AMELt2b9vgz/yXHgo/7jP/AJmbh/8AuCzLQKxRvcjeMJJO949p9KMkRyxB63eWNyx0rgREgOfWUEQ3qUE+ShcguWarkLtU9KjuMG6rcbPZl9BlbgvapGtWoS7+4SGYc05kJiIFYj3d5Svw3+0K3SjDmJlKm3EJxzPZEso7XRYBGkuWpUiswVfMTMcsnIi8zEsTY9kAFUTXAjtJvvJ3P+Q3K3FPe2m2iJKQU3qisqKB8gg/h+0kRc9IG5DuEV6t6cxa0RBHyQ24VY1nXLHrdlZtwA+GC/Gxu0kdzs93Dk2g5BUxuqLVcR1McpoimGyDXUzwo20slm95f7AafcdNIaCIikh1BrZHEJ6LhYEk4HChET62/nKQLC7TBVOc8mO9QcUiOVMJmNupkkmrroUCJM1vFMlS4Q4wwm/t2xtYq+27i5WhazERMiaYwWhwTpppPpGBVCZVUKgmS5JeRDmmoSo23KnAHTgSY5m6eS19M2GzOhBSLffi/nyhSqJahuvJ1ixQ5cvl2wdYYeuLa2F0GaRFKCoMa3Xq1ukfYr66zWdNmLbJtvJjJKZ4wivTsE35AKVjjFji1Baa6rbNdWs3h3Fm0Y3uta+29t01W2q1hI1YqImqkA8zmH8e/JTx2yVYFLrHGXI79pxhhbJOmXUFw1mRDlCa5R0uLEiqSUdTkdyNxbhSdGk5treHJnuwbnOrqgbALLCk3ATaiC4FBsbR+/ftEbLUaSWt4s+aNqh6jHq6zS1K92YUkdIFDPuWI3eEtm9T50QM0ZNBFxGwbl9nhaHh1DcGefLfJ6HBd+wPYP7LVb4KOJmmUmJsyV5pixGvJyGMWNtt4u92yrMio0lImLqMUW2ZpNT9kMozXEWE111AcbXLJC6Ft11D2KG0P/5cvOzNY4LuNCT2rnZJglJOhqRQEou72YcWHI3tqntQ1tNcaQKAvs9ZbzoRzaetpCcoFjyItpp0MUtt2aGPuRBQxLTayrGosa6Vzc1XKEclBdiupFZhivX0LlZ7VRYfaZsdFXuae3ZcEKms6rCqKmUxacBWqyd6vsfN6Gw47b4646zSO2CLs2LBvSDfHXWunsip7GlTnvILNe0R3ZDYuWr5XuKgkjcpXPDfzlf0MaO2AamAJtUKdOPaCKYbS0o7m8oNReeTOVPvNgJop6KhvJ2fcCAi66FLApZ/80qMGWzj61/20Vo/yeGf7d3Pn1H06pHV2gUQ7oIqNFRSIYr3uhZeo7aLud7vMc26HAEQLqywfckiOZ3Oo+YMFktOKB7Dq4OXJkyRYoRBLFgdgWnGx+PeoBi6JTkMGiL8+4JBnbmAUl70+k/b900t7dNNTck+gGx67YvE/KgHDJDt4jK3qen3natDmh3YGZ2dGEVrHEgqy4qHGtbtarCsQv3rdvc8Q5VrthdbKuinvuco5NY2L3HKjKkbGdpWFhWZmeNm4jkTLMVwvbvY6Wwsa/kilVo6Pk/G7tGmry971rRx7jy64LknxOyMv3RQ0nr+Xujz/a1YvtVHKUhWheLdjNw2LixNMwCtyCeLNdJkFFUD0QrrZQWe4HEGkElM/wCiiGZSCyenjDfiKmyXClkRVE0hjbt3tBu5Ta6X2kq/XHFUA5Ir8nGI65SqAdmprorWWa9elC2yyjZSk1ryajvRRGUXEnvZ4hNvsJtupgZldajw0TTJ1OQd6kPXt0+L+g/IeC39LjVoZEyKbVA2km47BzzrY8go6XsNDntEElJMauFmv8NtbjxkyeEbOrk3IAp0yYNipu8wOKJv5tTugtOqAshUj2n0BMiEG4vmSZxyjIG1XWXU7TKbsMhpQrxf7uVHC/HfqkBnj+xH2uZyquxI2qChtTdpXQ8b0G84aQWeN0uNbEz9PWcU2vFqx1J6vthZZbjWX7Lnfis6kF+w60lSrC7rVKSM1QYbg9KbBVd9c3+uESt7PkWt5DaC719eo1CaQbCtWUnqVlVoteldQnNrlVXYebYtMWsS+GL7OFG92JBqNMUeVu5qWlx6qEOTe9jssVadVHq1TQ7G6ZMojaLmJUWnjMTrbryDRFjcjmW2ZLDEfwRtqTOUCOpoI1uMBbfdfgLp1C1dgOR+WoS5O485Hts8SJ+SYlGN4hTIjQmHM7RNSgrudYLJjcld+tNRT36M/DJtGU2kgobOUUZHIGmWqK7d0K7CnojZzgc4krhykrTVP9L2O5ZQcJgwecztaDzluHTbsVTg/aTq67iUMSDHyS7HIeH/ACinnI4iCmvHd27dqaURfzt2mt0RPW2BKoQSdhqt0SMWFowQ0VeNEWcwEEmhJgikZSfuTy2q7y+zti84lMMoV/FnIuGlFeVt5cERSUTQge3fp7S7pnB2bECq+3RU9M0ExNxZ+H4iLRBdvmdpFGwWpS9euUmPXcukKbYVqK0H5raagH1KxGyj8y/bDL4CqwYJt6zVCa9AVIZdQ+8a2bE2RNmt7YWKrXbKw5dGYxjMWasYxjGMYxjGMYxjGMYxjGMYxjGMYxjGMYxjGMYxjGMYxjGMYxjGMYxjGMYxjGMYxjGMZgI/+kXX/Hy3+Vm1m/mAj/6Rdf8AHy3+Vm1jGb+MYxjGMYxjGMYxjGMYxjGMYxjGMYxjGMYxjGMYxjGMYxjGMYxjGMYxjGMYxjGMYxjGMYxjGMYxjGMYxjGMYxjGMYxjGMYxjMAz+tKP/AHL/UWpm/mAZ/WlH/gDl/qLUzfxjGMYxjGMYxjGMYxjGMYxjGMYxjGMYxjGMYxjGMYxjGMYxjGYDU/VZtfwBH/pxbN/MBqfqs2v4Aj/ANOLYxm/jGMYxjGMYzA9FGt+7SB/sdO/4bHoo1v3aQP9jp3/AA2b+MYzA9FGt+7SB/sdO/4bHoo1v3aQP9jp3/DZv4xjPOXlcbLbL8W/JOOA30QEcGglxRQRgkogGKEKHXeRd4YoQmwvt3hiB79um/Zv2a6btu7TTdt101001zb9U7xZdNOgHwb11+nOOWL9llyWfyAXI/t1kbL/AMYyAPVO8WXTToB8G9dfpzj1TvFl006AfBvXX6c5f+edHG7buSbhM607hkxEY6Gdg+9loKwtMJipq8mFVBgwo6U5Eaqu4di+5XOKbd6gUNiCOA+mjpKKaMbdm9Ob6UHpuC3dVEuc5AfliNbY2rOv4iKlbYanWNKJ/wAsi1u6IiH8yBNPr0XMTxswlKXn+Fv2KNWvp+Zm3Y1+22axmP8AATV0t4iP+IMVh06sjpseqd4sumnQD4N66/TnHqneLLpp0A+Deuv05y/8ZzO5AHqneLLpp0A+Deuv05x6p3iy6adAPg3rr9Ocv/Oj5C7yX6WYH/RR+g/9BX4q/O87+kL09/Sz+Ceh4/6MP0D+jf8A1P8AxX0+7N6efpB/6J6H/f8Ao9/9a+7xH5IR/junp3T+BH6yXUp/xH46df8A+piP853p9WF+P21Nb2/7H4lkzxrj/ZrO3xqD8d7CEesdesTh6p3iy6adAPg3rr9Oceqd4sumnQD4N66/TnL/AMYzmQB6p3iy6adAPg3rr9Oceqd4sumnQD4N66/TnL/yIuSWyj6p3Q61dooySWmuv+DYddEhNJHfZFYU2eorSICGIUKuJPb662Fo2libt+uhgFMcCQb36fk+7Oha/l11zXLSaNS1esSUIp1n2nyI9xQmuonMkRj8kUABdBj+Z6R/nL6tdluzXqJiJdaequqCntGWOYKwgi/1juKOs/4j85x31TvFl006AfBvXX6c49U7xZdNOgHwb11+nOT/AH9vbP8AXDjKj620LoMPH50kI3UFFIJUoIL1WImILFjn3GrNXDBtEaj4a7w3JiPo9zhpJDBd+80X1LFtTm9W/MFCM4uuz7Qg39dquYPcO0pFiW/YOaY6S27nQwrLpUPdoIZJpUgqr3mhLRVMcHZvAT9ymw1BO3Gxgd540TLBC79291dtexsK7h7J1m2t6S038muL9GrQuWlr8cG1oLRs6Zd4q6HLZFcEQFEYFWVWK9Gwjq35DV1NxWVHats0b1i7VrMZLiUlZG7X24kDbEgKu45GCDupr1TvFl006AfBvXX6c49U7xZdNOgHwb11+nOZtDuQRIuKem2Jn5EbtrPbmrTmQ2hZStb5VUxynmacdKYIsM16MN9ooRRHk6JH6lgGTzKfhBNRBlUsVEMG2+mkjiKcV/RHIGsghRTIGD0ItIapi3JfWsqB9d6HKI1OS5Ria2LMhKJ/nrExFwlBSwZEwYphpcpgktqXLLtYtgFEEJjP/wBjoQyJhJAQlMAeqd4sumnQD4N66/TnIg5NuMnjbYXG3yDPpi8fNIGW9mXSC17sZzxadUIGbjqabqbkDP5YbzmbLhR2CTV0FwISuTJqiMspZwqopaiVLHiJkAyAELt93sgDli/ZZcln8gFyP7dZGyGSx6p3iy6adAPg3rr9Oceqd4sumnQD4N66/TnL/wAYxkAeqd4sumnQD4N66/TnHqneLLpp0A+Deuv05yoNk9xIJPhisAbwB3zqViMtO5lhbUlf1MARQceJhgFHcKu6JXouGEZdxQ0jgJO5b0Xhd5Ywc2JW5PBEN7e38D9lraP2U3zeJo/lbfXsvpWPGcfU/Bcq2aju2Z8Vmu9B9rUsAU/VjFF+Gp8PlVP4Yr2KyLqPIE/YPPTtVrae6I8tawh4dymrMoA9U7xZdNOgHwb11+nOPVO8WXTToB8G9dfpzl/51BsnuJBJ8MVgDeAO+dSsRlp3MsLakr+pgCKDjxMMAo7hV3RK9FwwjLuKGkcBJ3Lei8LvLGDmxK3J4Ihvaj7MWofs13m8So/LG+vWfdseMI+x+CnVs23dsT4q1d7z7VJYYi+q2NL6qV4fK0vwtfsWUUq/kOegh57lqtUT3THls2EIDua1YFL/AKp3iy6adAPg3rr9Oceqd4sumnQD4N66/TnL/wAYxkAeqd4sumnQD4N66/TnHqneLLpp0A+Deuv05y/8YxkAeqd4sumnQD4N66/TnHqneLLpp0A+Deuv05y/8YxkAeqd4sumnQD4N66/TnHqneLLpp0A+Deuv05y/wDGMZAHqneLLpp0A+Deuv05x6p3iy6adAPg3rr9Ocv/ABjGQB6p3iy6adAPg3rr9Oceqd4sumnQD4N66/TnL/xjGQB6p3iy6adAPg3rr9Oceqd4sumnQD4N66/TnL/xjGQB6p3iy6adAPg3rr9Oceqd4sumnQD4N66/TnL/AMYxkAeqd4sumnQD4N66/TnHqneLLpp0A+Deuv05y/8AGMZAHqneLLpp0A+Deuv05x6p3iy6adAPg3rr9Ocv/GMZAHqneLLpp0A+Deuv05x6p3iy6adAPg3rr9Ocv/GMZAHqneLLpp0A+Deuv05yIKocZPG24555Nkdw8fNIF1IYV32C02KlrNUIGVE5ltU5xt8fL6ONlpkTzBHLNxvmns9Hi8TKMjhE04d1OxzOEUtuV15UOGvd7IApv/rFcsX8/wDHH+6y408Yx6p3iy6adAPg3rr9Oceqd4sumnQD4N66/TnMfj+t3JNrHLflGkNEY6MVqxfeXqtR8Iy01eTh1iPmA0I2cCMsPLcuOVxBqDxMnHiphKagiBN5EGLAENhVvEhQjAxr0XwP2RRsx/1bHV6nb1pn/lNPda2ptqJHH+jCp3UExc9ZWySCZmRmc6cSD7dcv+ylf2Guf0/MRZ1l2xr7UDP+wRYrNgD/AIMIEoiInpkAeqd4sumnQD4N66/TnHqneLLpp0A+Deuv05y/8YzmQB6p3iy6adAPg3rr9Oceqd4sumnQD4N66/TnKg2T3Egk+GKwBvAHfOpWIy07mWFtSV/UwBFBx4mGAUdwq7olei4YRl3FDSOAk7lvReF3ljBzYlbk8EQ3t89bcXStJuta2aBcfUbwm7LH7ob2WKmGVrPKr9IQHBURn3aKyWkGfQIxL7HxI0hSAvJ6/sbrWSV1qkiBNC3H1Zb2EjhgykV98lNMVLZYPYMtqpQkYIbBa8diewIGlIoFdAdRtPcaxoLrnr7aGFD1SrOl0WNsmEK4ojUK339YKv8AITQigLFxEsg707TWTUDsknhfqNXEqeDJ7q9U7xZdNOgHwb11+nOPVO8WXTToB8G9dfpzkyQ/cq/EJ2zhKo/JBElcVQvaktJO2vdn6YmpYKRfsekYtvY8VWJ5ljaYtFxwsFzLbVAVlRpOVMkNyIriNJwSQSTdDQywI3fZrL5D9pLxITS+HeMx6x0Ou9lawpgHAtU1L1GMg0AlipTbR5admrYdX3xDmoKCFqYWRCUfglOHuS9Jx1XYrs6GuHoNihsotU2EFupaQmAPVO8WXTToB8G9dfpzj1TvFl006AfBvXX6c5f+Mhk8gD1TvFl006AfBvXX6c49U7xZdNOgHwb11+nOX/jGMgD1TvFl006AfBvXX6c49U7xZdNOgHwb11+nOX/jGMgD1TvFl006AfBvXX6c49U7xZdNOgHwb11+nOX/AJKt55ydlZKY2psUw05uq72g6v8AK8qtNLdxRSPtZRcLEZSw40gm4iSMroCsbRTJ5PBCUi6atpB4YpuF2FVEmNu2D7M9y0qjUtXbElCKdd9p0iMkUKrqJrJEY/JFAAXQY/Mz+P8AOaKdVt63VpV4GX3LCKqYIoEZbYaKlwRT+BGTMepT+IjrP+M6q9U7xZdNOgHwb11+nOPVO8WXTToB8G9dfpzlJVoklcmWuNf5fc5RJIOWVoSimSXCRQQDhVDJLj5YiC6FYoillA+qHy6SXPqhgFOAPKaicBJ7AQzJ82Nt3mBO7c9G5VdRt2qNiBh9Oy+q+BLuGHV2klkCUfghgwLoUfzHSf8AOedStpv06l6vJTXu1kW0SY9pymyoHKkhnrIlIGPcPWek9Y/xkAeqd4sumnQD4N66/TnHqneLLpp0A+Deuv05y/8AGZs05AHqneLLpp0A+Deuv05x6p3iy6adAPg3rr9Ocv8AxjGQB6p3iy6adAPg3rr9Oceqd4sumnQD4N66/TnL/wAYxkAeqd4sumnQD4N66/TnHqneLLpp0A+Deuv05y/8YxkAeqd4sumnQD4N66/TnHqneLLpp0A+Deuv05y/8YxkAeqd4sumnQD4N66/TnHqneLLpp0A+Deuv05y/wDGMZAHqneLLpp0A+Deuv05x6p3iy6adAPg3rr9Ocv/ABjGQB6p3iy6adAPg3rr9Oceqd4sumnQD4N66/TnL/xjGQB6p3iy6adAPg3rr9Oceqd4sumnQD4N66/TnL/xjGQB6p3iy6adAPg3rr9Oceqd4sumnQD4N66/TnL/AMYxnhC/uMnjbJ8klUGKT4+aQFWS46QcgzscLOLVQgYBqrrqZc88ZKOznMst4Jg7UhUcDTSH6+ktsrJ4mOooKc9HYRSzJUs41gI5b/qneLLpp0A+Deuv05xI37U2m/8AIByWf3FcTuX/AIxkAeqd4sumnQD4N66/TnHqneLLpp0A+Deuv05y/wDGMZAHqneLLpp0A+Deuv05x6p3iy6adAPg3rr9Ocv/ABjGQB6p3iy6adAPg3rr9Oceqd4sumnQD4N66/TnKri2bYvmrWRf0XuoF3BRRKDqhh9nCaYtk05IkxjaJ+14tYopqiaQT3CO2TakCkLSi2jKwjkHAWVm4Oo7F5DWk4hiMzvJb5tmbfIWkHgVxDTY7Br0AzNX4bm04sfhB4WWVKZjS3oSYiam6L+9MIx2isgmqmtyQWPKzlX9p08XRk8P2hJR/wBb6yriW/8AqZUsIXZq2FH/AA1VxL67KhK8kPS8LK+tUWPWn8eeJ/513srOV/7Qsot+larkH+jqbxaNpTOw0TXes48weKZv9U7xZdNOgHwb11+nOPVO8WXTToB8G9dfpzl/4xjIA9U7xZdNOgHwb11+nOPVO8WXTToB8G9dfpzl/wCcWfL3aUZsp3yO/l9OajGYLYXno83OrjdnSm41WulGltwLqkPpt3agkElJImz5sTTbu12AACbtNu7XTTTWDWrQtjnMBKUgbWtaYrWpaxk2MYw5gQABiSMymBEYmZmIiZya1scxaUrNrWmC1KWBGxjDKBBawGJIzMpgQAYkiKYiImZiMin1TvFl006AfBvXX6c49U7xZdNOgHwb11+nOWG25MZLsjJCmNHWBNsdONjJ0kpbgWUpZa4mjLVUEFzE1lURXOno6+ga/gY4Z44nL6WmKqbp94XUiJQ0CMAH5iVW5G3a8uM6TOTOzyCz2VGRYlYOb4tbLJQ15DWdawMNecxWHN7r3uh4OUNekyR203Cjh1UkjRrIB/V3IJJPbKbqEKMajcbGvDbHcFteNJTZd2YsUcMqiDTUNZi+3yDcf695lesQixqtZsiH81GDiqE3Z10UyXZnbW009fCmrKLROSTosLPuhZU19aqn24PwJdsdathjN1Ml3x6p3iy6adAPg3rr9Oceqd4sumnQD4N66/TnPP8AgSQPtEc8QLFM5BH+IKODEtxw15KTI1e0O3SEcTWJvJEKuFFbrrV0ifjJMFaKp58kAtikE00ESPamQwSxnQDTaJQ1JuQudH7aKTOPi+EDM2ArlRtGCdN7YWYhfKg/6+2PhI+4dzSMybEKm5UpCe7b0RHT/wDQlhkvRPGXiv3e5RENh7u2paXuOo5dx+tbEK2NebkMpHMw0p16rD7wJbETUstqIqWrDq9ew2zFWtYuCkqiGvDLFlJ1V3kn7FBvqSF1QHKfHfapFFzAMQsJRbfYroU1yFgNizWrOlViwlR99eqd4sumnQD4N66/TnHqneLLpp0A+Deuv05y/wDGZsvyAPVO8WXTToB8G9dfpzj1TvFl006AfBvXX6c5f+MYyAPVO8WXTToB8G9dfpzmJxRtltmOLfjYHHb6IMONQSnQowwqUQEFFFErvHW8QUUTeX3bxBBN+7Xfv379dd27drru3a6666656NZAHE7+yy40/wCQCm/9usc4xlweijW/dpA/2Onf8Nj0Ua37tIH+x07/AIbN/GMZgeijW/dpA/2Onf8ADYzfxjGMYxjGMYxjGQByxfssuSz+QC5H9usjZncqFtHxS6k8nTDEySjLs2KyxHkPQWlOIIQwgDTFN7+bsWsE8tkgN+wwopDfWXQG5VNML7tBVIijGCOm8LYPvGD0eWL9llyWfyAXI/t1kbMrlUqK9rq0qkeIYoV0tBm5BXY+meCFVeNmiTeDmWEnwhyWwk9xGSmv3pdDcCq3tG2pHdQx9EsusblbaAIMQC0zNa7fGry+x6nu675P0/N7vw/v1vmvR9b+6974n3fS9X+59rxev+92Zord3lLxet7Pgtej7vZ6PyXrO+M+Q8v7fx/yHre/3/X0/N1/GTC0uJWeEVGT5AW+XjkoV7YakC6ysSNvl5uma4CyHvTgNqltT6WnmaLBZeKBlbYPqWYX4TsXSqMPuLFH0SWdoC4XhPi7tM76mcVXLBbiX2UkKEkQjenkYlF7x82VBRBbSpJjdUUU4caqIsKRLRVKNdTem3amElg8nCHyaGY2KBgmOODvB33Qx+W6dnOjo8fKvERyUIVrhwA24sx+pQ4jo9ayEigFNoKoZDuequkKFxocAWto+pWRSxo6vKDe2bFJKYKqoilkYzKNBKDT/LHFpyk0ztISVo0l+y1uL+pwr1Ume7Ww11tUkwdJ9HJgYaa6AA1pxRAruzZqttVVKjnizhbBTcAUUhxdRd+yV0bql8x+P8Atnge+VrIpSj1Pki5LwhtdWkhM+CFyCQNq6vREwmtPb3qb21VpqMscYi/BkQc74+3azdFvtehPGOcg1m2IYgzAfLAJN0lKweYUpFL+hzlF69V2donZ832s+02rcdXBkJpt99uJv155MK0wjXuCHesp5deBi1r1tSnCoMJ3NmPTRva0F0zJwbrcr8CSzqiqLCYfUAt6fqFeQWz0ycZLH5AE2YDj1k/itvausy26zXF3FS0IXVrbFTpJsWaX4E12s4TkdPNAd0HvRGmlu7i5tQQmy8kFRXWNsSSW5PLgUtB1139A0TM2vdr+Gi5jvtjE7Tb8brzirdUVqTDW2cHE3UsBETJCYFgkpST4/bLafIJMk41YGRzLMOMcdVOJCmT3mkocHPX2trQk2UKmaN23kBRJBj2mREf5aUK/RSqE3O02c0X0ZWUdHYzhdZEENEeT6JRqYQ0WRnI3y+1qqTsBV/RbaI3AkwQT0dhAobt7elCo+rWdVvaCr3eHUt2dDc0dtpSJb+/YHSsUtfb1u/oLNbLFXaQXImfJp1RRhpdbAahe7K0m86uVPeMHoe1nU7LS3NdtEwSvFVEge6te0myJR16tijAaMV0tjfhk9cqtsXJDlBl1yVxW9h6erWGY+rfTs2knRSxlZmSzIwLaYDjb6mVFB0JjtRvKK1JxZV3mAipMs0t5wYTcHs+7EnOdjEuVzulwC1tTp8mZ0t8+LaOPZpVV2SXsdM2GNxlToycTXPMwZ5wHd0iqe53kRHqT3vMZeFS3EY1UiQwZ0PYZyQOOSu9tXlaWuVfLSRdNjahPhMSJ3a0TSxJbfVUxg26fUgOZ1RXViTo9XjhcREkVPiKoQR0ovqCcZDUWbITqKlDRcmKNvAE9E70RjJLu5OeFt/NSPXw52LFkk3TPSc9W8015aaUcEXVVhYbzYOPxxppAyjtAq5F8UNDQTDhOJwKwsCbExP3mDu/aBrFMVhOraqE46u9257CpNoJVaXxujU2VPjythVOImnde5253LIgVTZ1+60w2gllJC0aJ9jxbSnbhUXNHxPk9G4SJkq7uS3dHYsbFuucP1uUFqraGtrGz1cnYo2/g6BYEmdBH02cuUm9l04cNWisnVOndCHPGMMI7fqNJmkISrPk+uyPiMlSE6JGlhGTzkhorCj5McbcbjXZbSUW+mug8MIvKyiaDKnEczznUjaniFg+/c0ybY963cpzDcB7pnrWl2KfR93W3akmNlDcG95xS/wCUAI/TSz7ix1LPowaaj6XlxWerVLDnkU8hKGxPFca/14dcM78XF8rrymo1HslaSnF8nfGM2Nt8VAjceeJVhWdm7GaZG0iM2UIjRVQm/TLFdpVnIzkarzaiEuJTeNGw0RWFE3KJoVvdknTdpeXaAb6w4/a7POltSJnr2ahiuA1lGEpsO2blllxIzi2OuU3/AB2TfzhKMiHm8q7mgWajRXG4kyA5NpdbVVE0QLmQUUj4zmWj46ydSUFsw4q5WxiPyQ8lHTd2ziwNj98bP9SwZaMlRAzULXTqZni7R7vRrzXjeGOwkZ1/9Qa71+vfKY0c7CqdCKsrjsGPhZH+o/F0n3Z3UW+uzmevmnF69V2donZ832s+02rcdXBkJpt99uJv155MK0wjXuCHesp5deBi1r1tSnCoMJ3NmPTRva0F0zJwbrcr8CSzqiqLCYfUAt6fyp93Ye93/s4fJU5ZTdzAkqVoHa9nKwSFL8UDIhiMJwVIhPp5VDmpiDNlSV2zuQ5OZiu2nSJo21Edu6qx5T3oARJEETiRegIOuu/oGiZm17tfw0XMd9sYnabfjdecVbqitSYa2zg4m6lgIiZITAsElKSfH7ZbT5BJknGrAyOZZhxjjqpxIUye80lDg53hdJiWol3gtuC2pArA145tDLUAy0bDq5WYkelI6hHF9UM+gcflx2cnGt0lyknsgFtpj6VmWmDIKw8Civo0QRW6CmCb9PK1Vvh+cfHgt2rfo9qnVIq/StFl3Ruut0VWPJsJaOrTfq3qgFDCbsKz+RSezrarrk48bz2nD2bIzRuEbPUN2LLEwVo6koILVa5KvFVmnN4aVuheJZVkjTYjR+Kls78n03yt/sR6y/8A53xXf+ulfc+jvPnx5VI3lpX4XIXarLhmYZNkRirXHY5V2JowjR3P2WdCUYSxCrjfRUpHbdSzroMKbcSkFWHViW5PCETdCJnVR3FAy44gfdhrmbKn+zpjE4uuY95OxUNApqGhKFBn1FyOOfN66hlxV2QZeW2MwGmiBDa7NVNbXXCXCIFtd5jYXN7g/uN3v7RgM2HLgV3PZP6jcotgquB2HNrN4/wsEuSpImxwOOrZBUqE/KxDQXBEBRHiahTAo8YJgSsI4BxqsRs6LALCNzy03JYR9orYkLCDaJyMrByyPoJjM9dPvZo2PtI0CHGzpqXNylxSy4jSeEU3btQ1JGYNhm+rsQ+rlS+u3ZtMkFZWVCKcqqGwXfqXMDJpQTZt137NfefPHrjwqjZgSfJ65IL6pbQZ9qLGtBoRRHsAMlZKPBv1FrOx1VVcCFEAshp+/wDDZBkB1ONU2u2VnQkB726YcpEuG1BgUbdoRLewueWtR1NbqaDmCyxUVt22PGxblpLdcp3/ACRNQXKI1MbSq7qvTuEk2VxvotBVfaqgm0/1mmD9ltbap7q9huqVXb2MX7AarjWi0TbIratbQTYtaqw2p5Vg06Z12tWljCStkAcsX7LLks/kAuR/brI2X/kAcsX7LLks/kAuR/brI2QyWdM80s1zZAVJTb8h9zPqOEDfNEIN2x00xW2TLulSBqpr79TSc9TDHSKXbrv/ADXK0Wf99rqtitNx+iyOeVnMWTth5JKKJDpemsNQY/pBiucuPnmGniwjOZBlO2WEiyRbdqN9mRKrIWG2qbQklytuQ38quet0qarR5EcZJztPc1tibqknW2rxqeJqG4FMvy78v2lgePmLKtZoH2WWIteT0IawcPN8AMaZ1uAR0pcCdy3X0BRerMbqzLLWV/R1YTWcviqITzRAlxBSASzgMpRjTw3nJmMu7Vr6VSNRjjqtFVqy0cWejKY51uxJdQ3NSMu1oCS9yiHMsXP11vxIYDisisSOhb9jLLx+hEpDb+0NUOqY6+npG89oqz1EMm54VjMla5JVU26ciqxrabqegrudaW+JTsOIUQmzsLC2MrVYuM5CtvyDoVSieylnoFIeHxV+P7G0dcz/ALe7bBu3ZXr13Avy0+UW/VXSp+D2bqxPQWNeuo5rHWOCKfHA2JB58J8YBi4HIs0i63x7tidt7rj+60us9+pig8LSvYiPGCI7ktQ2qaXBqBsE2mGjE5fdo2W0dBCOJoAQ/wB7uF9grv1zNOhMic1J/J5M1KKlxiz9Wu9yrBlBqwRJ0uyHv1TCLVcb+uQ7VcR0pacAhJ6wApM9qpaAuO5xKojnNvUIdMLENJDs89JOphzHbbjrNTra2Ir/ADJx8odcSTlqJB7ksKvsmU2LO63IxpOkFms/8q620RXbiwU1RXEMAKnHVDduJB7tdxZR3kOpbHk3LHXJklXxs3x82luhWmRalw+26xpMbwWn2TfdIJVCPqjnldGe1ZgTqovMd9Pbtzf2KksshPcJ9KHTxWSMsiJH4mIk5Ki0lpuNUykVVxu8mq3GWIltWlbr7r9QrulXdquclL2WtcihW1ibDQH2NnqLyZK2zXk7luZXteT25hjWMqcddRWqZixeTa49wHX7iadkRa1K62ydfsbJtVbWKTr9lWlcJCwAcXqBZFiQFykV7qrWTlaV+SWrNvIins8usmSrSx7dCSq7TVCyUhPZBW02Y20uKr+RGTIrSMOFKJNN8CnEzRURVY2mnVATQqE2eu1PjgbEg8+E+MAxcDkWaRdb492xO291x/daXWe/UxQeFpXsRHjBEdyWobVNLg1A2CbTDRicvu0bLaOghHE0AIf73cL23+P2dtPy58VdhEWhM5VrpxFjcuu30hbleLxGhKQS+44aSUoR4TGx2kG4UeAo9dAoLca8KospuZvyQ7lpNeoh9jt0sEihKPddnnpJ1MOY7bcdZqdbWxFf5k4+UOuJJy1Eg9yWFX2TKbFndbkY0nSCzWf+VdbaIrtxYKaoriGAFTjqhu3Eg92u4so7yG6ABdrhrri2qcCueUrU2RgLQydH9QU6lN4FiJreywrRU6KLPW1AjrNef75SgqHwbaXJAq9TiwPCtghdcCXXlqeUcTVszor6wLEhrK2yvbAwUKitN29+PIkgtF3aXecjNTnMh6vRWVJSVYfTeIt5uoyxHA/3MsNpwv1uWcjtnp8mOhBMqH4GvSXubwppMNPo8miOMcqfUC2p7aWODg79vlfk2SY5kXidIx7IT4YhKRuUuCI9kImzXYvNgq/GCsMaVDasx3mXRD5EJ0NBUNpyeaUW0t7DyKdMESYxkkKIWA3bJ9uSesBAt+Kf8rkeVQsTYSFV6nr0q5YmEohZZJy2lhhNkB2tSamO7woaBUN556G0pyJwjRkNsttdEUW0KSMGixlV/wCjklHpm28nWiv1M/F/KEYUrthENZq+ckUGPCQjlgIWVWPMjpPG0l6owr8JwwTEcMhR1BsSkxTxN8yVKKeySqwvPNviIKQeaSMoO3epS028Mq2es3aPOq6t75ZGfALv1j2W3Gb7ZLx+vY0F6jKTYcpehkU1SZIalTYypdblb6/b6tzg974bwT3yxq/0pr6wYqLXJMCwrdUrfUIEXg1RXZGFsB561yJ2ZB7lOelfeQO8E30Jq2jwDFjvpvsjmwrzpjFNi3eqCPQOwS1JVlmqYZ5tResbqnoSht6MhJcaiSEkm05X9FFxQVRzhv1+o9B7vg9jO1NGuZIVzoZdziT3fXt0S0oIz/kRhx8oN5NBOtFVn9KVDJqfEQ04gFBwtZ5ONMKuVMSFTY31JadW0iXWN0sWCtXJcaTpM0E3LoNKVjKbPgq2VavUr1sq67rbtxUR/RQiHIkb2biNqmpNeiE80t7bz25nOUjGZdguxoqBUMXcmq6MqiGuluHev7mjucb6zZHNbJMpBR2fXRDypW2psnt0nGimnPJsNJVTJpmhLr+SVDodekeR1UZvJ5BhGE9uqygTbRVVU24hgApSWVhq4ZNNgCMgqaFyxYtwQwDGu3Y21VNnTdEErbJJo0KlpL7l+a1VoUalXjD7tino2fklwv8A2SEW6pSKpH0ZKg1ga5lrTtBfU6ZStuz2dNoJqxcfcbct/O1qOute9WMYyGQxjGMYxjGMYxjGMYxjGMYxjGMYxjGMYxjGMYxjGMYxkAU3/wBYrli/n/jj/dZcaeX/AJAFN/8AWK5Yv5/44/3WXGnjGRLxDlFw+s81pFsLJRuOU7y5WqKN9wn0f0hIoS2YiaEQUpYOIH4ij/jZVMPbwDphI/Fkz8SCA3k/xAn992gOQJtr9AMUIbhIzT9pisJG96UdOVFARzO/kJhGDouKS4nktTmwqYo6ecCXGKXGe1fMAbTkWqoSirFm8cDRhX1qYDIK4HOI3q7cV0VC+0FxbECHIEKTtYa+FtnBW5xugm4IqGfSA6YvhogjuSPngtEkwPVvPoNJcLRbskIprVBJqohg2AulNyUaNk/7VjsmQi2BWdVmoXB3buFbIkmMTYACdK9V2tD9aWrIZNCASlmTJdtwIe3NWRmOEuEtjocDwZP6Qpck4HfsNJjIUHQoHSqd5zBI9Nr5r+cNlr/0w/TSaoVwFt9rv6EELca6XNANe3T2NemdxYWpoB7evHb+BNWscbXtBOyukwUvrW+d88Y0Xr76ClK5Kc1j2IKU9l5G1VsHDr6zBgCCrsGUSa9hqPjr65FrPy7wGVbuqkO9yMZ0yS4IRbF0Z7g9k7ll+Q7BiZLxmNrST9FLUTG88CBFaT0lsKS2GqEWiupTSRl1VcaIikdUdNGSqvprDUGP6QYrnLj55hp4sIzmQZTtlhIskW3ajfZkSqyFhtqm0JJcrbkN/KrnrdKmq0eRHGSc7T3NbYm6pJ1tq8aniahuBTJw45lG+9I+FWiR5o1Jd0jSDGj+e++19Z15mLjNsjrBqxLUyqTlXIOaL5ckbBDSojjnmk7G2zXeUMbX60DB9NQi4CwoopzXgU5Mxl3atfSqRqMcdVoqtWWjiz0ZTHOt2JLqG5qRl2tASXuUQ5li5+ut+JDAcVkViR0LfsZZeP0IlIbf2hqh1THX09I3ntFX6hgDHJdsimtUKtc1JUWk+JPxeuerSINhpMRrXuE69RWLxpIqlMbB79ZxsHCmjHklDw0ildxmuhx3ZEar5lJ7GzUfuQqLJ8Q1tXmN8KKaqiQy5cg26O1rhqtcbrPBFPjgbEg8+E+MAxcDkWaRdb492xO291x/daXWe/UxQeFpXsRHjBEdyWobVNLg1A2CbTDRicvu0bLaOghHE0AIf73cL6i2iolaprWGji8HHXLEZErHtaB0SsEwRtb0R+OOJ7MQw2nBo5Wsddr+Y3a3+zpgZyubcKmlPsijL4LkOrm4o4yhZM2qO1V6As89JOphzHbbjrNTra2Ir/MnHyh1xJOWokHuSwq+yZTYs7rcjGk6QWaz/wAq620RXbiwU1RXEMAKnHVDduJB7tdxZR3kO95rtdeSs9gkqeztZbHWi4+JxgeNjYUTQXFrDcVs6bTsTMmzS+C7YdIKKLIEnNGQG44kz0s0b7nkJWjl1sZTS0tCJEzRTe7/AAqXanT8b8TmUzoXORoK1JdE0bh8g56ijXvecWoFd/jNr0lBdUdN9baU5fI+/Veeq2PdtuRsaobSbKONWV1zI5PYVh4/wEtgynIMWxha/kKDv2JrPXYrO1dqa379SETyKCeTt+7J5YVT+QKoD3olPUwHHAnQKviSG1J5rNYJSbQJo2bb8czwyyiNsRJCPJBE04yMYyUz2a5tyRvJFgBD6yfIpxrE41ZRk9h2Q5A+PuepFe0kvKApp/T7X55SUuOhzu92U+s8IdeDBTdXQ7FVcU3OVhh+FnxEO5Q0UdACBBFb6QCRJBFNhfZN78eU6cslmqNEWLTS1NXqw06tCh22lyc7kRjrXl3PF2RqznIlRxE0KRMuLQ8quAFzrjxNCPd4rKK1GmkIqEdB2mlk0ZRiKz+/mkfLvoJJddeWyLmervE3GTZkyoVhGg10ENTWHxF05ICmtQGZUx9mn3+idH1rEGPyxTZptFG2hyatFyem3VQNFj0/Y9WK+wuVzgrx7jRRSqJJlizVuq0trjN+tRY0zqbbZ8wpp44Q2JrhGodd2iUVdbtKjx74faOxSpvAwr19Xvlvc5XgrbCm/d1d9qn21jBPp0+LNftUKjvsxuX66jcfYfQsCVDVckyT7T8pV35OTJGeQNUKatRnUnj9gornXwoskWyBoUCUrGyIuN4qq7WuuPWJ9x5nQ+TUDaacOoWojiTi4qab2qew95s8XsB2r5K6pKr1s3fm70YR1H1irRR3DqRWmwzqi2Sn8SQJ3kvaoyLNs3mCCzKLr0QjCuDF8XRejudLjVlMyM0w+dTXIqLwRRqe2/GHV5ZqJSSFYoexn8VmBVS1eWbBOYYoEVUnZYGZ11Rk6YFxW3B//MaN7Ho51NGKjjbtd4aMkJZPZtBLlAC4U68F8ZSREdAktmyvHz3jF3h2Nt+uCNSQmmvMtybEVzWblFfbaxvQ3IQTVTaluBCUCC0iKG4roUVUk8TUSAxgmZBG32nT9W4rWWDTZHTccvpYaTllOxyGd7oG7PaVnfU7CLF/YcjsatNiWLrUbyfClRayhNOuLk2KfyVaGIHacp1rkLYuF2k6IOM8nq6ytaVPdFd/x1PTL3UJmE2dlFryS0LjIb1PxjTROcNSVyf0usvOUg2cRePN7xo6YvnaTtiKfmJxQTM0L7pbQ2lIiuiFU8N6PFjhpKiTGeJ4AJTdA6jvGGLpBMJPREzoimtWrCcq1cGVfuzV/wC/VfnVZcusSHDkG0vsdrAcPV8h065FXSKUIJAbTaUS0svc41SiQ4Hm6pa9Kgzx5S3IGjeTyhE8GpVTVuDHwb5M+b9Uf8ev9txPPqbSVuMd9qrXX0JqyKlplW1NnPvfHrtUE4BEdIjWUjm9GXhm+cUtEBY3bCKnoWN/kB1k2ldtLE8XNbGNQe0fHXfmZ3rWQgoxtE8yUprqYsPCtgokSnErFIudBF2oDpIlIxegrZ/DCLxa0s7mVonGwdi+IdKk1I2noda3gzwTdP8Av7fFOFM15dGLa65GpfPLGDKYFXzbnTx+xEz02xiW5drYhEb2Ym5XgkV0o7Knzdx1tSukQn3qlLYaisADEdnH6tixvq7UH1oVmK49XszLFUpzWt1ai8/H1SOqlfrFWur4h2tshaoSr2zkGcO5sNmO4wr+GddTvMWakJtSWjMSNSk1ocPIRFFEYZ80bYx6SD5Y6E5XZppvKq8Y2HlWtdP4XetqKT/aLV2wloYUbh+SdIJsjyYQHZSGrSlm7uDXnjFBmCBHCnFWs4Hyik1dEj8SEPQ1ZQ1xRTyKITNmPw7UneVooJ5HLc1NqJbJ4QPDiZdeqFsztrGzTQNTLAIrxgE2E9mULXN4u50uZ5M39Py7DjlIGVR4hqSWwyUhADpxAkgF9NpovqKN+XvMLeLsKpHChbBPso5RCiUQ3XUqmi1orPFI5k4ETVnnKU0KiiaT3e2GmX3mVzRsw0I7ne+SxHajoG1NUFEuYB6K7j/fjyqr70t2sathSq3sIqt49xuKrWCz/wAM2iG8jentkQudNFgLkbmC1J0YHrGVu+sLFeXRnr5m2smMRSZePkHJAcsGrELlOyWpLUxpbAtC8urNVum8WxrXWZya0tuZxti4+M+qdQpSW6xHeQqJl608wTghIyE4ZUiOrbIYbJdS61o0Ccaeqt5Bk+Rl6REFiI0gKiMpAsv7hTXUtOOqQRTaFNPJbx8TLUnjiuvI8BXuvHORUpWCXkuYIYuhPJ2ybEk2OFVgraC8ldvqjra47ziiR2ekKR1/NY9HKujNNwLDeBaDqawqEt6qSHafIfClgIsn6lHI5WKFzlgXNUdvyZDk9Vvjc8RQHnINZpjRkDY5lGDUdbPkUFXfsUOZqJDsa0dGj6cO+SG0VtElMFSCTfyyvfW5tleQGiFvK81D4778x463pXGTy7zfdrq6LsDJSG2vQ1YPLjBjNmqq6PI85zXIhUmLHLDbMYt5XbhBec5ZzLbpEIo4aC4fP34qfpN6evreG25vKYbVhrHmuub7s6it5HwLLOgXxktSuwcBNFmzndzIxtmW4nZoiYjacaDY2IfSW3jMV7JpFPktx6cbK1ZSruipvj3QbFtWRKL1fUxqvWZC1yUe0tDv9RymX8qNdv8A0hZ+Vdkz0sQVxq04qY2HOiqzbcrbrPA6C4W8vJxxHXEFcR4saqerIq0kqAJc+lqyWfLmCKinHi4BwkcAGLGQQhgt+zbTGfV8kIT5FvzAhMD3W1IDGYISErz5EhKJmCEomJiYmYmJiYnpny3GRION8fAxIDDSaoTA4kSEhoV4ISGYiRIZiYmJiJiYmJjrjGMZ4ue3jGMYxjGMYxjGMYxjGMYxjGMYxjGMYxjGMYxjGMYxjGMYxkASN+1Npv8AyAcln9xXE7n+uUi0CpTug1l51a33wsko8fmGdDKeV01EPq04ykoEYzhtNIFtmu0U2YFkZ2NwYQAHXQTsZc0N+cGGFvF2f5kb9qbTf+QDks/uK4nc8v8AmleEzS/aihtTq6R+PNDlr+5tnKfOUPJx9LTlSQI0rK+G01o7jdPNre7RE2OCSXQ53wMyCq5ptTTz0YSECOKTD13qyXjuJVc9bVua5CNtbXRu2K0yNqppu1lvkmyqlAMgbOn41V3G4R1W3uZQEARZYQV26qrjqE3YLUt7dambdZD4H1rWz8i6+joWiMgWuvtd7Y1mqa1hrUqL3kaxaxJg94w5xh2jlKsUHNW6nIzetqyi04mYreVW7VCyC3EYDdcaa008guLL1mkFLXJtn6T1Ra1UFR4vN/P4aPVFXEDDZcWNNHJ7NqhrcJco2BdsZ3bhia50dFkwKgX0nKrkOz9JAaKoPx6RpHqExzaMBIKw39qfse7obCsuKae4HabH2Ki2d1MFDRgoIn7SpIr8ltrLLMw+wKNcbd2o8nJ1JgKWTlC/cJBVWgGBDS0BtLDvZ+GHc6Dz0lkyyN5jVSDYcJNR9BOw4nbkve6UVPNBqwkQ3Tp9JFHqycetcY5h6zVx6SIk+Px+8oCLXRn6vmx1m3I7iZ56Elx5Rm2lFHcL1iuQpsW1hcldnI6uZTy7IRW4xlcJdQAixM16Lnsm5sbT1V6tTdeDTgvulNcNlteQ6SwW/UY+ayNbRautsKR7MmAewndRRpX7ram2jX+eimHh11FRWLWw0wWrsviPIz43V6HdS/ST901WX95tm659fVhBKQ/VsdeVQI9VF/8AbYNnVFFJSGZt19pQmBp2PJprwUDiTX7kJh6kbMYxoIdWMJLej6rbAdSsp7SiHoVLopYhJLgl9+LZ4ib2GnMcOHdSYHIkKwM1nfsxyVZW3E1TkhzUYqj+kUpKsTSApQ3OD4XjjzGGrITLSAzgCbgR1WWthiJm841BI3lnA5kpzqJdWOmTy0rCGuv7qrU5W0qEyKacffGJMlPIPstLccVqkqUZarg34CUYvgt3CjH5QXI8gNjFXG7o9biQ0UhVQHTI03tmHWkmhK5ZvR1sezrcyaebVW8zLQeLQizjoi2PazzvNdQ40t5CjpscxKvxgtTK/wBLiCuzfNOCJmaFFjYBHXFxlKUiI7LGcBsoBqXSiLSLgj7toiiVCGxuAD1d2pbsNq09vyXhugTaCIQ7WD7Hi3G+HXjLjpSFfl2nuJJj2FsHam2F8Rr061u3sVY8ez1+wStd5+p1HJeRMriRGGwFa02dRqAuBEJsNvO45tKTFgph6drqs1x8ll9WOrawUhafDLQw1dSU7LXQe0hQbVt+TRMMOvu0kiL1cnHPD1Z553v4MnCJg4A0DTmc8qLh4giqykEeVjbqWA3CdOG3Ea3qWuCtXelTjo4+eOuv812bZCRf+8ZcQ4vz/dSUQB2DAO11FjUvzlLMgqMjvJBKqDdgxJdBKNYjizc6G+jON6iMVkJ24ujBniWtL8gmsl8gcd8e9dmrX2w7MiK1VpWhI9pQJQihdbZqNa2VkPjzAotSatpHcso8ZLMyvhsRyiM1uPBZTlxdJm1IhqkBqZNUT0/q2/adK1cOVyCL1OSms2XXqcfpe66pqaBWmHQp4lKA5PVJnRpB2SEfiXYpbFhfabpQQiqKoLjbSzR5CIIqjt27Pv8AeAmObfYadvYO9wFUKl7kJ6oayvIuvrNVxzTbjkk1aNmsxZVdVyrkG0pcMe1Nis2m3RB6t0Lq6np5KSgRr6xVWzftVtF8zNwgW4tvtd1tNfxytsLSbINTbvcc12v23Knpcuwi9S2fbbWyqbvJ553pkyr8PVqlS09cPtJctS5duGWqLKDAaJXkare8oum59NrXU5pGp+lMWkU2JVxtu7aMYSEpotVgFj4BjaijqysthE1gRW9WOQid7UPhQ4rat14NmI4s5aSWmZPMwfcOJ+NRDjuCa8s9IkKbwX2IwlpDdh5kG3652CyVJjir6MVk4qaPxucXEjRwDLaZ3hXuVn3aiV2wdZfG0p1squip60bkKTLoRO04nmt/LoiUZCa7ThOvyUorD1byeSVjCYsu+Q5sLM0D8OKHmw1GSuqRwRxoGZVmPpSlnlDvpb+WGE92YzIla0b0UqRsfTQXGjq4WAggl5hsFKDPCX01O3ONoyFK6+2UJCfKNtOpC+RjjcUJKpwum7Qi1aBgnUK7YbFUbFflBKA4q+hX48bmVk10qhL6y+QcltcZpbej3oeelB2woKr97thMXjEIusUclY9W7x4jmWWZv2ORRTS1pXWGxZP49o1cj2lG31cqNqRa57/dgaU+dnLJWaw9T4eYdr4c5NuQ9yXHUrLVsjONWI4JwQUuu80PmWJdbrQMRyeqqyWC14X0QN7bVXGeSUoJu7RgSaEXMu5YdZgodOn+5ueqGTFqlzjypcizNPzBdVtrFKsavZkw/Lzjj5jOesLZbIEj2idMlM5G00TpJ1bbUazfbDKKvQNSQW8rP4c3sTBjJ8YIzUlooykmy/KtQliH4+fG2stO2TKd0nrIJ9pLoMWu2wqiBrC0AR8nPMwQ2NtTfTCLOJ9yoYQU9QMKqSULoyieALAmim4eYZ3kqUos5xiExSjTm5kzQ+yKXIML1Le1c4HW5jjojI0uyNucU9uN9u0gaTm3Fa+Kmt9lMsMw71lIJattHNKRs0WIHwRhaKfjcfHK9oVSGx5putlTA1xCopaXSCqtp7iZEQCtuuQcL2+uZWZ46ZavkCL9c/ZuEM32zKp85cQ1oNocR1+vsvB7Ieq7vNk5Z7FLupRJ6HRcp1W6CwMk6G663rbDFqrD63GeQqG9aB8fr3qxBdgrdTPNXJPLUUUZhQ5Z6xUg2GWWOrzRuPNBynmaO8VAQVjtFrxTo+nAs7kEAuBqokkMRRF2hAEhCvKOWCOW0NDXGvwyREX1TGxaaaIhiVxoRHfqCYS6ZVARESR5fF39m026hBjojPZjb3iCfmAHd6yYLb92/cNu2bu85WiqUrM821a1dzRq/wBKrBx61lkCYm4/15qOFMjiQrZ2NO7I2TW823CdTwmu9VOK4kS1RwGh0NUUx2gvL4ZY2GTNmtmu+JpTso7o45xJssRMdIeR6T4prjWBoVkqo5YDpBOMyMRxOSR1YOSbBSQjuZCbgSFv3BiAtqNiqolnzwSqTTlMMMX7kvu/OnUf5n6p9xneez3797clhDM/E/p1NunxzVXlRHa0bfKdVfUYz3PfpOa+UykUmVbrlSlV8KIkqNPoV66n4u1BJ3XOzot2+01rYmD7tdoNhor4jIgyvuOJbBKVogit2fp/KFCpAoVIki4RQkSLglChUvs2hAFipYPaCXLghbNNNgYQIWzYGHs26abdmzbt27dNNNNM8K4p2E7P890+zY0gyh2OuP2mjcqAuOkuAHvDV7Fzg/v0xvBqkVPVM3hntI4jxMbxFxliysGab6+5tSBgDf8AiJwIDni1dC+dwUQWP6N0onOqWrj3apK/cDkPYCBEzeiJINdn1OOWNqubnoqzZNMhBJu9Q0aSI9G/GEcprkAIHHq4FFHDEbqzetL6gxjR6AWzA0YDLa4ERUFx4SBIrwOiK8hTJLb1UBF2SJfkleH3CGVx7PxyGDKqpmhhdwCeV7AgJAZNBR0ogVsStg3B2dnqs6Sr469TfzZt3dzq7umtW2rKSNVCtptps+0rA133Njd1dqiT6VO/DaWkr0i1tWVmNtmsmyyv2FUq67VbGruFJQ9fVJ3n7XVa1EIry5dbXL2y7xUrZ60LFV4xjK8txjGMYxkAcTv7LLjT/kApv/brHOX/AJAHE7+yy40/5AKb/wBusc4xl/4xjGMYxjGMwPxhR/dRf/xLW+ZcfjCj+6i//iWt8y5v4xjMD8YUf3UX/wDEtb5lx+MKP7qL/wDiWt8y5v4xjPOXlcVT4nFvyTh72ytl9glBLi7N44pht7ggdu6u8i7dwougDgGH1DD011379AQRRddu3XQMITf+TZrt98ixXSdv/wCI3Fl5lmOWL9llyWfyAXI/t1kbL/xjIA75Fiuk7f8A8RuLLzLMd8ixXSdv/wCI3Fl5lmX/AIxjIA75Fiuk7f8A8RuLLzLMd8ixXSdv/wCI3Fl5lmX/AIxjIA75Fiuk7f8A8RuLLzLMd8ixXSdv/wCI3Fl5lmX/AIxjIA75Fiuk7f8A8RuLLzLMd8ixXSdv/wCI3Fl5lmX/AIxjIA75Fiuk7f8A8RuLLzLMd8ixXSdv/wCI3Fl5lmX/AIxjIA75Fiuk7f8A8RuLLzLMd8ixXSdv/wCI3Fl5lmX/AIxjIA75Fiuk7f8A8RuLLzLMd8ixXSdv/wCI3Fl5lmX/AIxjIA75Fiuk7f8A8RuLLzLMiDk2tfPLj42+QZvLHGTd9hJC9SC16MqPp2P7jbONVlpypAz+InnY5ibF5Bno9jTfbhYcVYWSzOZzsdQ6cTMhN5srqvuJpZr3eyAOWL9llyWfyAXI/t1kbGMd8ixXSdv/AOI3Fl5lmO+RYrpO3/8AEbiy8yzL/wAYxkAd8ixXSdv/AOI3Fl5lmO+RYrpO3/8AEbiy8yzL/wAYxkAd8ixXSdv/AOI3Fl5lmO+RYrpO3/8AEbiy8yzL/wAYxkAd8ixXSdv/AOI3Fl5lmO+RYrpO3/8AEbiy8yzL/wAYxkAd8ixXSdv/AOI3Fl5lmO+RYrpO3/8AEbiy8yzL/wAYxkAd8ixXSdv/AOI3Fl5lmO+RYrpO3/8AEbiy8yzL/wAYxkAd8ixXSdv/AOI3Fl5lmO+RYrpO3/8AEbiy8yzL/wAYxkAd8ixXSdv/AOI3Fl5lmO+RYrpO3/8AEbiy8yzL/wAYxkAd8ixXSdv/AOI3Fl5lmO+RYrpO3/8AEbiy8yzL/wAYxkAd8ixXSdv/AOI3Fl5lmO+RYrpO3/8AEbiy8yzL/wAYxkAd8ixXSdv/AOI3Fl5lmO+RYrpO3/8AEbiy8yzL/wAYxkAd8ixXSdv/AOI3Fl5lmO+RYrpO3/8AEbiy8yzL/wAYxkAd8ixXSdv/AOI3Fl5lmO+RYrpO3/8AEbiy8yzL/wAYxkAd8ixXSdv/AOI3Fl5lmO+RYrpO3/8AEbiy8yzL/wAYxkAd8ixXSdv/AOI3Fl5lmRBVC188pc88mx4jxk3fcZlx3fYKysI6M/uNsBRYSiBxt8fLeCabsFcPIMhJBxwHEhBS30WMsVUejV2tV6NkmccxV7FXizmn7vZAFN/9Yrli/n/jj/dZcaeMY75Fiuk7f/xG4svMsx3yLFdJ2/8A4jcWXmWZf+MYyAO+RYrpO3/8RuLLzLMd8ixXSdv/AOI3Fl5lmX/jGMgDvkWK6Tt//Ebiy8yzHfIsV0nb/wDiNxZeZZl/4xjIA75Fiuk7f/xG4svMszxukpN5SrmWvj9xXZ40J4SaOVgmlSmuBK+QHKNAVh5T0/G6rD/oQeNtFt+cibfbxArFSf8AduUrGMeFlxtrD/NCnltwq6OlpBEL6kMYD9uzWtR9mU2DYrQf2Wq2pi21bsLn6laouUL6LD7hq2oC4oIt16z0dOe+vYrTEQu2s69iYiO9tRyXV7VSSmJ7a9xLyVagIFjVR4vJCjctsAd8ixXSdv8A+I3Fl5lmO+RYrpO3/wDEbiy8yzL/AMYzmQB3yLFdJ2//AIjcWXmWY75Fiuk7f/xG4svMsy/8YxkAd8ixXSdv/wCI3Fl5lmO+RYrpO3/8RuLLzLMv/GMZAHfIsV0nb/8AiNxZeZZjvkWK6Tt//Ebiy8yzL/xjGQB3yLFdJ2//AIjcWXmWY75Fiuk7f/xG4svMsy/8YxkAd8ixXSdv/wCI3Fl5lmO+RYrpO3/8RuLLzLMv/GMZAHfIsV0nb/8AiNxZeZZjvkWK6Tt//Ebiy8yzL/xjGQB3yLFdJ2//AIjcWXmWY75Fiuk7f/xG4svMsy/8YxkAd8ixXSdv/wCI3Fl5lmO+RYrpO3/8RuLLzLMv/GMZAHfIsV0nb/8AiNxZeZZjvkWK6Tt//Ebiy8yzL/xjGQB3yLFdJ2//AIjcWXmWY75Fiuk7f/xG4svMsy/8YxkAd8ixXSdv/wCI3Fl5lmO+RYrpO3/8RuLLzLMv/GMZAHfIsV0nb/8AiNxZeZZjvkWK6Tt//Ebiy8yzL/xjGQB3yLFdJ2//AIjcWXmWY75Fiuk7f/xG4svMsy/8YxkAd8ixXSdv/wCI3Fl5lmO+RYrpO3/8RuLLzLMv/GMZ4Qv6188j8klUHCLxk3fJq6XSDkGRiLFMv7jb3Opxpy9PPGSeVHYjHCfIMaZIDfZZluI6O5izheKE6jSi/WmKzmy7Egm+lRl8crQ4LpsO396rczTxZXIVnNYlxRPHcJpbOl3jQXtI/q/BrMFKNBAXTS/yBtbVKeTvkp3Sa/3khIWxeQCI6uilyjoW9xTdvLegUjftTab/AMgHJZ/cVxO5f+A/bdL4/J+q+qHd+RVFllYmvVH8rtSlDKUPGYL0b2wqz1VcbEj+6pSX/WTkOZEdf3fWk2JU2P8AixIWZRdFZDPbdpUrISLKwTkAd8ixXSdv/wCI3Fl5lmO+RYrpO3/8RuLLzLMv/GMZAHfIsV0nb/8AiNxZeZZjvkWK6Tt//Ebiy8yzL/xjGQB3yLFdJ2//AIjcWXmWY75Fiuk7f/xG4svMsy/8YxkAd8ixXSdv/wCI3Fl5lmO+RYrpO3/8RuLLzLMv/GMZAHfIsV0nb/8AiNxZeZZjvkWK6Tt//Ebiy8yzL/xjGQB3yLFdJ2//AIjcWXmWY75Fiuk7f/xG4svMsy/8YxkAd8ixXSdv/wCI3Fl5lmO+RYrpO3/8RuLLzLMv/GMZAHfIsV0nb/8AiNxZeZZjvkWK6Tt//Ebiy8yzL/xjGQB3yLFdJ2//AIjcWXmWY75Fiuk7f/xG4svMsy/8YxkAd8ixXSdv/wCI3Fl5lmYnFGqnw+LfjYD2NlbMbA6CU62bBwjDb2hDbdtd4627RQtB3ACPoGJpppv2aDAhC6bd2mggQe/8uzT0ayAOJ39llxp/yAU3/t1jnGMuD8YUf3UX/wDEtb5lx+MKP7qL/wDiWt8y5v4xjMD8YUf3UX/8S1vmXGb+MYxjGMYxjGMYyAOWL9llyWfyAXI/t1kbL/yAOWL9llyWfyAXI/t1kbL/AMYxjGMYxjGMYxjGMYxjGMYxn41DU/oQPapWwmIqaEzOqbsUBBgiG8/oDv1J7DwpYIYwET3GPu9DIhcEUbYDrv3BBCCabduv7MzVlZR24kKrgcKqmoSAhJx1YW1tZPFUtIR0lNLCnFFUVVI8KAST05PJgjGjp42MCWKlghRxxQwg92/SmxIQh8sdNdcJZLHwYqlAQBd7oaX1XKx6n3l9Q7e6fxE5Yru8q+xcOLyB2qkSOGl3R0XIDMEUHPQe0Zgi69ImJmM8Fon4HYCmZj7ZM5YUErdG8r9PLy5KMubZkngNlsIRRdCwsNuP6zk09wRqLE0dsJKOJ6a3PRRqs5bEOFBFI2JoJtIhk/68Ybvto8aJ3thuIpZLSY/K3WhuBVah1iLDq644094NKO9CifFDjk17E0h2q0gJUaPtXW2GoOskiuDetp7D2FNSJ7UuKBus21lHIo5IW4xn8m3GtwwI/W4+KaNY9Ti0YjShmTmi5hwXMlOxcaZNNesRTInLaeZLhkjzqQHY2VtrmAyW4meTDOv3k68YtkSEPRTcKsti3NBMbs/i6nLbX3WckdEYFd4eccRqjJaciR28XW3EfY24hjF5ApT0ARZDSmlqhtLa6Q9TyehIGiuGnaSUqD+b1rhPWrjjl9AaiubatesmOR8epTuqzRIfV2+rBtfXKFi4vMVyjYOG6Z0rkWYkw1lqrKe3YE3kVKzOxfA2XWrljSb62WoZWIej9fsDUy26AL0ALj+trBQ8bqRUetEf7PxQsSHCzttCWf0mXG2skq5pZvstWInElN5OYE9s7N63KrNkIV+I21lIjUWQR1NntsukpbMS0NPJkVttnCoisCd/lUV2chl5OCaHzcaTOjMC30tM8ZgJ9lpE0cTfVzsTIkyqzCFnpJFR266VXbKz+r8haPVlLW5NDLHH04Uxx71dI2C7FcrUd4OKJlXmXXA8lu21yo5FXUNHJk4wacvJTzqWdHQ0sYoljPWo0rNJ/QPJSErDjBHngjuVrD7nRpt3fmKiYZ3Ani//ADjMvISl2ljBedklWE4XfTNnd/UnURENVSI6iV+S1EcpLMKNYlDiY4FAsSD/AEljoKbuZkfN5QWRdiobGbLc7boSCLB2KkLQbak9aq0Pdq319FXHwa+NfT2bdYZ01K7EoXbsbzRaVutqDTsEm3WrROwFVZmrrIiqBq3oadgVMsBO7c2bN6bj9S7YCm0djyHaggo7Xc/IWfbSNrTm0zohdcncQRdLha47qp05sNaWISch19tPX+GpHmxo3gIz/NRmetJVZzdPuwBzvx3rkhmi8kbn04U8JIcjSc5BSRFsuuCpCCjphvRE3J9l2ekKSZb+z/WQlOZUH0XluSOIKan1Jrc7AIk/gj9ddN3QuOxM/ChdNBUzsa4ePA/h4mmm8l+Z2bdppqFrpp17fPigBkzfKVpGfbOzIsrMgyvTxHkJWGkNEsbREB9M0sC6kFAWauTQ2XKy2qzgzqACWILscKLDfLGFNiORsu0koktmgupM9nDdz/s79kbUqTYBZarO3E9ZeQlpqlRTg5BCXFmscharZBLMKAQJ0yjhKwRzVGNGdm4Qyl7ig+oxjQTQwLKiw2U9vDJ6MU7jElr/AMevphdW5PMM1shEIle7Yp1W6quqp68cW1zGrcu5U9eNlYpfqVLj9kVcjBN2WGyxtRS3jXcN3ylNiJ1UOCxVbabaOw3kOykCQxNorlG8vdZ5Mt9QOXoDh5sJTwkV2u2AlVCQllUQ0QgYJsew0WPp0DiKjiMk0ktuJNBuL5vaGOZ2CnfudU4psHNmwSw35GZWOR0Xl9m63BhlkycQO+g0IQUgvrVab4xxTkNrTbKLvcjZKt0JVHc6WTS20otU8bUTSMmoKmKcIAEDqmfT1ANO9OcZFHWu5DlzPWve22wAS6SBWNzxk+KW++IiCkB1pQxIwQyFsAaZMV3oOxsQ6tZqsGJCyGvWR9OrFjrd5r9+jwlPWAk7utQDuolBVzcAwDSBy/NOx3MFxyVRkxahmaLIkSUrNciVUnfH8cxpM07ulkEzpfQ4UFfaTBEdSSZY+4wT3gHAwHZsRh9xQ4QNfdfcKBIQxWVbLQ18uDFKPN9ZJbZ0zxauGTRAm7WYo6myxZVIbQN6ghLaeZCKrLacaeGaKCqDccaclLpAE4TGNp4IRsvvE80Iduk5pfdc8LPF/wAdzDkSN9k3vdty1ZyRZbYVO4xnKfGUpJzMkRwNvVlxPOcwy+IhBpoCEoS07IxRU9dNN/chN5YXiiXoaAkXjVccrsC3n2gZMV4ti2E3whuKvk4iRVDD8OTGwUCW37V1aXXAtJTwOxRCRpxqr3UUBCdDrLmIyRDWjpPqpUwZXTGoy2pZYsxX1ew2NrpYCnxRvKFMrQNb2EqZozBaKlhrnWKtuluCsVNiLVLYCazCSI3hCvpKsTr6adWRUZ76vpXJcXtimXzYokTb1UQWm3V2ykItUpqs8Ivt1jeNvVzF/wBHbBc0vGRV6TnVDkyWlR0uRGDoW0kZEZUbzNMJOMBTW/XaEWlNyQ5HL+a0ZHdumwQYwQfi03jhMsCObNgAFS4wwfQnJ5zWwHS2n7Pn6FX0z5hd85F2isVyOpbFlWWoafTWFlNgs+Q15WfkSEPRdE3tltulVMpSIvP1rrq66yADdR09YVADqRpy7gCYrTanEhTtfQg9DzgmWPjc5yw7DowKk4n/AC7LDgV3XILrdy3oHobXVwwtHhUnU0qCmT5NJSUxFFH3hpYWm2W+ZesUF1I4aZjiSurBKRjGgtlK+P0uyUtZcqo30dxSFc6KXU6/Roi41lZ2NRAOr6iePkGe2tUlnt/tIpVuoSUS10LaepYpNp7elqXtWbw5LodTaepZlWsMs76nqr1Ua5MU9dTvsSwbvtRZs1a51opUH7ALuq81VxN3W2NlUW1aW6/YbCiqwYecKIa6zepWbLFCSveIEJF+vUB1kNvGQbO2vUwO7rCYbw8U136IWhdM1PF2PCkzGBayBZAw7IZt/DJkkXUnE31FtAlEwSOo6mNaAEcOxCE3n43JKIYAmnZ1M0EV7YFnoZPNlK91KhxRm6wkrM6G4ebRZOBMvF6qm5OIfeHAvzUhHTC2/aOsLzgU9gW7YlN1GJKThVRAxAySeZG2b9unmj9om/Yx3n//AAJkf+sEd51/aBCTpS5puJWOpDD1WI7jKtFurIMVpqOgW9tn54bhaKWI33WeTjYQpNcXmG1nWsqzT36bPxFqKpvVfTxy2/cJuEzKkXvVUTM15t7FyJM484AOu4vb5BfsmoPXlzzraq4miqTVEGypWfYFYttxqsT6tKpcsRNkVhviFIFCJhzdpwzT6tCWMizFVVm9yCjG7tQuwZVKI261Jr6yaD7Vq1yx8fVzZIOQ5X2xCc4ZcKI29xBRe+Y+lqEJCWEAEEQyZWmszZzYMbuJ4JRIsEMZPn2onLJVPLADmDooAIAu/ZrWo5SKF0teiTGdiLCI7Xk9aS9q8UixmsyTJplEs3xNN+oDjWo3hBlyK9242zf3Yu0i4XAgpiKfECGCJnhxAhNm2hJWrDBU2yNA0uyawCbik2sbxW35Bb3BWHI3nCwHC5m8Yarm0Jn2wsowiw33MgmNCLkZzj/GWev6k0o2roRw6jJBkl823ElIF6wCF5ZzhqlVdrFvaZ+Qi14MrztKl41WG5YOnI2kc5HzOilWZhWnswKLUZMWMpAQU5hNIzIJ8inpSiIqpqSiF1rQjsgJC+x6q5Os1Wq2e1aRJO8p66Wz0GsQoTXNP0SsFv8AzNY+LCkfHQhZ2W7Vfx0i7UICwyJeL71DWAIsXTJNq1rt/sHNmGRam2hK9GvxqVCXunYsE4rq1RWtj9Gtb7U1vuvEeyXaxS2zJsjJWGUUAVcbBkUTROWS5YLcfbTqQFUqQcDVcBYsdKDnm06kdJWi5M8TMmE/YWOFhBfC+DeNOyrGp3wZQ85ooQgn5Si6u+aJ+TyrxYphLj5l/htlTu5xgGQF/anO89vVXwxgS5No7XEtgqqmEd2lgCqcqqJGnaVVkue1+S+y9yZbgWDKuRNZKujCakjxdEFjFCe9X9YmMnmP6NTKrjGIAgcBKVjkZLyq01UbcnLRw7vSSxs4pDiHgwiXuDl4DCJoXl/tObd49unVJeuxNe7w/f7KzrUuaoFd9e42CumECmwWtvVlnFS2DJHNEmwdrRf2PQyptdSFkUMQDqfINGFay5CHMdKrdJOwbQJhE5BbHXteuHUzWBMYxlWXYxjGMYxjGMYxjGMYxjGMYxjGMYxjGMYxjGMYyAKb/wCsVyxfz/xx/usuNPL/AMgCm/8ArFcsX8/8cf7rLjTxjI0F4bGVbabbBzxyvBIVtVNdl9xFKnRCRkaWQYGrlWdNJlk5io6bHRQVgIY82OnbvUVaXXiopro0MqexMAaq0UKbFHcf4RxunTFQ7X8rFNGu/pIkOmFPEOu0uQ+mSC8XVKLjgA1K0VOt4SHXptvt5rS441pmN9NaKG52W2VVTMKLVJL+oKicUj60YWFGsLnXikxJltKodRFroMp3qfTWLu1fW3WCdMwdTqKVMz2IGcLGKSZu2mRDKhptN6RZEiUJq6pFVy4Io4aY3N4J1U5TG9EkOtFHbDwi1XO6pcmGbWNNrumydHiWLGZJn+e5OZCsmL0gOMoTGCJE95obVMQGezUscFFaDRSEBqJYm4FP3nzXlXLtijx/d7DXsladdxjZaykMDM/NbbVrQA2WJYuUXhoW6Fyxtd8UjZfykma6u6/5ObVaPoKUq7uKNK6Pe3Y7qhcst8gRHH9bZuptxWSZGTaPvULK6Wr06xlCONMPYWvTGeMs23ltRfjCrZyh11Z3InyWMFyWQsRb0iuyw1QXjKkqJDarXCjvXDpuHYfr+32Q7GcnRultZjAN5cHc6MX0fCi+VZfcwzrGMnAd4NN8fzxtE3mFyYcfLekvfIU/0NkRUjyp8w2HUldwaKMYzdD5SVKob5sdJBHUl96G46FVxmu8V0NDOKy6gtwgJoWNDmNogtD8IToRndxHceykhmtpssnVgjVpH/ya7PvCbhYqTtZboSzOzZv3/cm0lxoKommy4mu0YAwVECGDCF27w9vR/HTs1dfKNznSolf8+1DE2U/hkqoB/k3FjDyhmr6QVfafsEE1BMaGUQ250oqd2ak+ybRh9NhQ+d3BmNAPptrSro3nJeP1GOr6qpx3e0qdes9i4ro1vJ+J6yhsklBSydpXrXHVx2xEd4z29+xYe516yxnja6459DUbu6muzYs2mpvtl9Ue21eta7Zut6RodIhOrNI2LzNV0Cr28f19Va1+pVEOAMH7PfSxTiJIctug5Em28620iK9Ml6xJ+mohNJOad5PcqLD4h94AOhAKRw2WS4jBgKNG4ktJHbxVppSSmu5trvaXAGqyyRshL8sfZY7GSxOL3UZAfG2q9sokS5eWg9uxal9rtN7SJBsZSWtiK5s1uUFt+txNQDystGDhw25VI0ZcIIpw2rBai2RKcyyxy0vuR6m0+di3FdFGG4liMLj3jQPzyzimRUTt+hF8Vipep/l1LjibtNDrTmKweoY6O1Cxo8kx5tWFnUspmfRSca+0rJ06O1SnNEjqPqaGWYz4QGZC4/TsQMoq0wTaMiMlkEHkmuloraQZNKJJFTEfRMc5NcVVHUEqGZNmzgmwfxL0Ht9JvIXKa9XktJStPr0jNOkQvTeUvbJqCg16yk9VunS4+VRRTt9Wdi8+i/VJ4ffu+nScOt2+oN82bL9BfXd220YwLF2Ipz0s6ltpjIZbtpJJ3957BqTqr9SlSCz8j/UdLVeL0VcV/wBnFLCxRAD2i+jQ1ojjCYIC3EK7PqSHOCu5zzXShjgpqOQZVLugyqKhzeMa3bSSBsCMiDbhCgOgO7Zpp9J7bbqK0G6gNNtJ4KS3WuipbdQEovqJuLpiKiEQE1KTwNwwgo24EkRLAFgtRRRBNdge3UQTfu/Lu18x7KcT3HI9qpStEh2pleWWg7GI8FpJfaDGLUQn+xnkVQVQ6UlpLk1PSg36XkJLUtd68ovkVfMuVdM71Lc4VBXDVlUI7xXjqsRaSRuGmp1hE1ilrPWhXK3sJTAajwkjZEGktrhM0C3vxhxScvNp47URSWW4T1dKi4T7aVNy8qaii7i4G5W0GL+nZvjbPkNntNAVr2ruuq1UtNDF70uRHTFFRHmYLNdOovV+3tb5E2VMRIdbKFePTpOqhoazSQ5j6Nymuy1sC9btQHH1XJbasQoGIvM2ld3l6phM1p9uJ7ktn18zxG5L9XZaS29JuMBOekgx/C88tycLE3CVoyc6uwng94Dgsu0kJFhAm+EDcC4EJrS7Iz9SEmTNzfPoi2fZKYcQSa4RDXTGgnesI2X5SnnKrMa84cW8XQhFKwpDF3pKyHyIM6XFVmJuxPODgqRKOE6urQOusQZQBJp+4gXciTvCDObzupjftK7gBejZt0LtLn4os41sUUkRlfj4t/FTOGGB2BE1R5MmTodkpVRixwQxt7QpbWkOcVdxEMDUYMoR3mNuowW4bUrmUmG7TQpctLqli1vGOSyVNE26TiHIOQ6+H1pkiOvO41urklPXNS+AupOCzWK3XLcTyTT2zUExduvW1YpYK2R2r2vIdVprpod2wMWEau5sXA1DPZ1xgm+MoMENmT7cUhr1wwt6Gr68erKXq7ocYTvBkdWyiRnPqQl+MZ9rRL8gIUROTR3MB4OVyIpuTmCsvFvO5jSIT2pbnCHIqCctKS6XHSyyfyXk9guqdqOWWisU3NbbEeEARZSa7M7PhMkxxEWqxUHf6a1/aSC7HIub1pCMkCCeNoqfkGNKJNOCHDCMbhBdhc9tCoj7Qzv1V+MGRYxIbe0OucpxqNDzCTNmumhlYeTotHEp1NTSe3f+YX3md5RFUTOm04bTymgJYbeOfL7dmmu6w5dqFx82Xsq1XFOsdQtONlYfiLajpbHf7hBeRtBiVfd5NcJrThr+qOE8zVJHHfaETUm09XZHykbSnIlAbm4vEzxLZoHBEtfFSwwwtxR5dyxEe2RWXKXa/TKgtKKiy6yatXtN1HIppS2uA+xs7inoeyWT1sKSD1qiajrem0kSNWIqBKanNFvi5YcMT1duqlXZcbKzC3HKNZr9e9TK0rCJx4/qScKrOfRixXG0y6nLz0axBUaB6Tq3y6QljYhE3KX+5U0JRUG5IDwRiIioWLa7dxc6GGZ3bAN24H83XZu3aewmfPLdCvcN075F+KWxFUY+YEBSZP1mXHU6eUSJmmnsZIniDXbDL2eBwKQ2qziSWhOk9G61HzcW285lopvU0AYJL11PGCKSmkivpVa6cL6xc722k1NoYw7YM9Rbu5Qcrvdlym3W0423HopGy+1ulmwtQxJQ68W3JoRNS/HQVQgFoKbEIap/5xXUwNP2IdUrumbHVexu6NiZFthda5TqVN0UJcAdoUX6/cUbUOeumK9lZta7tcxde3sKhSabL0lFbq2lV3K2qkVG6nbt3NQuLC2FBFfTc09tBLQdmGa5NO93JhlinQvDPmlrfS+C+Zh+Wduff9qOKfY6b9pJtrxTKBXe9nwjQzDkM1/cx6J1V9pkctZbbqQpSpMD2RXUuPZ2ubc5D4JFPbCIiCpBVF0B19r6nyha6Umo51S2dUmpU12JrhDT2u02nY9FsmUc7d3JpYwK4jTkRI2jQFvGAlIQym6IYyYoiiBFtp/Q9t2GNC4fnpwE6F0SkchxgMKLtdULXlvZGT7TDQOwooIznIWakJw6Ez5HaYMCExjCC5ENUDBFE111LKAIge4YDeEOKSqI2VgWAp/j4tsrKwmVWFoJ274fX90IGWAu2upfsa0mR0ehO0u0z8ZOcvJtd/41Bqk1+fk+votIlmpjUBpeXWzrT5AE5Qy5rKlyJDoFiaVdyzYjpJ8Ap2urXH5bO8fHmRcL9fFcosrAzL2U5RZCdbhkNwxZGSubeLFlKCgn871A661xmNqSWeVUY1JuJbV1NEby+bSTK8fFJiGNJt4/uKeqvJLTWIr2chiI9bR2xts0dZnVpWdEtSsgmoWTncsqK8yI7rskNF4N5Fh1pRqnjp4aEWayeAbFVwTRo+eOp+icmkLAbRErIf2hidT5QuAqIEQ8TEURXIOwQPYZJAOKWbKvp9oCApBGdAdNRFNoo6goaAABKJUQlp+Q4OTFGBLj5UMcenI9SFCUq3UTuTWpMpebcz3V4vb9oa4SNLE21Mbb0U1Fc/R/EbkZU6x015Ya7bX1hTWGn+mIhqfSdopZFUjC+klNwZiNSZfVqXbcnav29dZqUbrDA3VZ0PMuaaR6m2XNFqLuy0lHi/TaGUvtfDXCvXhtbMp2Ura1Beu1ENXWo0b+stWKUKfCrRbjhHEdvDhTXS1b6+t297kLC18h4ZPcIKtWYeqrDW4dQuNWBeWuNsOOa/BExcNE4/7qvWvqe7ZcUFQ+45Nj9mFk95V+dshL6II2jLikduMN4l2k6lveEFvW1VvarilvVFFQHVTnnnOnDPxgtrmoobXRCp1GKbCcnVMti/H7Hhc08PwRzO5jKTJAaS4obxHNvUO1IYSke2E9hc6AX17Rv3DAi7tNmu27eAqIi0dPzlyWkmRHhMiIqchiwwRJmfCiRU1+WH5FcUMRPl98nTKUWLomhhXlNxOzcZJt3QBtogwe5tIaUikUMNOB7Lsh/wBoT40v5Hruf1iPMlXiWbLhllppsWdxxxO12ttSyWO22Nv9E9vsX7OwLFqY1tm6Cr0E9QMBoJKFpJKwXRaYXx3KViDK6tfyRlHX1SMJ+Loq/V/W1F62vCWNShFeq1tPwVmkiEm1QEazKTtyIePeCaOxXNyRxsQtClcpSlBDL7ySkvp76cceHnogElUsy1d+oZR2AuFYRG8KtKI4qUhLaEcPhGBymxSJ7h9DQPkXBdVlatXP5CypIE7ypZacJf4z5/d8wzDJ6gAVAV14jPkVJ5BAjWN0XQFmQ9FjbBFNl2hHrUK7w00uaMGVxbcq6ZOrZr6ec8RJI/7Q1WD/APiwsb/cZFWSqNb/AFLoWS1pG+vyyiwjYbP7Sv8Aplzlyq4QZFC1wxFciFcB5Iq1RPuGsgVzsqX8JtgEBWKrHH7kCqIVDLL+c8RSbnwvt9gxWTYX5u+Fk95hEG0imyOQ2AbM2ghtowdXOawa/Iz5mBhE7LSQjuBfastA1fLGDpuVGzAzjQm44PR6WXeEEkoSQvKe5IIJiMaXd/4mEZFL7d3idyWcZFPOMGmr+vRx8tp11HtZXBYjp3MJ8sKWJkWxpxVFWUWgiGoWnJvOmQV0GcWxLA6zuRjya6dqkviKxwIYkpakja8kLn0tzDMEZV/i59zVMzzRY8i2M20pO58PNwmNxdKQUFKB1GNGhvugxjRowLu+7KpyYnlzaorqRgolpRI6pHCpUbx/hePZr5T5Siy4Fn2gvwpRyJ3WlyrTGmztIap0jTC80oPeIxrV21IajjAo2xD3i+k8EQWX3jhoRk0nPd9GTawSSyI1VQii6CarjrNRsKW62GzCJ8+tpd1WsCQfK2A1lpesvBx/j9gW0tlsbG7fdrDof6pv0tLmwCUus1wuIhDaFTUGURX2tkXNe9zUGwRga47GoO83S4ixQ1SNXXqy7cM0Ou2Xp067Uw1Gko1ogSVHX6GzrbAo+tIZj70ceCz6VK0Uswk+ZPTvSREb6k1m56KIJ0M3968VtvbFj/8ASIe5TUNu8rt65vpaw5U6DNF5ktrSQ7AS08G7BNWon2D7Su+TbCSSIYTmKinzm/TUFIZze2gKT8klxmtdhVtx003QsbtRTJUqTNWrnywI/KhSxW5JJ8n24b1lxiBVNW3pVamURCVKt5IgDd2kTu9JsPaQwtxlBbzZG5yzctEisfR/2VcNrrbh5mDCHdEo1Ja6jl4ulFuyigw5qxYi7dvTXsFWZGorWlw6vrCI/Om60Lmv0ybC327VR9w+QxUbS11uqqtAMp0xsjBW2VFUqSvYWNiLW5dNqVWrgAAqHXBWrnfuV3QldiNfZ16tku9udXXX2rwJwo668WD5hIjkCS1iZJIbtooFVJQlZc/O2HZBlN7VlZb7k12AFN//AMUpHWX45nCcbyFt13BoCAImIoW/eGQ2btc+t9L4L5mH5Z259/2o4p9jpv2km2vFMoFd72fCNDMOQzX9zHonVX2mRy1ltupClKkwPZFdS49na5tzkPgkU9sIiIKkFUXQHXrniT5IKgSRyY8pTWZ8gPY+t2wtDD7hgsufr/YpvFnKlMuq7TSXEM5FNyRQkJUXGSqg2FouTTpXOshSWuzACohRRAUUwU5dXAToXRKRyHGAwou11QteW9kZPtMNA7CigjOchZqQnDoTPkdpgwITGMILkQ1QMEUTXXUsoAiB7hgN4Q4utQMYWoc+msI//LtOY1/VFVWnbTV/TjW3GVa8hCq1ihFu3piFYiymjY3KMwuHMCc7DhKtmtbyI3fqTtksaTIOxaoWLP6ibKvDGz9zRdfraewFg9BtHSU0SNYFE53H2UWaZXwtZxfk3U/HXXBtQfE9xadEZDdTikNwxBGD2cjkjCU4TDfruOKbtXWW05IbRZWjYm4VZcVEVvLptJMLSkMU3jZtXe5K0F2cWSxanj3kP0xXbDvtl1jrTJm5nOtvhJEqStOxGuJh2iNiQW0guAsLHa+M51ZP0WWzuJKaq3CG8EspJB8EYzms7Zq8/tEc1ryN/wBITYU4oIhjd6GAvybw052ShZl7yE2Ek1qLqBvCNnGsiHVUHaUDUANSuzbuNGSQwgBcb9XPZsBSagQjJSoIMWakLchFCZUfKlsA2il0dno9jWehqywojCDgBkU9P3uMqOZOi67wgvzdmwXQMMXeYAoXEbCpxJd422vmt7qdBsTl7AfOrj9UNnw63FmzBTZY9nFq1FUXhai/Dkv2T7Vq7b9hWo5Gle5N6S1geqoBuNcuUA2r7k/plruTlXCnIeNvscpueYU/erCZfrBpyDVFW6peX2fKnbJhNzuuAd0xs7kAbzUU3oxr7jzvL6vZFwWHS0PcdIyBJDlPuw6jPdJe7pKBfpBYKk2BWQsI6molEtuJB0NJPJvVkn3snC6fG/xUtqNHg74QmvlYk2N4OlqT40F2th6RUz2k13q57cOaLVnYWUdrTdhsnFjobzBWgSg46CXce1aIClTqWVNg/Rk+XUjspjPB7LhsAogNNpuB1LB4bfv2liyOgo5tXUDYogIQ+/QAEkVGG37wgRt+ge3XdsCE1/Js3fHDTpqH4sqn9likV6hmkZvjWjnAhvNmS4GwmVN2vjSxK5EARw9qd1DLbnMGcSQUoIYPYZOb1LYCKXJHwvw8SxDJuXLKLEBYSfKf0pD48lhFIQ2nIt/Uua5NEBGvXpb6tURr79NKgrW6muq1DVKkLCKTgatM7iS8duvx3n9ivb6Qdm0dLjadgOys2mQZW36G+FOzSJ5GabG9u2xkvNZkrsuZxI1i47aqyddvjVYzkrbbCoLSU59TXo3JVlhwBTi0o6E0eUsxbYJGeLxcyVLTYkhlJ7mLDiucmKsobiHIKyGtoxXaqFVD6GohkZKmGJ4vltCAMFUSUo7ZUjIxY3t/MNF0p7tpMcyeAZ2f/YYCKKYIY23/AO0Tbu0//bIu5eHkjMLi15CXGvGAiyfpT6fkHYILuF27RFN3xu4GihlNn3ABkXUY8trieSL7NoO7QQwYD2b94WzduF2d2UVZazG9JqgR84y4hNwsmsMDNVeJjbQdoxNZQYtayYqExdC5g2X+8Kniw5cTUA0YB13B66hDCbNdu/XtZrHr36nNMxpWeMWqazKZhTd4HLw28piZmQS6dBqGTXDpXRYh9lSl2NjdbZ5aWtJcfNIiB3VcrTcIR+zV6cuGFq/KUf8AI0zvNsIsPq1q2CsjJdVIqqnGMZXk8YxjGMgCRv2ptN/5AOSz+4ridy/8gCRv2ptN/wCQDks/uK4ncv8AxjGMYxjGMYxjGMYxjGMYxjGMYxjGMYxjGMYxjP5D6j6ADaldgQhnQITUvsHE3hAbx9Nm7ULYMKGEMIEFuE/N0EE2Ai79mzXdu2hCbtNNmvgPE/BJCc1t1Yl3lsSiF07uyM43qtvSRiktzkTjOJkBWch8VjRlV9DTlyNt8VsxjNYJD7AqJDbRntvdm5XVxHEOFsRtpD39zxssxbSc7PTg9+PbjkWS7cfjJ0IJlyLuqCRovR5TpHcBTUbcwI4KCCBJ8mW8WEcfYebzQ3C7mtGgIwK4+zeh4uMjkKJKBsQtS4fetpNNZZfypSpllp4t7DihX6EodhsZgfEkVV4ZEWSr2rxIvXZDGkimp6X2DGZGWtgHIq15ETCbZnL2+tQkpU6z47TA76SbNTo/jLcVs1WpHJRXKHpl3Ss+KnWytJVijU/WXXl91bzSe2ms3FaPyEvPYFKdy6/CsNPp2nmgouMugK286lNwsghoWgKT+GBf1R/s/FCxIcLO20JZ/SZcbaySrmlm+y1YicSU3k5gT2zs3rcqs2QhX4jbWUiNRZBHU2e2y6SlsxLQ08mRW22cKiKwJ31Ph2LK18dNWW9H6Y5G3EcDQsgDGXFI0sPVKRi459VUxFF2SVKkjOo4mJxt2Pp3Kx9xu50LRwpsVHItmRA9pYIYsUCk68HFEyrzLrgeS3ba5UcirqGjkycYNOXkp51LOjoaWMUSxnrUaVmk/oHkpCVhxgjzwR3K1h9zo027vzFRMM7gTxeOwA5DpXadvYRp9Hpbe87mDf8AY1WpOrb3tWfLXtpt7zZddxsFLuVbl2wFFti4VnXpdEKhRJw1oBr65bTd7SnqogPTBOz2aXq1VgFKfUsJ0WtcFCrPqWalNLrqalUUbIknscLM3zPYrjIqrLU+rKk65IXmo5kkw/VkiOnrEnNNmyA7WXHcqKoBj8ooylJcft9tPc8o6666LBpcFVtm7dsPbd2vZPE7+yy40/5AKb/26xznEeJazr2tRTZvuaTGwxmtI8SSVMFZXwXi5LFRIvWV+uchLkUiOiOkTfuGARGk4yLdIqichJx1QS0EQcyip50QqQDDC5dxO/ssuNP+QCm/9usc562xauxcbbQUMrX4VsqbhGAGzR2SV36NsQhVeFxbp2EWYX69eVw3smuiRlIYqsGCjU1U1317NypZqeTyxQtVLj61rXC7y2POGtsKbRW+bNqXhXFs27Un7DL/AMYxmLNOMYxjGMZgfg6j+9a//hmt8tY/B1H961//AAzW+WsYzfxmB+DqP71r/wDhmt8tY/B1H961/wDwzW+WsYyH+WL9llyWfyAXI/t1kbL/AMnGzUGJM/VusHBD2eb3Jsya4QleJHcbbu5mEXAVbEjsNfZy8YQzp5mKhImsAJSybFTDRxNUSpc7tAGMETYOzeXE6O7m9iurFf8A8OeLLy08Yy/8ZAHc3sV1Yr/+HPFl5aeO5vYrqxX/APDniy8tPGMv/GQB3N7FdWK//hzxZeWnjub2K6sV/wDw54svLTxjL/xkAdzexXViv/4c8WXlp47m9iurFf8A8OeLLy08Yy/8ZAHc3sV1Yr/+HPFl5aeO5vYrqxX/APDniy8tPGMv/PxKSanLKcoI6uRKKiSqkjSaqJigXCOEFFOPACFTpE6UH2CAGihssKKXMlxtm8IcETeEJs3bN27TWDe5vYrqxX/8OeLLy08dzexXViv/AOHPFl5aeQYtblmpoA1TQJbFsETWxZjImBgUSJgYzIkJRIkMzExMTkhIgITAiAwKCAxmRISGeokJRMSJDMRMTExMTHWJ65FLK4qbq1kbgkM0O5YXnX6rZAZX1j2FpfqRD9pnDCSauLKssGW3EctOh1MVdLNZH3K+4u0kOTkWUyreATksDTU+U2KRRUr2EOMKuMR1Nm2pjoEec7IVpT0mOS1MmS8tF1aUZ+fkvkfw17vV2LqMQRSaSp7E8NPTWeXa6cjlmYQRETekafjBQysndnub2K6sV/8Aw54svLTx3N7FdWK//hzxZeWnhgC5Fus/usBfqnRusskVi1apNMGuqPuvllxtZ7VIc9Jvlb31qrmibatc1T8zItIuAXidWuDsK8IEa6EXgFoLtqqIhdVdhK7FlSGimDQqzaUqQXZeLIyQOMzkfYDNTYJjHmtlVBrahJKWzW2QddPoHfNoWvGyankkgNqItnhltEIjLACST3EUp/uKF3C8UntYxwBSFUCiObS6fVeJ+pZ/j3JcbZJNe6JCaQmpxlCeyY6tQ5sR5QSndskcpPRSQxCG/fpMe+TNoj+OOLRL2pZtYNHUvVCDapnc3tOXdzexXViv/wCHPFl5aeO5vYrqxX/8OeLLy08tYRtB4tM2HZfXs2LRmRX22KrCdVeexmZvy6tZIraGex3pukV1cjbKXTBZeJ9d6hWuassmugFLGkmGwINBevgfQFbFANc1RW8ZVYmrI+tMqmMnVxjciEutFVgmeuZ2T3rWJ0EVJrPtuR/T+CIgsc/Y5UQDRIwyF+yiQtL5Ah+IpZnalOJztGGWw43AQA+6Mngdygt71WkOQ+MGHCfDPe6H4tbRBnRvGHGjadhsVqpn32pFAajVrA/UVDSgBDIo5sxoUTyYAW82dMGTxwXbvNHTJg0MMNv573N7FdWK/wD4c8WXlp51ZOfHlKkvwlMUSyXyh37dUcyjFkgx0/2uKyuMxGCcjJezSV206kAVXbXHMiuNKDWEJTPp29SQFlJWyO0xqaSlMgeCANBdEyBbFD0gXMU2wUCPlssrg0KxWn9PNa9YbFn1YsMZFabdwkQsrlmW1SAka2TEzKQctA9xeKuNgkFYiunr4UTYmrUiwSgAnjUqi2TGsiF+qWMgDub2K6sV/wDw54svLTx3N7FdWK//AIc8WXlp5DJ5HCDxW27r2vSM3KF8oDkrBWqSJEeso7YEfNTIlsobip2SYvnnO/tYSkt5OprqDWQlJeVFBYRG0+G1JiEgqYu03vIquhhYCV+9uP8A4vkOg83XLl9HnN+zTuuIqwu53NrKZIRSf5Z7xwzlpEfbzdb/ANXEZTncpys7HCsPLejt1ixw0WACaCZzRbYLaT0ssS7R7m9iurFf/wAOeLLy08dzexXViv8A+HPFl5aeEdKyBrKEPGOujTwTQCw/4oSoEGum0+G2pphOr1/jry6VLGokQERHpMWgLmOawYkn3C2LRiOxRbA3NsMvwgO1IXWufZY20tYvbNu5DGENuzDYobvE3bStOjtjzjp5QXPUirzndTneyHXt+1NiS0YMLrz5cik53gSgZ/PZ1NBUaDOPqSqaOpLNe6NJqQhqghhUC0NDqKtsUO43Rw+wqs8ab2440eSpKSyj6VTkkr1hlYZNcUrrthz0nkprOzk6wfuklEcKwpyinlVhWbuwJKTDCEHtbZIwmhhFlAv3p3N7FdWK/wD4c8WXlp47m9iurFf/AMOeLLy08rFUBWisJvgRCusLPs2J2Kl1HJsVFp2stnZpCpYrVLFUVWwGu+jQcmAZRpkm2WFNibUwsmFcs7BiyUoqrr1yHRbtPokE0rD7I2bgvY6uwmhf2QHJDsr0WJllPjct9ZqiVnqbW65EEabl+fEdiIDSl5Cp0zokKRanNFxpTlVjBuOmrLxze/1d3nEktsPmzT6bZBL2gFtUdJLaaH9ilR13uPxDuAmQY7WzMT+rfZ6qzhWHjWizMZkG8tOON3C5Gzo1HYmLjHeJNUaMgR0+UgIkSfDDXQQAXARTyyfosESwp7ac/Z3N7FdWK/8A4c8WXlp47m9iurFf/wAOeLLy08ss9bXWTmVFL6tqDpTOvauzTUlNewhtD1mV3itC+9qDWxx+RriY1zjOtYwpSkRHkSpO2rCqx/dLKtvF107Ws4bPlixXtoqoQSHwxS0B4UApRmBT1FnGvY5xWDhywPIBftSuiPWpbVnpXmKmjWiPKuRMyJOXGyfZ5uUnWkNd2SK6JIeSY31ZVJtPVZdxFAag6ibPJSFsOGDIw+fIHFzNTDnuWp+4570LlGzdjnQYkOx0QuOvzItDBMjyqYKhkzUtt1lO12MBejGQnCDs273wpNV5/hDyNFEw4ooYRkoYFPUr3N7FdWK//hzxZeWnjub2K6sV/wDw54svLTzvdPcsg6JJYWV9a4jW8oXPX9sbMIhcW4szToE72od5C12sMupa2hNfsfwUF1bBRXiIfM2IX6g2RqyiH+SK5Ii7fJRI8ZAzY7JsT5NjdN/7KZ0mWazLksS1LtkpattZiePRIvKMyyYEitRvk28wgVgNnR9D0NMwEqw4ejhCMuJxLO1BRtistLDhcCusOR0LYu8gGn3nkAdzexXViv8A+HPFl5aeO5vYrqxX/wDDniy8tPJMYbOzumOi1rSsRAFgC1DAAIgAiAxER1KYGJM5JhyTDIprWsVwXSWERl3GxrWvcwoEQiWOcbGskFgCg7zLxpWtIdq1gA3/AIyAO5vYrqxX/wDDniy8tPHc3sV1Yr/+HPFl5aeQyzL/AMZAHc3sV1Yr/wDhzxZeWnjub2K6sV//AA54svLTxjL/AMZAHc3sV1Yr/wDhzxZeWnjub2K6sV//AA54svLTxjL/AMZAHc3sV1Yr/wDhzxZeWnjub2K6sV//AA54svLTxjL/AMZAHc3sV1Yr/wDhzxZeWnjub2K6sV//AA54svLTxjL/AMZAHc3sV1Yr/wDhzxZeWnjub2K6sV//AA54svLTxjL/AMZAHc3sV1Yr/wDhzxZeWnjub2K6sV//AA54svLTxjL/AMZAHc3sV1Yr/wDhzxZeWnjub2K6sV//AA54svLTxjL/AMgCm/8ArFcsX8/8cf7rLjTx3N7FdWK//hzxZeWnnVkfceUqMl2zm5Wryh37R12X5TSJFktR2MrjMPbnU9kyEodiUgvilVXjmPkUYQtHMXMBr6JraKoqIKE2wlcdMFcaqvrKsxknx1xUcjsHyvaSU4O5YYwaCla+d3HOMgmnZxttOR3gIOdBBRWQyjL4WbRkT6g04vZZFMaDLSACCUjpZIueOkUcidW1XcZ9HKmwneqLHE7VC2t6WNbRuqqKSJtFuNKnzcrUYaS0Ce1HOrZxcRJhkwZzAnSP5CIaSMRSwym/TU5oaG3a6A6Y3c3sV1Yr/wDhzxZeWnjub2K6sV//AA54svLTzlePWTWQrrKqlGvrqwumbPipVKYa+ogSsy0pirTUpFcyKWIFSiUYmsCHjoh7HtP8Ms3H33kr9jyW7Vs79lxQjxxHsW2Ma8IiFt8jAMCWZBMgqPFTZ2GXXJ4PHPyTumlEFTK93dKDtr846wRbZ5sMOSX+fKqL3ctenA+nM01eIk1xnw1BcGY6iE/2KmudYUFlEbyaCLvTd9QszjwSoNoPKVLqzTQ+4ze0oNWU9Fi1j6L/AKWpiV5mmQI9vfthH0IKrsz0zkhYU1EdU++CV26ARELpRRK3p5BIIlwt3ub2K6sV/wDw54svLTx3N7FdWK//AIc8WXlp5SddLNczUmMnRbrQ07FkZy0tStYpTrfbkvbGihK0KrVRfCay6tMEAsaVWE6vbse6u/DOllWx+XAhEBTG16FE7IqojFU7xeSxJ2jSTzK5sCMyLY3psQRAPGTymVghaNK+wjy4wYyIoiNpJTKZDZI8VbFF2kEdKB/M0GOnDFsBDiqsqhreZVl9cURjCqvLh5RWlU0aUT5owLeStSRz2IpPJlO+Q+aUy2n6Wya0jvCSGNEadWwUJIEUk9aZQ7cZ6K8pGJIzoj5dSk1wIriFWlEE4tJxEwoIwpMIYgY/r3N7FdWK/wD4c8WXlp47m9iurFf/AMOeLLy0802jK7FyLZFZK/DPaa6ZN7Da0XMdFgur1WSaMHNpLF2ImT6NiDOCyVBiiVIqfWrOuNJ0oQRLBE1w7EDCxmANah6dimCaxIVnAd6wIYfW+Ka98nsYxW6f+ZGYJLpwrpJ5kvSPG1VyF4zsjJUUigakiscv+2KatrqgeLKCTtBQX46W1FLUdkgIe5TIrKqCIurBk57XR3HzLiZgsmLY4bic0I+jhpt5jMdqJAe8JLbbSaiSUQ28hp+wTeKLoTS0kiUJF9RhRRtwYO3cMKIJru37ox7m9iurFf8A8OeLLy08dzexXViv/wCHPFl5aeIM4Bgd5FLySdlplLLFxlYXjXbetHJWbzURatylttrmKK3cMCE7dgmxBSlhXWtYrVUW1VRC4gK9RTpTLl1ED0TVB0VqgNFALhiqdJRxKqdUFX/kRXho6zLrNCOgzD9fMJTVBEhp8v1xsPF4qXtkCGpNTSg6fqqEk9eJKTcdzSciQaNN5/R66k482no3DQycoAgmAiCgR473N7FdWK//AIc8WXlp47m9iurFf/w54svLTylixZC+ssEkvrWktS1qHotU7CrdSzXeg1uRYq2kpsV3pYDUuUDFkJjExpU40nJh2T3KchgNUp6mospZXsIclwMS5D0NYlyWga2qYazEhKYmdIl4zbBr87xDPXIbftwXmUK3Km5214i5vV5YlWoVZcomUcwhDzM9WOy3Y+zcpSgkJxo2ExFZbcCcgR8KprJxttkA+o6mwO1bl8dqzYCa41t1W+yjzppc+KWIrxIiTW2mO1JdZr4hxwOEq6FWKJlhp7jJ6K/2gEuAmlpv7k5xtBeby8fFWyS3uOkkncn827m9iurFf/w54svLTx3N7FdWK/8A4c8WXlp5Y7q6ERJEmaz32UFTMqJqsWklVttE6U1z77tMzoXZkp93XGWuteaiU15q/mGwfVwuqopMGzM2hKpVd7VWvA2PKIqq3euxqiEDFbaEW0R49iZWZ6erxxsyOiWOaNwrz3CdF57ExIgPNo17F/Q+yK7wfACDIRQonvRXj+GmUqusc3JjrSgB0BwyQ8H45VU42TASCTJJpROTtS3rBkAdzexXViv/AOHPFl5aeO5vYrqxX/8ADniy8tPJd0+NKYgRUgWipYACwDz2HW3l2gIxLH2rD7D2FEsc9zGsIjOSnkx1YbSmSYzsgjIiIu1Y9i1xJTPapQR2qUPatQ/VYDH4y/8APH6YOM2b0ewEr2Q49rzrtGHhY0+kLtk2EuQAxbQQjKD1byCM3UmUkaPXm52KoRrKRhN1TyzqcjUd21HewKKliOZrn1EARRGoLub2K6sV/wDw54svLTx3N7FdWK//AIc8WXlp5V2R5RcMmDRU1HkUxiiOu+Vk6s2VkHmrNYmu86ze9BWatSzK/YqVmKtFpgtio7CWwlGQMWto+RB96mhDBOFuCe8BcvtZ4WvRJ+Cw9bNSkFFm1TppScMuyY+LGz5YZ4/pIs1Y6VgkcF5TI99EgFBIBbW8glSraY0cM9BB2tuN4wbZfRusdtaapZIQ4KMcPG4VSeKS6EPJrlhqpXLZKMA1BXXA4FJvQyvVniuaZZh1uvFeUV10saEbJO5zpy6026FvVjpBjCOxiv8AWGCU1LipKmYUS+0/utbub2K6sV//AA54svLTx3N7FdWK/wD4c8WXlp4ctb2CxoDPbURQ8Qx46p0ay1KrUm019lR1OslK01qrUmhCYJSVgtjBOImYgwIM5ltpt4nGZHbi643sdbXcOStqsuZZcbXqcDWGfcZFIhI941JqvElKq9xxWqEU5TJMCN0s0VKnnApb1t2OpeWFI4vu18PNdEDB3rbxernU1ZyuRS0LlSwqopGA04inJgJJOK9OyRSX9IPITWi+H6Tfwju7wdN0M/or9DO3+mH6ZDjdN+knpx6VkvR/0c/APu/wf0PW/wAX7X+f+KJf3H5o34O5vYrqxX/8OeLLy08dzexXViv/AOHPFl5aeXsaxtxewMu62k7hqb0iIAr+uvam10XEQrtZrtjcrCEhIJFsGgVtUli6BSsKh0RGfWZFSGLkiIjmlsKm0rETSKXEYX6NWybJZJvNZC8mLa4GVROLWll6xU8WvBksJMGyurkCwDNlZdjYlL6Szj4aiTMGT52N1Fys4k6QzKaCdTthMdypW0uKcDP6DC7imhYbw7VeKLlFWrQNC4J/mIi4SbmNDTrgZvLOzjEaASKXjt5utDea4SHb2y2WiaaUhVxvJ4hdUGD3GS5f78vs1/MF012ejnc3sV1Yr/8AhzxZeWnjub2K6sV//Dniy8tPM4qALA2xlkWF+TxM8rZ8Pmp29e/wBJyCJsUb1ypZlQhNivYal8sAu3LzKTRNYu2UkYGYQIx5ZVYq21Q0oiDaCbVOrZSthGtNhIuUIMkime7w8clm7t1XrhAzovC0ECQIil5gTNL0kKNRkZ3x5YtwxicPLrOQ3PAes2txDQ2YSd25BdJ9pm3i70RaPNlMLqxM2U3Ch65XdA5oOs7DP/8AlSwf/ddlM9zexXViv/4c8WXlp47m9iurFf8A8OeLLy08nEdpWZHqMW7zdi9QTIIm66rSpNeqsMwivLKmtoIIK61LldVMdnUeuQ6RMI6/Yq1NVBTD+7vURYuW1JY8urn9lm/cdBvNjO+wzqcxMRHdLhjGxqpJFYHQiWiBbEfxYmvUvZaLi8HstUL2rU11kEENoKQDxVFgdxwQCxHoXPvsJPZO9a0cmxQ2tZYNappMM0JS2QB3N7FdWK//AIc8WXlp47m9iurFf/w54svLTyw2Ef8AMBH3ez6LWv7WHssMj6CP0FjSFCv+usiF1qwKrKUoOQMDCoju6JrrrB1IimVqNrBJpFMk6xJOOGWnSy04BUtzjWhAr5FWam3d0sReufP0j+mPfVl6OpV9FPRD0e/Rp6AxE2Yr/Afx30oXPTL8W9Hfx78U/Bmr2Dtn4X+HHOz/AIiPLcwcZs3o9gJXshx7XnXaMPCxp9IXbJsJcgBi2ghGUHq3kEZupMpI0evNzsVQjWUjCbqnlnU5Go7tqO9gUVLEczXPqIAiiNQXc3sV1Yr/APhzxZeWnjub2K6sV/8Aw54svLTymAgYqdkmv0dbW09aVMYoh1dSpUoooNJZCVmsKKFGTVZlwus0ql10MuVkvC4WEPt9OwovXX7G0LFraJ3rN52xdaAWCYpcVuxYISRC/Gmw+ovsqOagtejtG0KmbVko6pym/LB2GsA9Nsm2RsvKIaQXe8uP4JJARErcCgIBYo22LHjKRS4bfjSMW0BtbzGbm38MJCmxhjh83pt+pbikemLiqTfaXy92DkjNp/s2X5NMRY2IF9Pmy73CuH0IqVYUcKJpFZymyW4eQkFIXUBS2Kgyo2Sbw++KLhkTUHivc3sV1Yr/APhzxZeWnjub2K6sV/8Aw54svLTztkAtosVrK1trWadfXsrksIQNGpXOpXqV1CMLqV11D9bxVRSB1110sgl1q4qJa2uwHJawbAbCdpFmTI7JXyZYcdhlk5J7ZY+06w1bWGptnxWGAT0IYuDlDiDt++GKTqzM3LtOEmUGBKJzRWoPBr/FTJsXIEPIpJPJJ0OSVcpuLe10uJsKhVP2I78XkiNGy9361zamgrbl00Uzx4f0utHRuBrX1eFqY9UhWZscJZNlaxmqxep7ma8oUcsXDJ5uKntE66VBG1azmjk8kphhtj7SxkjoXLb0lSIn0c6eIGeBdzexXViv/wCHPFl5aeO5vYrqxX/8OeLLy08textkDF7XMNlhFxtmWsi869ULyVNg7YCUXnbGo7us1dgywV2tbNttD12WsafFHKXIcqACaw2F1kwtc06ybhAVyvXoSM0k1bYqQm3VVXGvZq1qlR6mValZKo9C4qLUzS44+QeQXk3elx60xg9UGREuuiDWKK62kJUdrHXdi7HQllXwwnI4D0wNlqnS6crG2OkIMdNJ1OlISXCvpJnQiEm57g5AHc3sV1Yr/wDhzxZeWnjub2K6sV//AA54svLTzstOV+LrEL87rUjAiPfZsAhTrDZGIJr2Jq1Uk1kmzwVq6YKFIUAVSMSYnMlJDXVVDqRSK6yGPapCgmZBSxdZsukViME6w5x9zGmRX/jIA7m9iurFf/w54svLTx3N7FdWK/8A4c8WXlp5Xksv/GQB3N7FdWK//hzxZeWnjub2K6sV/wDw54svLTxjEjftTab/AMgHJZ/cVxO5f+eVqvx5SopzbH0tH+UO/ZiRmTFkxR01XRqyuMwIVHZMou2DHK/0DYkAccwTcPBuRdiCNFEVSVUY+tpW5qhFUBTSSKy5Sq12n3N7FdWK/wD4c8WXlp4xl/4yAO5vYrqxX/8ADniy8tPHc3sV1Yr/APhzxZeWnjGX/jIA7m9iurFf/wAOeLLy08dzexXViv8A+HPFl5aeMZf+MgDub2K6sV//AA54svLTx3N7FdWK/wD4c8WXlp4xl/4yAO5vYrqxX/8ADniy8tPHc3sV1Yr/APhzxZeWnjGX/jIA7m9iurFf/wAOeLLy08dzexXViv8A+HPFl5aeMZf+MgDub2K6sV//AA54svLTx3N7FdWK/wD4c8WXlp4xl/4yAO5vYrqxX/8ADniy8tPHc3sV1Yr/APhzxZeWnjGXWuFVQ8iLBJDVA0NaOJagVSFoZP2KwKOqGCgwSeqCpQhknsUw083vBN70/ebK7Dm0HUtuMgaCai7fnyq/xNcntP4v3xNCfMBFCU3j70fMkudXX+MBnOV5PmRZJch51vd9Pl1qlsRVZ0OhfVz+/tCopDCCF00oloxLaWSElOJFvSLub2K6sV//AA54svLTx3N7FdWK/wD4c8WXlp5AQgGteMnDHoXWb+6zsJC3S8VwqT8QwTpFjZABJxJrS6WerW8UjKWLUk4ElpsFaWMgHUbJJKtDpLt7iYuuxyUkclNddq4CPGN21Dv5R1UacXtX+ea88iVlGXd9pzkhKrJOejdbUisZVEYLibxpDcKDvTm7J0kiqysaHNfiyU6QVNGUm+dLlRk0PaaLgnNkboHGZyPsBmpsExjzWyqg1tQklLZrbIOun0Dvm0LXjZNTySQG1EWzwy2iERlgBJJ7iKU/3FC7heKT2sY4ApCqBRHNpdm9zexXViv/AOHPFl5aeO5vYrqxX/8ADniy8tPOmAMY1hgE+wmmiyrtGKtpVCHxUG1TiIq2pTFu4Pe9LDMblyGEcW7MN6DGAlaRMu1L7FlBzMlYrutyqbBV7RdbNcGzXrdykuBX9rU6BHqVvF3lUuq8RUrr7HNa4OTVUhHsbphsqTOuJU3LzudC4sqZ1fdj3erg3glty68no5lNVcrlVNpUkVHVVIxsTU9MSwiSaU6N4nf2WXGn/IBTf+3WOcdzexXViv8A+HPFl5aed41lgxJgGt1fIIZLze5xmQpCEURI0Tbi3Mw84DTYjhhoDOQTC4dIsxLJHFgdKRigqmaJpqcVMHdw4xciUB37C4dzmse03NLvYwpMy6RHWZ/+CMQIjH8CIxAiMQIxAxERQpQJWKlj2gEdBjrJT/PWZIimSMymZIzOSMymSMiKZmaOxmB+DqP71r/+Ga3y1j8HUf3rX/8ADNb5ayvLM38Zgfg6j+9a/wD4ZrfLWMYzfxjGMYxjGMZgOv8AVZy/wBY/pxnN/MB1/qs5f4Asf04zm/jGMYxjGMYxjGMYxjGMYxjGMYxjGMYxjGMYxjGMwHX+qzl/gCx/TjOb+YDr/VZy/wAAWP6cZxjN/GMYxjGMYxjGMYxjGMYxjGMYxjGMYxjGMYxjGMYxjGMYxjGMYxjGMYxjGMYxjGMYxjGMYxjMBH/0i6/4+W/ys2s38wEf/SLr/j5b/KzaxjN/GMYxjGMYxjGMYxjGMYxjGMYxjGMYxjGMYxjGMYxjGMYxjGMYxjGMYxjGMYxjGMYxjGMYxjGMYxjGMYxjGMYxjGMYxjGMYxmAZ/WlH/gDl/qLUzfzAM/rSj/wBy/1FqZv4xjGMYxjGMYxjGMYxjGMYxjGMYxjGMYxjGMYxjGMYxjGMYxjMBqfqs2v4Aj/ANOLZv5gNT9Vm1/AEf8ApxbGM38YxjGMYxjGMYxjGMYxjGYDr/VZy/wBY/pxnN/MB1/qs5f4Asf04zm/jGMYxjGMYxjGMYxjGMYxjGMYxjGMYxjGMYxjGMwHX+qzl/gCx/TjOb+YDr/VZy/wBY/pxnGM38YxjGMYxjGMYxjGMYxjGMYxjGMYxjGMYxjGMYxjGMYxjGMYxjGMYxjGMYxjGMYxjGMYxjGMwEf/AEi6/wCPlv8AKzazfzAR/wDSLr/j5b/KzaxjN/GMYxjGMYxjGMYxjGMYxjGMYxjGMYxjGMYxjGMYxjGMYxjGMYxjGMYxjGMYxjGMYxjGMYxjGMYxjGMYxjGMYxjGMYxjGMYxmAZ/WlH/AIA5f6i1M38wDP60o/8AAHL/AFFqZv4xjGMYxjGMYxjGMYxjGMYxjGMYxjGMYxjGMYxjGMYxjGMYxjMBqfqs2v4Aj/04tm/mA1P1WbX8AR/6cWxjN/GMYxjGMYxn/9k=;" vertex="1" parent="1">
          <mxGeometry x="70" y="610" width="519.06" height="90" as="geometry" />
        </mxCell>
      </root>
    </mxGraphModel>
  </diagram>
</mxfile>
